# File generated by ImageToStl.com - Free Image and 3D model conversion tools

mtllib l_hard_open.mtl

o obj1
v 0.04017584 0.09889372 0.02108017
v 0.03396023 0.10333769 0.01840506
v 0.03412592 0.09298445 0.01924976
v 0.04086196 0.09164712 0.02149644
v 0.02328173 0.04099802 0.02611988
v 0.01941711 0.02190739 0.02811505
v 0.02574108 0.02401742 0.02842993
v 0.03122806 0.0420891 0.02685496
v -0.05627937 0.07216546 0.01841504
v -0.04906531 0.06003813 0.02040441
v -0.04477182 0.07785171 0.01152182
v -0.04976169 0.08020048 0.01136493
v -0.00099985 0.04263512 0.01206154
v -0.01086487 0.04404853 0.00893161
v -0.0124557 0.01871246 0.01562491
v -0.00265947 0.01872322 0.01660864
v 0.00903991 0.0414698 0.01728126
v 0.00665521 0.01948145 0.02142806
v 0.0141777 0.02017544 0.0253848
v 0.01709872 0.04036547 0.02211199
v -0.01802217 0.11659671 -0.00139713
v -0.03014802 0.1165947 -0.00075533
v -0.0299684 0.10614721 0.00231393
v -0.01829776 0.10427819 0.00204564
v 0.00392174 0.11532272 0.00141824
v -0.00684486 0.11593717 -0.00102314
v -0.00758978 0.10213004 0.00215555
v 0.00268165 0.10045722 0.00483603
v 0.02457946 0.10766718 0.01198916
v 0.01442346 0.11149384 0.00719378
v 0.01344549 0.09727857 0.01038944
v 0.02434139 0.09609239 0.01527934
v -0.02467146 0.19679183 -0.00511467
v -0.03121351 0.19930901 -0.00456893
v -0.03099132 0.189082 -0.00317128
v -0.02405762 0.18813333 -0.00382576
v 0.00029708 0.20527472 -0.00576326
v -0.00708616 0.20745148 -0.0046696
v -0.00680752 0.19576645 -0.00322579
v 0.00032309 0.19459932 -0.00339813
v 0.02214639 0.1960299 0.00487309
v 0.01573277 0.19812144 0.00248246
v 0.0158508 0.18650678 0.00466226
v 0.02258147 0.18483041 0.00726134
v 0.00092473 0.11979604 -0.00046237
v -0.00702049 0.12039547 -0.00096293
v 0.0230018 0.11213939 0.00979609
v 0.01442458 0.11596724 0.00719127
v 0.04082067 0.10300216 0.0193468
v 0.0339824 0.10755835 0.01835839
v -0.02207172 0.12102036 -0.0016412
v -0.03022989 0.1209528 -0.00083333
v -0.06834275 0.12248544 0.02464774
v -0.07239526 0.12381874 0.02739996
v -0.06548513 0.10833588 0.02673526
v -0.0604803 0.10868581 0.02311628
v 0.00668503 -0.04020523 0.00613784
v 0.01732655 -0.03965548 0.00876644
v 0.01211946 -0.0410258 0.01824732
v 0.00172592 -0.0415586 0.01544158
v -0.03082718 -0.03542694 -0.00651035
v -0.02979811 -0.03694786 0.00695632
v -0.03322807 0.01008878 0.01136731
v -0.03606747 0.01179354 -0.00081091
v 0.02373907 -0.03851922 0.00942553
v 0.01791231 -0.03989748 0.01938072
v 0.01211946 -0.0410258 0.01824732
v -0.02258461 0.00702718 0.01197567
v -0.01226322 0.00583526 0.01262135
v -0.0220294 0.01876202 0.0151738
v 0.00965029 0.00717254 0.02024582
v 0.01437636 0.00834989 0.02290398
v -0.03733452 0.01992099 0.0169782
v 0.0043697 0.0065851 0.0173185
v -0.00253277 0.00576516 0.01517046
v 0.02570919 0.07634522 0.01498441
v 0.01429463 0.07836305 0.00920869
v 0.01134311 0.05968687 0.00974553
v 0.02033778 0.05659503 0.01745969
v 0.00319414 0.07915454 0.00352768
v -0.00670335 0.08319655 0.00071429
v -0.00731497 0.06614153 0.00117309
v 0.00234404 0.0634674 0.00338306
v 0.03372462 0.07256993 0.02029705
v 0.02789772 0.05513772 0.02201446
v 0.0356638 0.05363291 0.02369926
v 0.04041576 0.07256148 0.02231115
v 0.00034911 0.18237315 -0.00319385
v -0.00652888 0.18253064 -0.00394284
v -0.00548562 0.15847559 -0.00487008
v 0.00211537 0.15815821 -0.00398262
v 0.00206655 0.14970861 -0.00340808
v -0.00579413 0.14998582 -0.00412182
v 0.02402827 0.14049305 0.00785646
v 0.01610259 0.14287712 0.00508247
v 0.04193902 0.12647602 0.01821672
v 0.03515645 0.12973787 0.01666716
v -0.02344379 0.1773403 -0.00469771
v -0.03076914 0.17730418 -0.00393448
v -0.03018084 0.15586981 -0.00441222
v -0.02220569 0.15603055 -0.00553399
v 0.02301654 0.17208011 0.00748873
v 0.01596883 0.17334129 0.00468122
v 0.01664563 0.15169077 0.00442232
v 0.02425152 0.14923008 0.00725131
v 0.0418966 0.15446533 0.01694291
v 0.03611932 0.1560073 0.01554301
v 0.03577108 0.13883632 0.01593573
v 0.04226417 0.13578375 0.01741552
v -0.03011237 0.14741015 -0.0038108
v -0.03793632 0.15570819 -0.00492946
v -0.03789957 0.14714879 -0.00429026
v -0.0137492 0.15052059 -0.00565629
v -0.01338016 0.1590248 -0.00642774
v 0.00956109 0.14557377 -0.00075517
v 0.01044616 0.15440069 -0.00147308
v 0.03032616 0.13282721 0.01101823
v 0.03153652 0.14194946 0.0101586
v -0.02208715 0.14753516 -0.00478246
v -0.05555084 0.08739149 0.01506149
v -0.06010483 0.08542039 0.02062573
v -0.01769676 0.09049247 0.00108951
v -0.02778043 0.09498475 0.00059034
v -0.02993813 0.08678173 0.00541553
v -0.01837373 0.07390209 0.00403389
v -0.03977333 0.11602134 -0.01807216
v -0.04062961 0.10755992 -0.01878972
v -0.04180564 0.10817286 -0.00916142
v -0.04108177 0.11624104 -0.00993886
v -0.02223569 0.12099148 -0.01698856
v -0.01956756 0.12100403 -0.00930154
v -0.01883587 0.1184248 -0.00930477
v -0.01813145 0.11652906 -0.0172233
v 0.03397368 0.1325219 0.00301786
v 0.03022844 0.13262613 0.00598989
v 0.03148877 0.14179377 0.00533674
v 0.03478209 0.14156379 0.00277997
v -0.07197955 0.12352599 0.01224543
v -0.07314507 0.12544718 0.02099584
v -0.06742369 0.12437417 0.01968596
v -0.06761884 0.1225584 0.01400533
v -0.0388343 0.12076391 -0.01734556
v -0.04067653 0.12069251 -0.00975437
v -0.04059878 0.14701673 -0.01044085
v -0.03863093 0.14702317 -0.01673062
v -0.07392752 0.11338843 0.02662442
v -0.0777784 0.11220433 0.02226541
v -0.07655954 0.10882846 0.0221672
v -0.07270867 0.11001258 0.02652621
v -0.02238834 0.14728199 -0.01724869
v -0.01971022 0.14748906 -0.01123158
v -0.05930253 0.11049831 0.01783353
v -0.06213562 0.10988718 0.01137264
v -0.0382631 0.17712992 -0.01493339
v -0.03840235 0.15556423 -0.01677785
v -0.04049188 0.1555987 -0.01081322
v -0.04043953 0.17714091 -0.00953611
v -0.06393521 0.05076064 -0.0011384
v -0.06014475 0.04326793 0.01037063
v -0.06942353 0.06191783 0.01568069
v -0.07005518 0.06642961 0.00591106
v 0.04453181 0.16496529 0.01098717
v 0.04441461 0.16452166 0.01492367
v 0.04515509 0.15433042 0.01440732
v 0.04518447 0.1542235 0.01000627
v -0.02359769 0.17720035 -0.01514345
v -0.02130613 0.17728803 -0.00996739
v -0.01983699 0.1560223 -0.01174162
v -0.02244398 0.15580633 -0.01738359
v -0.05843628 0.08095464 -0.0016469
v -0.05283597 0.08374851 0.00237175
v -0.04814109 0.07962937 -0.00011092
v -0.05475549 0.07780836 -0.00893626
v -0.01385133 0.18263131 -0.01438505
v -0.01378856 0.1586293 -0.01715719
v -0.01605319 0.15889384 -0.01200986
v -0.01616822 0.18265703 -0.00942281
v -0.02399698 0.18873711 -0.01370585
v -0.02204114 0.1881668 -0.00891702
v 0.01653336 -0.03688966 -0.0136243
v 0.01133905 0.00991146 -0.00816905
v 0.02003953 0.01027044 -0.00371739
v 0.0263386 -0.0363459 -0.00852845
v 0.00328206 0.18231329 -0.01276534
v 0.00405841 0.18234833 -0.00708713
v 0.006411 0.1581596 -0.00864629
v 0.00521725 0.15785167 -0.01473443
v -0.03820825 0.18854603 -0.01375104
v -0.04013564 0.18791683 -0.00888159
v -0.03840678 0.19813852 -0.00819696
v -0.03786461 0.19814944 -0.01299907
v -0.00377305 -0.03866303 -0.01957432
v 0.00756418 -0.03927674 -0.01632523
v -0.00152837 -0.04076001 0.00266688
v -0.00924411 -0.04015803 0.00187126
v 0.04770198 0.09047665 0.00762181
v 0.04658315 0.0906141 0.01673828
v 0.0464884 0.07235347 0.01728179
v 0.04709854 0.07241482 0.00686279
v -0.01533621 0.12098506 -0.01650634
v -0.01813599 0.12100138 -0.00929822
v -0.01649989 0.15038083 -0.01155644
v -0.01419054 0.15009491 -0.01697731
v -0.02486594 -0.0365679 -0.0160754
v -0.01538933 -0.03812935 -0.01961267
v -0.01618552 -0.03960048 -0.00220239
v -0.02893103 -0.03743343 -0.00618461
v 0.00521126 0.11979593 -0.01429676
v 0.00527145 0.14933993 -0.01468154
v 0.00650941 0.14969732 -0.00833847
v 0.00572674 0.11979593 -0.00624825
v 0.01594474 -0.03873011 -0.0122751
v 0.02575256 -0.03820822 -0.00715881
v -0.04516246 0.08368262 -0.00419902
v -0.04844739 0.08149052 -0.01300742
v 0.01291139 0.1743495 -0.00873169
v 0.01369902 0.1540477 -0.0109976
v 0.01013028 0.15427634 -0.00730732
v 0.00958148 0.17449409 -0.00546657
v 0.0416915 0.04328277 0.00454928
v 0.04406364 0.05412222 0.00526651
v 0.04194127 0.05395954 0.01660549
v 0.03843885 0.04278523 0.01797548
v 0.02670462 0.17190295 -0.00095429
v 0.02661408 0.17197843 0.00454132
v 0.02842774 0.14919412 0.00339639
v 0.0284746 0.1489213 -0.00258038
v 0.00261849 0.19524887 -0.01271133
v 0.00358612 0.19458359 -0.00739416
v 0.01162213 0.11979593 -0.01095296
v 0.00708282 0.11979593 -0.00565369
v 0.00919484 0.14541948 -0.00684421
v 0.01289318 0.14518563 -0.01083644
v 0.0343319 0.17478359 0.00621802
v 0.03456455 0.16648608 0.00506008
v 0.03178412 0.16610193 0.00727472
v 0.03183842 0.17481713 0.00910637
v 0.0282029 0.11213861 -0.00179161
v 0.02827002 0.14002635 -0.00230065
v 0.02833518 0.14045805 0.0037854
v 0.02770116 0.11214067 0.0053414
v -0.01378765 0.1954418 -0.01346981
v -0.016018 0.19478433 -0.00865412
v -0.01402708 0.20634845 -0.00798428
v -0.01268512 0.20635508 -0.01244485
v -0.04551689 0.02704895 -0.01182239
v -0.04467805 0.02023492 0.00166592
v -0.05168576 0.0293093 0.00518289
v -0.05473292 0.038622 -0.00613938
v 0.03508201 0.15718693 0.00375907
v 0.03205969 0.15737607 0.00609234
v 0.0321576 0.01242515 0.00578461
v 0.03703942 0.02648681 0.00416432
v 0.03332983 0.02528575 0.01847711
v 0.02694544 0.01127071 0.0145184
v 0.01229144 0.1863862 -0.00768813
v 0.00965076 0.18599707 -0.00503259
v 0.01096983 0.19750731 -0.00486875
v 0.01254152 0.19752511 -0.00731619
v -0.06206716 0.08797374 0.00416878
v -0.05563218 0.08919214 0.00795538
v 0.04603394 0.1357203 0.01441115
v 0.04614541 0.13562378 0.00944261
v 0.0261141 0.18519066 -1.456E-05
v 0.02604453 0.18478486 0.00424332
v 0.03328573 0.11214153 0.00241045
v 0.02896871 0.11214201 0.00608604
v 0.00641047 0.11719944 -0.00600102
v 0.00890407 0.11532255 -0.01366762
v -0.07271861 0.08300769 0.01913931
v -0.07248357 0.08405619 0.00955426
v 0.04599543 0.1262397 0.0098076
v 0.04585743 0.12636332 0.01505276
v 0.04609591 0.10292853 0.01593305
v 0.04577535 0.10292825 0.00936851
v -0.03610088 0.01348748 -0.01455714
v -0.03606747 0.01179354 -0.00081091
v -0.0264507 -0.03415428 -0.01728905
v -0.02031081 0.01201354 -0.01766786
v -0.01548467 -0.03620415 -0.0212766
v 0.02830391 0.10954252 0.00581407
v 0.03071085 0.10766514 -0.0013216
v -0.04124925 0.09981669 -0.01877295
v -0.04149587 0.08876126 -0.0189489
v -0.04240817 0.08923182 -0.00823919
v -0.04204864 0.100179 -0.00858499
v 0.04371746 0.17471419 0.01153899
v 0.04002306 0.176844 0.00696489
v 0.03748147 0.17685185 0.01216085
v 0.04174168 0.17472358 0.01479075
v 0.04665472 0.09847355 0.01620224
v 0.04690612 0.09845212 0.00745071
v 0.02530336 0.19759099 -0.00042769
v 0.01972354 0.19970123 -0.00574094
v 0.01774713 0.19969885 -0.00051344
v 0.02422521 0.19758406 0.00231967
v 0.00089221 0.20629634 -0.01253382
v -0.0071469 0.20902191 -0.01373534
v -0.00715117 0.2090233 -0.00801822
v 0.001297 0.20627356 -0.00783554
v -0.06950431 0.10900016 0.00969365
v 0.0203664 0.1896235 -0.00639195
v 0.02006807 0.18589871 -0.00603171
v 0.01513442 0.18728192 -0.0079269
v 0.01541576 0.19100566 -0.00824811
v 0.04286049 0.09089586 0.00112819
v 0.04114775 0.1030121 0.00365254
v 0.031068 0.02473364 -0.00166033
v 0.03526478 0.04252026 -0.00033494
v -0.05910018 0.06451105 -0.00613001
v -0.0659647 0.07285194 0.00200869
v -0.02957864 0.02486411 -0.01541224
v -0.03274583 0.04924714 -0.01739901
v -0.02354937 0.04745025 -0.01849714
v 0.00540419 0.04354485 -0.01739455
v 0.0031387 0.02265312 -0.01478004
v -0.01042972 0.0234905 -0.01889139
v -0.00889708 0.0453968 -0.02036977
v 0.02225013 0.02304224 -0.00627097
v 0.0141025 0.02265001 -0.01016573
v 0.01818657 0.04218411 -0.01163591
v 0.02507924 0.04151126 -0.00706325
v -0.01863846 0.10362364 -0.01796524
v -0.03119644 0.10558693 -0.02075266
v -0.03085538 0.1165106 -0.01806824
v 0.00833592 0.10214044 -0.01490378
v -0.00476129 0.10430829 -0.02116256
v -0.00341793 0.11591639 -0.0183016
v 0.03210795 0.09394051 -0.00160206
v 0.0218258 0.09798636 -0.0111825
v 0.02077582 0.11149384 -0.00838707
v -0.00215049 0.20887448 -0.01278137
v -0.0001854 0.20610003 -0.01282589
v -0.00018755 0.20614509 -0.01360401
v -0.00215202 0.20890647 -0.01333406
v 0.01618715 0.19960545 -0.00703833
v 0.01485016 0.19684157 -0.00771071
v 0.0198431 0.19864506 -0.00599244
v 0.01972508 0.2009916 -0.00583199
v 0.04065443 0.16954127 0.00595952
v 0.04340595 0.16994169 0.00913009
v 0.04310802 0.1661638 0.00944238
v 0.04034089 0.16575964 0.00630519
v -0.00308784 0.12038824 -0.01840014
v 0.02077796 0.11596724 -0.00836557
v 0.04110553 0.10753362 0.00370352
v -0.03087427 0.12097558 -0.01795668
v 0.01594474 -0.03873011 -0.0122751
v 0.03048912 -0.03715231 -0.00268735
v -0.00925223 0.01083513 -0.01670888
v -0.00354639 -0.03680531 -0.02111822
v 0.02599406 0.01117301 -0.00055487
v 0.04129123 0.13853291 0.00429692
v 0.04076489 0.15556851 0.00536102
v 0.00217782 0.00989402 -0.01251407
v 0.02820716 0.05396114 -0.00660705
v 0.01952126 0.05693495 -0.01240751
v 0.0221519 0.08471029 -0.00832305
v 0.03231966 0.08779053 -0.00371721
v 0.00770998 0.09342581 -0.0167177
v 0.00824916 0.0607007 -0.01833067
v -0.00428699 0.06564672 -0.02186311
v -0.00499746 0.09047444 -0.0203715
v 0.0363881 0.05412052 -0.00074699
v 0.0401186 0.07815921 0.0009851
v -0.0488053 0.07382125 -0.01562728
v -0.00461867 0.1582444 -0.01799068
v -0.00600989 0.18251099 -0.01550367
v -0.00449376 0.14969596 -0.01798456
v 0.02129312 0.14252678 -0.0082628
v 0.04099241 0.12936644 0.00431461
v -0.03043438 0.15572546 -0.01793138
v -0.03091558 0.17717864 -0.01574234
v 0.02170967 0.15139779 -0.00825821
v 0.02038598 0.17309815 -0.00626979
v -0.0305583 0.14721924 -0.01791509
v -0.07475395 0.10819976 0.01324268
v -0.07642482 0.10787104 0.02211379
v -0.03817959 0.1771927 -0.00426132
v -0.06822672 0.08581884 0.00482776
v -0.01975194 0.09469892 -0.01920312
v -0.01948646 0.0722941 -0.02082026
v -0.03126894 0.08038823 -0.01992187
v -0.03112763 0.09181246 -0.01905428
v -0.05287105 0.05789584 -0.01216735
v -0.04472077 0.05115333 -0.01560507
v -0.03463566 0.20086879 -0.01381811
v -0.03130772 0.20227306 -0.01416487
v -0.03121025 0.20009254 -0.01481662
v -0.03589553 0.19811554 -0.01432842
v -0.03125784 0.20088479 -0.00800092
v -0.03124064 0.20095778 -0.01375628
v -0.03911662 0.10071757 0.00028362
v -0.0406273 0.0901093 0.0028109
v -0.03788367 0.12074238 -0.0019958
v -0.03782586 0.19655517 -0.00528841
v -0.03800273 0.18794119 -0.00369444
v -0.03935535 0.11635597 -0.00184853
v 0.01120065 -0.0395036 0.01983008
v 0.001003 -0.04004114 0.01704506
v -0.03940238 0.10843106 1.193E-05
v 0.00810214 -0.03743075 -0.01771024
v 0.01653336 -0.03688966 -0.0136243
v -0.03110699 0.19237685 -0.01520575
v -0.02668117 0.19349498 -0.01457741
v -0.02668848 0.18972781 -0.01419989
v -0.03111508 0.18860327 -0.01475422
v -0.00715117 0.2090233 -0.00801822
v -0.0071469 0.20902191 -0.01373534
v -0.00354639 -0.03680531 -0.02111822
v -0.01530585 0.12100826 -0.00208456
v -0.01379791 0.18267608 -0.00445672
v 0.00172592 -0.0415586 0.01544158
v -0.00627944 -0.04215339 0.01424996
v -0.01369915 0.20535535 -0.00546767
v -0.01374853 0.19479111 -0.00388177
v -0.03082718 -0.03542694 -0.00651035
v 0.02441044 0.1900132 -0.0020544
v 0.02428638 0.19690263 -0.00226251
v 0.02398805 0.19688389 -0.00157738
v 0.0241291 0.18628947 -0.00173319
v 0.01774713 0.19969885 -0.00051344
v 0.01972354 0.19970123 -0.00574094
v 0.03130415 -0.03520131 -0.00436515
v 0.00981258 0.17454627 -0.00021382
v 0.00707473 0.11979593 0.00161685
v 0.01678953 -0.03839114 0.02120813
v 0.01120065 -0.0395036 0.01983008
v 0.00997734 0.19594903 -0.00181776
v 0.00989496 0.18602306 6.464E-05
v 0.03341381 -0.03407246 0.00307435
v 0.03034778 -0.03567618 0.0096147
v 0.03664564 0.1673761 0.00516812
v 0.03694357 0.17115399 0.00485584
v 0.03748147 0.17685185 0.01216085
v 0.04002306 0.176844 0.00696489
v 0.03130415 -0.03520131 -0.00436515
v 0.03204501 0.15745077 0.01056279
v 0.02878081 0.11214593 0.01201161
v 0.02142967 0.01011937 0.02172074
v 0.03034778 -0.03567618 0.0096147
v 0.02694544 0.01127071 0.0145184
v 0.02295076 -0.03729673 0.0201461
v 0.03130063 0.1732647 0.01051836
v 0.03167282 0.16613314 0.011621
v 0.03555986 0.16643058 0.01632579
v 0.03500041 0.17530306 0.01494773
v 0.02295076 -0.03729673 0.0201461
v 0.03183842 0.17481713 0.00910637
v 0.03748147 0.17685185 0.01216085
v 0.01774713 0.19969885 -0.00051344
v 0.01096983 0.19750731 -0.00486875
v 0.02422521 0.19758406 0.00231967
v -0.0068065 -0.04061295 0.01589894
v -0.01439269 -0.04003543 0.01560477
v -0.01402708 0.20634845 -0.00798428
v -0.00715117 0.2090233 -0.00801822
v -0.03840678 0.19813852 -0.00819696
v -0.03125784 0.20088479 -0.00800092
v 0.04194127 0.05395954 0.01660549
v 0.0464884 0.07235347 0.01728179
v 0.04585743 0.12636332 0.01505276
v 0.04603394 0.1357203 0.01441115
v 0.001297 0.20627356 -0.00783554
v 0.02830391 0.10954252 0.00581407
v 0.02896871 0.11214201 0.00608604
v 0.04665472 0.09847355 0.01620224
v 0.04609591 0.10292853 0.01593305
v 0.00919484 0.14541948 -0.00684421
v 0.01013028 0.15427634 -0.00730732
v 0.0405067 0.17316546 0.01586461
v 0.04174168 0.17472358 0.01479075
v -0.04240817 0.08923182 -0.00823919
v -0.04204864 0.100179 -0.00858499
v 0.02770116 0.11214067 0.0053414
v 0.02833518 0.14045805 0.0037854
v 0.02842774 0.14919412 0.00339639
v 0.00641047 0.11719944 -0.00600102
v 0.00708282 0.11979593 -0.00565369
v -0.02052247 -0.03946042 0.01397214
v -0.01439269 -0.04003543 0.01560477
v -0.04467805 0.02023492 0.00166592
v -0.01649989 0.15038083 -0.01155644
v -0.01605319 0.15889384 -0.01200986
v -0.07271861 0.08300769 0.01913931
v -0.06689414 0.08332351 0.02318569
v -0.07197338 0.10797355 0.02737824
v -0.07642482 0.10787104 0.02211379
v -0.01883587 0.1184248 -0.00930477
v -0.01813599 0.12100138 -0.00929822
v -0.06942353 0.06191783 0.01568069
v -0.0630139 0.0621281 0.01906692
v 0.00572674 0.11979593 -0.00624825
v 0.00650941 0.14969732 -0.00833847
v 0.006411 0.1581596 -0.00864629
v 0.03022844 0.13262613 0.00598989
v 0.02604453 0.18478486 0.00424332
v 0.02661408 0.17197843 0.00454132
v 0.04515509 0.15433042 0.01440732
v 0.00965076 0.18599707 -0.00503259
v 0.03332983 0.02528575 0.01847711
v -0.04059878 0.14701673 -0.01044085
v -0.04049188 0.1555987 -0.01081322
v 0.03205969 0.15737607 0.00609234
v 0.03148877 0.14179377 0.00533674
v -0.04415523 0.02686139 0.01874646
v -0.05168576 0.0293093 0.00518289
v -0.016018 0.19478433 -0.00865412
v 0.02846522 -0.03773678 0.0094316
v 0.02201638 -0.03916469 0.01849484
v 0.01791231 -0.03989748 0.01938072
v 0.03178412 0.16610193 0.00727472
v -0.01971022 0.14748906 -0.01123158
v -0.01983699 0.1560223 -0.01174162
v 0.00358612 0.19458359 -0.00739416
v 0.00405841 0.18234833 -0.00708713
v 0.03843885 0.04278523 0.01797548
v -0.02204114 0.1881668 -0.00891702
v -0.02130613 0.17728803 -0.00996739
v 0.00958148 0.17449409 -0.00546657
v -0.04814109 0.07962937 -0.00011092
v -0.04321558 0.08283933 0.0057018
v -0.04516246 0.08368262 -0.00419902
v 0.001003 -0.04004114 0.01704506
v -0.05930253 0.11049831 0.01783353
v -0.05563218 0.08919214 0.00795538
v -0.01384526 -0.04157662 0.0140548
v 0.04658315 0.0906141 0.01673828
v -0.02979811 -0.03694786 0.00695632
v -0.02052247 -0.03946042 0.01397214
v -0.04013564 0.18791683 -0.00888159
v -0.04067653 0.12069251 -0.00975437
v -0.04108177 0.11624104 -0.00993886
v 0.03181841 -0.03672412 0.00279454
v 0.02846522 -0.03773678 0.0094316
v 0.03048912 -0.03715231 -0.00268735
v -0.01616822 0.18265703 -0.00942281
v -0.0242011 0.19843234 -0.00789676
v -0.05283597 0.08374851 0.00237175
v 0.04441461 0.16452166 0.01492367
v 0.04120165 0.16459079 0.01748418
v -0.06014475 0.04326793 0.01037063
v -0.05391907 0.04287478 0.01963187
v -0.04043953 0.17714091 -0.00953611
v -0.06742369 0.12437417 0.01968596
v -0.01956756 0.12100403 -0.00930154
v -0.07799337 0.12511852 0.0155647
v -0.07744818 0.12521273 0.01546649
v -0.07719266 0.12374556 0.0154776
v -0.07773785 0.12365136 0.0155758
v -0.07314507 0.12544718 0.02099584
v -0.04180564 0.10817286 -0.00916142
v -0.02068516 0.06368755 0.01244332
v -0.01918894 0.04498739 0.01586992
v -0.02813174 0.05929298 0.01677233
v -0.02785851 0.04448243 0.01992533
v -0.03065834 0.0757331 0.01119085
v -0.04220292 0.06989592 -0.01862939
v -0.0375771 0.04912592 0.0206448
v -0.03458047 0.06916864 0.01571649
v -0.07862858 0.12527385 0.02208835
v -0.07613654 0.12387955 0.02742177
v -0.0766031 0.12322588 0.01458637
v -0.07862858 0.12527385 0.02208835
v 0.04039397 0.16498747 0.00616296
v 0.02008818 0.18518093 -0.00609375
v -0.00657839 0.19454767 -0.0146195
v -0.03107786 0.18785048 -0.0148316
v -0.02469429 0.19845036 -0.01268572
v -0.0242011 0.19843234 -0.00789676
v -0.00018524 0.19614817 -0.01286913
v -0.0001854 0.20610003 -0.01282589
v 0.04310802 0.1661638 0.00944238
v 0.0428304 0.1740406 0.01010239
v 0.03629099 0.17411205 0.00601873
v 0.03664564 0.1673761 0.00516812
v -0.01030079 0.20897569 -0.01273006
v -0.01030232 0.20900768 -0.01328276
v -0.01166204 0.20628762 -0.01353179
v -0.01165989 0.20624258 -0.01275367
v -0.01165989 0.20624258 -0.01275367
v -0.01125087 0.19633757 -0.01357424
v 0.01485016 0.19684157 -0.00771071
v 0.01513442 0.18728192 -0.0079269
v 0.0241291 0.18628947 -0.00173319
v 0.02398805 0.19688389 -0.00157738
v -0.02668848 0.18972781 -0.01419989
v -0.02661423 0.19832341 -0.01326608
v 0.04034089 0.16575964 0.00630519
v 0.02006807 0.18589871 -0.00603171
v -0.00652392 0.19526564 -0.01457582
v -0.03590362 0.19804806 -0.01355199
v -0.03558722 0.18957658 -0.01423173
v -0.03111508 0.18860327 -0.01475422
v 0.04012821 0.175796 0.00677393
v 0.04012821 0.175796 0.00677393
v 0.0198431 0.19864506 -0.00599244
v 0.0198431 0.19864506 -0.00599244
v -0.00711328 0.20797212 -0.0138435
v -0.00711328 0.20797212 -0.0138435
v -0.03121553 0.19990034 -0.01404501
v -0.03124064 0.20095778 -0.01375628
v -0.03121553 0.19990034 -0.01404501
v 0.04314393 0.17411619 0.00943182
v 0.04040541 0.17597935 0.00608105
v -0.02660615 0.19839092 -0.01404252
v -0.00018723 0.19989589 -0.01326302
v -0.00652607 0.19901679 -0.01502904
v -0.00697023 0.20816372 -0.01462898
v 0.02012941 0.19881174 -0.0066975
v -0.0355799 0.19334373 -0.01460925
v -0.01125286 0.20008525 -0.01396814
v 0.01514849 0.19686028 -0.00839585
v 0.03660452 0.17418762 0.00534817
v -0.02661423 0.19832341 -0.01326608
v -0.0346414 0.20082085 -0.01326661
v -0.03590362 0.19804806 -0.01355199
v -0.03121553 0.19990034 -0.01404501
v -0.03131346 0.2022251 -0.01361337
v 0.03736478 0.17688385 0.00630953
v 0.04006454 0.17815652 0.0068301
v -0.00018524 0.19614817 -0.01286913
v -0.00652392 0.19526564 -0.01457582
v -0.01125087 0.19633757 -0.01357424
v 0.03714208 0.1768302 0.00678584
v 0.03629099 0.17411205 0.00601873
v 0.04012821 0.175796 0.00677393
v 0.03984184 0.17810287 0.0073064
v 0.03629099 0.17411205 0.00601873
v -0.03590362 0.19804806 -0.01355199
v -0.0346414 0.20082085 -0.01326661
v -0.03558722 0.18957658 -0.01423173
v 0.01485016 0.19684157 -0.00771071
v -0.00696974 0.21034029 -0.0140621
v 0.0428304 0.1740406 0.01010239
v 0.01639906 0.19961876 -0.00752498
v 0.01993699 0.20100489 -0.00631864
v -0.01030079 0.20897569 -0.01273006
v -0.00696821 0.21030828 -0.0135094
v -0.02803744 0.20106439 -0.01361503
v -0.02804318 0.20101646 -0.01306353
v -0.00215049 0.20887448 -0.01278137
v 0.02288967 0.19964883 -0.00316848
v 0.02267777 0.19963554 -0.00268183
v 0.04204141 0.17683312 0.0090795
v 0.04181871 0.17677945 0.0095558
v 0.01618715 0.19960545 -0.00703833
v -0.01165989 0.20624258 -0.01275367
v -0.00711328 0.20797212 -0.0138435
v -0.02661423 0.19832341 -0.01326608
v 0.02267777 0.19963554 -0.00268183
v -0.0001854 0.20610003 -0.01282589
v 0.03714208 0.1768302 0.00678584
v -0.02804318 0.20101646 -0.01306353
v 0.02398805 0.19688389 -0.00157738
v 0.04181871 0.17677945 0.0095558
v 0.0428304 0.1740406 0.01010239
v -0.07631524 0.11356933 0.01436699
v -0.07509639 0.11019346 0.01426878
v -0.07698512 0.12436242 0.02661654
v -0.07270867 0.11001258 0.02652621
v -0.07655954 0.10882846 0.0221672
v -0.07509639 0.11019346 0.01426878
v -0.07719266 0.12374556 0.0154776
v -0.07907958 0.12554482 0.02209587
v -0.07655954 0.10882846 0.0221672
v -0.07907958 0.12554482 0.02209587
v -0.07962476 0.12545063 0.02219408
v -0.0775303 0.12426822 0.02671475
v -0.07724064 0.12582959 0.02660544
v -0.07698512 0.12436242 0.02661654
v -0.07907958 0.12554482 0.02209587
v -0.0793351 0.12701198 0.02208477
v -0.07698512 0.12436242 0.02661654
v 0.03296623 -0.03557869 0.00294987
v 0.03114822 -0.03649575 -0.00393314
v -0.07778583 0.12573539 0.02670364
v -0.07988028 0.12691778 0.02218297
v -0.07744818 0.12521273 0.01546649
v -0.07724064 0.12582959 0.02660544
v -0.07719266 0.12374556 0.0154776
v 0.02270031 -0.03856771 0.01963842
v 0.01715582 -0.03955743 0.02064659
v -0.02033212 -0.0406655 0.01351242
v -0.02922551 -0.03825043 0.00657283
v -0.02802319 -0.03892568 0.00587859
v -0.01998407 -0.04106114 0.01229461
v -0.00671862 -0.04178574 0.0154273
v -0.01426571 -0.04120541 0.01519753
v 0.01149383 -0.04067378 0.01936004
v 0.00116242 -0.04121014 0.01657116
v 0.03296623 -0.03557869 0.00294987
v 0.03114822 -0.03649575 -0.00393314
v -0.00352651 -0.03806969 -0.02073269
v 0.00803392 -0.03868514 -0.01738295
v -0.00352651 -0.03806969 -0.02073269
v 0.00803392 -0.03868514 -0.01738295
v 0.01643986 -0.03813965 -0.01331199
v 0.02626332 -0.03760451 -0.00820089
v 0.02984827 -0.03699556 0.0094863
v 0.02270031 -0.03856771 0.01963842
v -0.01538322 -0.03750259 -0.02084423
v -0.0258382 -0.03559355 -0.01697558
v 0.02984827 -0.03699556 0.0094863
v 0.02270031 -0.03856771 0.01963842
v -0.0258382 -0.03559355 -0.01697558
v -0.01538322 -0.03750259 -0.02084423
v -0.03019291 -0.03672562 -0.00650076
v -0.0258382 -0.03559355 -0.01697558
v -0.01998407 -0.04106114 0.01229461
v -0.01384526 -0.04157662 0.0140548
v -0.01538322 -0.03750259 -0.02084423
v -0.00352651 -0.03806969 -0.02073269
v -0.01538322 -0.03750259 -0.02084423
v -0.00352651 -0.03806969 -0.02073269
v 0.01643986 -0.03813965 -0.01331199
v 0.00803392 -0.03868514 -0.01738295
v 0.00803392 -0.03868514 -0.01738295
v 0.01643986 -0.03813965 -0.01331199
v 0.03114822 -0.03649575 -0.00393314
v 0.02626332 -0.03760451 -0.00820089
v 0.02626332 -0.03760451 -0.00820089
v 0.03114822 -0.03649575 -0.00393314
v 0.03296623 -0.03557869 0.00294987
v 0.02984827 -0.03699556 0.0094863
v 0.03296623 -0.03557869 0.00294987
v 0.02984827 -0.03699556 0.0094863
v -0.03019291 -0.03672562 -0.00650076
v -0.02922551 -0.03825043 0.00657283
v -0.02922551 -0.03825043 0.00657283
v -0.03019291 -0.03672562 -0.00650076
v -0.03125784 0.20088479 -0.00800092
v 0.01643986 -0.03813965 -0.01331199
v 0.02626332 -0.03760451 -0.00820089
v -0.0258382 -0.03559355 -0.01697558
v -0.03019291 -0.03672562 -0.00650076
vn -0.3347 0.05121 0.94092
vn -0.09958 0.11994 0.98776
vn 0.31938 0.39683 0.86053
vn -0.18351 0.23023 0.95566
vn -0.47606 0.21009 0.85394
vn 0.05823 0.2743 0.95987
vn -0.20606 0.23292 0.95041
vn -0.35688 0.2436 0.90179
vn 0.12473 0.14515 0.98151
vn 0.12406 0.16825 0.97787
vn -0.30357 0.17997 0.93564
vn -0.1442 0.14817 0.97836
vn -0.29789 0.17768 0.93789
vn -0.12232 0.21677 0.9685
vn 0.07086 0.06983 0.99503
vn 0.57634 0.232 0.78356
vn 0.07736 -0.99176 -0.1019
vn -0.98517 -0.10514 0.13538
vn 0.18696 -0.98181 -0.03269
vn -0.06848 -0.24281 0.96765
vn -0.42253 -0.19288 0.88559
vn -0.01932 -0.38075 0.92444
vn -0.37584 -0.16431 0.91198
vn -0.51155 0.1767 0.84088
vn -0.24223 0.02011 0.97
vn -0.23038 0.14914 0.96158
vn -0.11356 -0.04187 0.99265
vn -0.07041 0.10456 0.992
vn -0.28013 0.08374 0.95627
vn -0.14472 0.06827 0.98709
vn 0.12253 -0.02524 0.99213
vn -0.36464 -0.02603 0.93075
vn -0.22007 0.02341 0.97519
vn -0.06577 0.07212 0.99521
vn -0.18436 0.09482 0.97827
vn -0.64721 0.1113 0.75411
vn -0.7405 0.13169 0.65899
vn 0.10724 0.11386 0.98767
vn 0.69564 0.12259 0.70782
vn 0.24943 0.2635 0.93185
vn -0.98538 0.09366 -0.14222
vn 0.80953 0.56172 -0.17054
vn -0.61647 0.03153 -0.78671
vn 0.20289 0.95114 -0.23264
vn -0.96432 0.00479 -0.26466
vn -0.68505 -0.26704 0.67776
vn 0.93161 -0.00986 -0.36326
vn 0.82702 0.47468 -0.30113
vn -0.93573 0.0296 -0.35145
vn -0.91638 -0.39875 -0.03449
vn 0.99768 0.06494 0.02014
vn 0.90585 0.09452 -0.41282
vn 0.18216 0.85739 -0.48131
vn -0.90951 0.04297 -0.4134
vn 0.91778 0.08936 -0.38685
vn 0.44731 0.15189 -0.88137
vn -0.96744 0.1608 -0.19535
vn 0.98099 0.09857 -0.16712
vn -0.96396 0.11802 -0.23832
vn -0.0445 -0.99499 -0.0893
vn 0.99588 -0.01965 0.0882
vn -0.92645 0.02652 -0.37544
vn -0.16221 -0.98029 -0.11277
vn 0.99252 -0.01907 -0.12043
vn 0.07056 -0.99631 -0.04843
vn -0.56395 0.8153 0.13105
vn -0.70788 0.04807 -0.70467
vn 0.94827 -0.24714 0.19922
vn 0.99692 0.07746 0.00958
vn 0.98709 0.04297 -0.15409
vn -0.74734 0.03558 -0.66347
vn 0.91086 -0.00586 -0.41267
vn -0.69457 0.11744 -0.70977
vn 0.99936 -0.01123 0.03336
vn -0.92575 0.15345 -0.3455
vn -0.81228 -0.53887 -0.22303
vn -0.60854 0.06095 -0.79116
vn -0.94925 0.0109 -0.31431
vn 0.87619 -0.37663 0.3007
vn -0.77206 0.06842 -0.63186
vn 0.19666 0.71502 -0.67083
vn 0.99869 0.04917 0.01392
vn 0.99887 0.04395 0.01788
vn -0.63533 0.03992 -0.77117
vn 0.98132 0.00473 -0.19221
vn 0.84704 0.52971 0.04334
vn -0.98956 -0.14249 -0.02063
vn 0.99988 0.00024 -0.01544
vn -0.85513 0.45125 -0.25513
vn 0.69948 -0.06488 0.71169
vn 0.67302 0.32148 -0.66607
vn -0.91668 0.03082 -0.39836
vn -0.78176 -0.60189 -0.16297
vn -0.25315 0.02573 -0.96707
vn -0.70583 0.53804 -0.46074
vn 0.99985 -0.01685 -0.00052
vn 0.90121 0.41365 0.12922
vn -0.99622 0.0268 -0.08264
vn 0.33488 0.92541 0.17719
vn -0.72423 0.04694 -0.68792
vn 0.98239 0.18671 -0.0047
vn 0.26615 0.95837 0.10306
vn -0.64391 0.57826 -0.50093
vn 0.3159 0.94873 -0.01019
vn 0.97073 -0.20804 0.11975
vn 0.27351 0.25672 -0.92694
vn 0.32527 -0.11121 -0.93902
vn 0.72625 0.16871 -0.66637
vn 0.66317 -0.13324 -0.73647
vn -0.72881 0.20731 -0.65252
vn -0.1984 -0.10517 -0.97446
vn 0.23457 -0.11313 -0.96548
vn 0.48381 -0.13944 -0.86398
vn 0.1511 0.13541 -0.97919
vn 0.40196 0.11902 -0.90786
vn 0.66164 0.14258 -0.73611
vn 0.81585 0.57735 0.03116
vn -0.29456 -0.08484 0.95184
vn 0.75478 -0.11722 -0.64541
vn 0.39262 0.073 -0.91678
vn 0.64995 0.14463 -0.74606
vn 0.75762 0.23222 -0.60994
vn 0.08417 0.07739 -0.99341
vn 0.08325 -0.99579 -0.03787
vn 0.1908 -0.9816 0.00473
vn 0.05521 0.08924 -0.99448
vn -0.04025 -0.99576 -0.08249
vn 0.48488 -0.25056 -0.83789
vn -0.08579 -0.03226 -0.99579
vn -0.20179 0.04212 -0.97851
vn 0.73785 0.06149 -0.67214
vn 0.39796 -0.2075 -0.89361
vn 0.4825 0.04621 -0.87466
vn 0.27754 0.05774 -0.95895
vn 0.62069 -0.0376 -0.78314
vn -0.62999 0.2772 -0.72542
vn 0.30033 0.10715 -0.94778
vn 0.37974 0.00916 -0.92502
vn 0.65334 -0.01263 -0.75695
vn 0.76006 0.01331 -0.64968
vn 0.07355 0.10532 -0.9917
vn 0.65691 0.10587 -0.74645
vn -0.1442 -0.0007 -0.98953
vn 0.0968 -0.00443 -0.99527
vn -0.09748 -0.00925 -0.99518
vn 0.29936 -0.02905 -0.95367
vn 0.19239 -0.02545 -0.98099
vn -0.98831 -0.10556 -0.10993
vn -0.05502 -0.02771 0.99808
vn -0.45024 0.23893 -0.86032
vn -0.02863 0.07309 -0.99689
vn -0.57659 -0.14643 -0.80377
vn -0.0239 0.04675 -0.9986
vn -0.11161 0.01352 -0.99365
vn 0.07498 -0.00913 -0.99713
vn -0.12778 0.09156 -0.98755
vn -0.0397 0.09452 -0.99472
vn -0.21223 0.27113 -0.93884
vn -0.09024 0.17753 -0.97995
vn -0.37443 0.92715 -0.01245
vn 0.02469 0.35972 0.93271
vn -0.10819 0.09885 0.9892
vn 0.12787 0.08026 0.98853
vn -0.13361 0.1551 0.97882
vn -0.13367 0.04672 0.9899
vn -0.3462 -0.00018 0.93814
vn -0.14603 0.25538 0.95572
vn 0.31733 3E-05 -0.9483
vn -0.13111 -0.0015 -0.99136
vn -0.11029 0.10434 -0.98837
vn -0.05011 0.06455 -0.99664
vn 0.30073 -0.16193 -0.93985
vn 0.42329 0.15107 -0.89328
vn -0.10428 0.10501 -0.98898
vn 0.15851 -0.10822 -0.98138
vn -0.14649 0.15464 -0.97702
vn -0.16318 -0.07315 -0.98386
vn -0.3994 0.91525 -0.05234
vn 0.31825 0.13388 -0.93847
vn -0.09964 0.07953 0.99182
vn -0.15204 0.11887 0.98117
vn -0.13794 -0.06424 0.98834
vn 0.20493 0.0907 0.97455
vn -0.17597 -0.16889 0.96979
vn 0.09507 -0.9917 -0.08621
vn -0.07041 0.0904 0.99341
vn -0.13532 0.1323 0.9819
vn 0.01001 0.24528 0.96939
vn 0.63869 -0.03421 -0.76867
vn -0.04413 0.25773 0.96518
vn 0.34156 0.11167 -0.93316
vn 0.28013 -0.00555 -0.95993
vn 0.50874 0.06326 -0.85855
vn 0.4395 -0.24006 -0.86554
vn -0.97256 -0.13587 -0.18867
vn 0.39558 0.15647 -0.90497
vn 0.84234 0.01437 0.53871
vn 0.37123 0.14521 -0.91708
vn 0.3882 -0.15278 -0.90881
vn -0.25217 0.96091 -0.11405
vn 0.53258 0.1438 -0.83404
vn -0.31547 0.08191 0.94537
vn -0.66558 -0.04791 0.74474
vn -0.59786 0.11472 0.79333
vn -0.50188 0.06534 0.86242
vn -0.44957 -0.19315 0.8721
vn -0.35716 -0.03623 0.93332
vn -0.48323 0.15146 0.86227
vn -0.61916 0.14451 0.77181
vn -0.39659 0.23222 0.88812
vn -0.44731 0.20432 0.87069
vn 0.72411 -0.03171 -0.68892
vn 0.26948 0.06198 -0.961
vn 0.18497 0.02582 -0.98239
vn 0.54827 -0.00751 -0.83624
vn 0.70934 -0.31773 -0.62914
vn 0.87878 0.00491 0.47716
vn 0.4243 0.24683 -0.87121
vn 0.51961 -0.0882 -0.84982
vn 0.38423 0.14518 -0.91171
vn 0.24628 -0.10376 -0.96362
vn -0.28047 0.9429 -0.17951
vn 0.84585 0.09662 -0.52455
vn -0.1803 0.09073 0.9794
vn -0.78704 0.02042 0.61653
vn -0.73537 0.08872 0.67177
vn -0.46236 0.23563 0.85479
vn 0.18561 -0.44383 0.87664
vn 0.80825 0.00174 0.58879
vn -0.53883 0.26383 0.80001
vn -0.52828 0.20185 0.8247
vn -0.41783 0.16965 0.89251
vn -0.77474 0.05255 0.63005
vn 0.1731 -0.02695 0.98453
vn -0.53276 0.81704 0.2204
vn -0.45375 0.86303 0.2219
vn 0.06375 0.84826 0.52571
vn -0.15995 0.05075 0.98581
vn -0.32594 0.85797 0.39702
vn -0.3578 0.82122 0.44444
vn 0.69237 -0.15906 0.70376
vn 0.62578 0.04337 0.77874
vn 0.2888 0.84478 0.45042
vn -0.80804 0.56276 -0.1742
vn 0.57195 0.18131 0.79998
vn -0.99289 0.10584 0.05432
vn 0.07904 0.73806 0.67003
vn -0.9686 0.1135 0.22111
vn 0.6672 0.43397 0.60537
vn 0.68252 0.02921 0.73025
vn -0.87332 0.47926 -0.08719
vn -0.13132 0.05347 0.98987
vn -0.74758 -0.62258 0.23118
vn -0.9024 0.07379 0.42451
vn 0.01459 0.25892 -0.96576
vn -0.64995 -0.22059 0.72723
vn -0.85723 0.44438 0.26008
vn 0.58202 0.0239 0.8128
vn -0.49742 -0.23408 0.83532
vn 0.71746 0.51476 0.46928
vn 0.73879 0.03726 0.67287
vn -0.99765 0.06772 -0.00946
vn 0.64531 0.04105 0.76278
vn 0.61928 0.0307 0.78454
vn -0.99503 0.0586 -0.08036
vn -0.99551 0.09082 0.02564
vn 0.73244 -0.46919 0.4933
vn -0.91629 0.02731 0.39955
vn -0.99939 0.03458 0.00269
vn -0.67736 -0.67861 0.28401
vn -0.93283 0.10031 0.34599
vn 0.16523 -0.98547 -0.03873
vn 0.68731 0.02463 0.72594
vn -0.99316 -0.01459 -0.11579
vn 0.93567 0.03943 0.35066
vn 0.74905 0.02908 0.66182
vn 0.76092 -0.13965 0.63359
vn 0.65856 0.02121 0.75219
vn 0.92788 0.02475 0.37199
vn -0.9982 -0.03305 0.04975
vn -0.72164 0.64299 0.25642
vn -0.2205 0.02286 0.9751
vn 0.75683 0.03061 0.65288
vn 0.98117 0.14383 0.12879
vn -0.06687 -0.98743 -0.14313
vn -0.9169 0.08823 0.3892
vn 0.63967 0.01868 0.7684
vn -0.36818 -0.04559 0.92862
vn -0.93567 0.11081 0.33497
vn 0.72997 0.02899 0.68282
vn -0.94293 0.19913 0.26679
vn -0.94293 0.1991 0.26679
vn 0.20698 -0.97824 -0.0126
vn -0.90069 -0.05158 0.43135
vn 0.31895 0.83258 0.4528
vn 0.56127 0.82672 0.03812
vn 0.93023 0.03674 0.36503
vn 0.6187 0.00281 0.78558
vn -0.65215 -0.39698 0.6458
vn -0.91778 -0.02197 0.39637
vn 0.83428 0.44145 0.33024
vn 0.94452 0.03406 0.32661
vn -0.1709 -0.0372 -0.98456
vn -0.92999 0.02182 0.36692
vn 0.33845 0.89746 0.28275
vn -0.99084 0.13465 0.00974
vn 0.81359 0.56075 0.1536
vn -0.96945 0.08466 0.23008
vn 0.72134 0.24485 0.64785
vn 0.40477 0.19669 0.893
vn -0.70086 0.04913 -0.71157
vn -0.87906 0.45051 0.15567
vn -0.11185 0.44139 0.89029
vn -0.56435 0.09375 -0.82018
vn 0.10028 0.32389 0.94073
vn -0.79226 0.61 0.01306
vn -0.66445 -0.11182 -0.73891
vn -0.75134 -0.53505 0.38621
vn -0.84396 -0.52031 -0.13022
vn -0.04047 -0.05582 0.99759
vn 0.06223 -0.12381 0.99033
vn 0.01773 0.96942 0.24473
vn -0.44765 -0.08151 -0.89047
vn -0.73296 0.03113 -0.67949
vn 0.258 -0.14997 0.95441
vn -0.51503 0.03751 -0.85632
vn -0.73711 0.02844 -0.67516
vn -0.133 0.95645 -0.25968
vn 0.31605 -0.10257 0.94317
vn 0.06482 0.00034 0.99789
vn -0.17035 0.37611 0.91076
vn -0.0903 0.03406 0.9953
vn -0.11484 -0.0618 -0.99145
vn 0.20917 -0.10483 -0.97223
vn 0.56685 -0.0987 -0.81787
vn 0.61211 -0.08466 -0.78619
vn 0.41667 -0.10291 -0.9032
vn 0.53563 -0.0976 -0.83877
vn 0.93857 -0.26637 0.21924
vn 0.7806 -0.19791 0.59279
vn -0.47884 0.35533 0.80276
vn -0.39811 0.40028 0.82537
vn -0.49388 0.35957 0.79168
vn -0.04312 -0.11145 0.99283
vn -0.13645 0.31373 0.93963
vn 0.50154 0.42946 0.75097
vn 0.23231 -0.12552 0.96448
vn 0.11292 0.63259 0.76617
vn 0.16865 0.21009 0.96301
vn 0.40068 0.24558 0.88266
vn 0.63179 -0.08884 0.77001
vn 0.34303 0.3488 0.87213
vn -0.95901 0.01267 0.28303
vn 0.62352 0.0744 0.77822
vn -0.46071 0.00552 0.88751
vn 0.40355 0.05512 -0.91327
vn -0.46596 -0.07035 0.88198
vn 0.37831 -0.0491 -0.92434
vn -0.01999 -0.07395 0.99704
vn -0.14725 0.02814 -0.98868
vn -0.16065 -0.09659 0.98227
vn -0.15122 -0.07468 -0.98566
vn 0.56941 -0.01572 -0.82189
vn 0.35768 0.02866 -0.93338
vn 0.11051 -0.02524 -0.99353
vn 0.70769 -0.05622 -0.70425
vn 0.99591 0.04892 0.07593
vn -0.99353 0.05063 -0.1015
vn -0.99353 0.05063 -0.10154
vn -0.43745 -0.05933 0.89727
vn -0.28184 -0.07514 0.95651
vn -0.29737 0.0513 0.95337
vn -0.06619 -0.05371 -0.99634
vn -0.16941 -0.14731 -0.97446
vn -0.92853 0.0455 -0.36839
vn 0.58592 0.17884 0.79037
vn -0.16776 -0.13501 -0.9765
vn -0.16776 -0.13501 -0.97653
vn -0.99927 -0.03537 -0.01382
vn -0.77444 -0.09796 0.62499
vn 0.25773 0.11994 -0.95874
vn 0.74535 0.09616 -0.65966
vn -0.6165 0.08075 -0.78317
vn 0.94525 0.15922 0.28483
vn -0.2396 -0.07697 0.9678
vn -0.99893 0.00516 0.04581
vn 0.66933 0.19181 0.71773
vn -0.61715 -0.00916 0.78677
vn 0.26508 0.05875 -0.96243
vn 0.68007 0.05594 -0.73095
vn 0.97885 0.11765 0.1673
vn -0.70443 0.02802 -0.70919
vn -0.36506 0.00104 0.93097
vn 0.79623 0.15577 0.58458
vn -0.90262 -0.01639 0.43007
vn -0.07895 -0.05142 0.99554
vn -0.14414 0.06854 -0.98715
vn 0.24219 0.04834 -0.96899
vn -0.90704 0.0361 -0.41948
vn 0.9776 0.17121 -0.1222
vn -0.04306 -0.02063 0.99884
vn -0.92199 -0.00137 0.38713
vn 0.93487 0.14164 0.32539
vn -0.05362 -0.05896 0.9968
vn -0.12476 0.09299 -0.98779
vn 0.11155 0.10727 -0.98795
vn 0.95849 0.16108 -0.23518
vn 0.09436 -0.06845 0.99316
vn 0.11872 0.02017 -0.99271
vn 0.79476 0.09049 -0.60009
vn -0.02945 0.13123 -0.99091
vn -0.89514 0.44487 0.0282
vn -0.13468 0.09192 -0.9866
vn -0.12308 0.02795 -0.99197
vn 0.65712 0.01874 -0.75353
vn 0.24519 0.11112 -0.96307
vn 0.19831 -0.09507 -0.97549
vn 0.74969 0.0958 -0.65481
vn 0.16794 -0.39286 -0.90411
vn 0.70626 0.14832 -0.69219
vn -0.1431 0.19324 -0.97064
vn 0.1933 0.26188 -0.94552
vn -0.23423 0.07709 -0.96908
vn -0.13984 -0.02127 -0.98993
vn 0.14585 -0.00812 -0.98926
vn 0.80523 0.17096 -0.56771
vn 0.04471 0.27183 -0.96127
vn 0.71831 0.06342 -0.6928
vn 0.09067 0.45546 -0.88562
vn 0.19047 0.15192 -0.96985
vn -0.26908 0.09854 -0.95804
vn 0.25422 0.27387 -0.92755
vn -0.2233 0.29258 -0.92978
vn 0.77035 0.06238 -0.63454
vn 0.15763 0.07248 -0.9848
vn 0.20884 0.00977 -0.97787
vn 0.73 -0.00543 -0.6834
vn -0.12281 0.04904 -0.99121
vn -0.22645 0.04044 -0.97317
vn 0.33778 -0.01703 -0.94107
vn 0.23502 0.07736 -0.96887
vn 0.99979 -0.00919 -0.01718
vn 0.17295 -0.17582 0.96908
vn 0.72933 -0.11838 -0.67379
vn 0.02692 0.32896 -0.94394
vn 0.99997 -3E-05 -0.00363
vn -0.23542 -0.1092 -0.96573
vn -0.07965 -0.24116 0.96719
vn -0.86306 0.00812 -0.50502
vn 0.27653 -0.1077 -0.95492
vn -0.91082 0.41191 0.02631
vn -0.99103 -0.04041 -0.12726
vn -0.98984 -0.03726 -0.13712
vn -0.81985 -0.0268 -0.57192
vn -0.31089 0.2396 -0.91974
vn -0.14637 -0.10779 -0.98331
vn 0.85461 -0.00314 0.51924
vn -0.32743 0.93759 -0.11695
vn -0.38087 0.92148 0.07611
vn -0.41047 0.90744 -0.08969
vn -0.3596 0.93146 0.0549
vn 0.33277 0.93915 0.08509
vn 0.2772 0.95923 0.05475
vn 0.2787 0.949 0.14728
vn 0.32221 0.91208 0.25343
vn 0.25095 0.1861 -0.94992
vn -0.81133 0.47526 -0.34028
vn 0.2833 -0.15088 0.94708
vn -0.22846 -0.19019 0.95477
vn 0.78115 0.51411 0.3542
vn 0.26106 0.28712 -0.9216
vn -0.18332 -0.13739 0.97339
vn 0.21601 0.24604 -0.94485
vn -0.85696 0.36964 -0.35905
vn 0.88379 0.46519 0.04962
vn -0.74398 -0.08573 0.66265
vn 0.75481 0.17539 -0.63201
vn 0.81774 0.38707 0.42598
vn -0.80261 -0.2049 0.56017
vn 0.10779 0.11704 -0.98724
vn 0.80688 0.28013 -0.52
vn -0.85824 -0.2414 0.45286
vn -0.7535 -0.04395 0.65593
vn -0.94034 -0.10077 -0.32496
vn 0.50642 0.86221 -0.01025
vn -0.97751 -0.08795 -0.19156
vn 0.56636 0.82141 -0.06687
vn -0.96756 -0.12485 -0.21955
vn -0.81658 -0.18485 0.54677
vn -0.91824 -0.32493 -0.22623
vn 0.91116 0.1558 -0.38139
vn 0.2273 0.06403 0.97171
vn 0.67473 -0.73229 -0.09204
vn -0.10996 0.9479 0.29887
vn -0.21616 0.92477 -0.31303
vn 0.1709 0.0372 0.98456
vn -0.95901 -0.16874 -0.22755
vn 0.95901 0.16874 0.22755
vn -0.91116 -0.1558 0.38139
vn 0.23182 -0.9042 0.35862
vn 0.22648 -0.38224 0.89584
vn -0.39051 -0.90115 0.18806
vn -0.62255 -0.41292 0.66472
vn -0.08106 -0.95798 0.27503
vn -0.05948 -0.35539 0.9328
vn -0.02744 -0.95819 0.28477
vn -0.22037 -0.40135 0.889
vn 0.94662 -0.22889 -0.22687
vn 0.25611 -0.26777 -0.9288
vn 0.0817 -0.88961 -0.44926
vn 0.0817 -0.88965 -0.44926
vn 0.45759 -0.24851 -0.85369
vn 0.79034 -0.35194 0.50145
vn -0.31867 -0.82159 -0.47264
vn 0.45549 -0.87048 0.18641
vn -0.37834 -0.33387 -0.86334
vn -0.47621 -0.83398 -0.27866
vn -0.12546 0.15922 0.97922
vn -0.15552 -0.95325 0.25901
vn -0.27534 -0.36189 0.89062
vn -0.00412 -0.30421 -0.95257
vn -0.03873 -0.8883 -0.45759
vn 0.02506 -0.9516 0.30628
vn -0.10605 -0.38188 0.91809
vn 0.43519 -0.24906 -0.86517
vn 0.24555 -0.88824 -0.38813
vn 0.11197 -0.93478 0.33705
vn -0.12641 -0.43028 0.89377
vn 0.66109 -0.26832 -0.70067
vn 0.42885 -0.86584 -0.25767
vn 0.8815 -0.326 0.34153
vn 0.58434 -0.7994 0.13959
vn -0.90585 -0.42308 0.01956
vn -0.49611 -0.86566 -0.06687
vn -0.141 -0.98212 -0.12452
vn 0.34309 0.93924 -0.00735
vn 0.99954 -0.01608 0.02475
vn 0.83367 0.55184 0.01993
vn -0.12848 -0.07288 -0.98901
vn 0.2501 -0.88687 -0.38841
vn -0.82189 -0.41969 -0.38511
vn -0.02951 -0.99274 -0.1164
vn -0.66701 0.0838 -0.74029
vt 0.87986 0.59798
vt 0.87179 0.61929
vt 0.85777 0.5921
vt 0.87347 0.58101
vt 0.80853 0.46172
vt 0.80116 0.41947
vt 0.81429 0.42463
vt 0.82698 0.46325
vt 0.56322 0.51669
vt 0.59545 0.49257
vt 0.59158 0.55589
vt 0.57299 0.55571
vt 0.73885 0.47242
vt 0.71073 0.47654
vt 0.71303 0.40487
vt 0.73976 0.40711
vt 0.76799 0.46751
vt 0.76741 0.41098
vt 0.78815 0.41429
vt 0.79112 0.46253
vt 0.66753 0.71308
vt 0.624 0.69121
vt 0.63521 0.65894
vt 0.67453 0.6605
vt 0.76344 0.71317
vt 0.71485 0.71188
vt 0.71546 0.6557
vt 0.75437 0.64828
vt 0.84749 0.65654
vt 0.80744 0.68238
vt 0.79572 0.62925
vt 0.83257 0.61391
vt 0.50665 0.86663
vt 0.49368 0.86206
vt 0.50691 0.84594
vt 0.51981 0.85421
vt 0.71803 0.97652
vt 0.70106 0.97885
vt 0.70282 0.95242
vt 0.72049 0.95061
vt 0.90864 0.89996
vt 0.89655 0.90856
vt 0.88856 0.88511
vt 0.90286 0.8753
vt 0.74304 0.73025
vt 0.71319 0.72868
vt 0.84054 0.67716
vt 0.81183 0.69782
vt 0.88772 0.60676
vt 0.87943 0.62954
vt 0.64125 0.7177
vt 0.61771 0.70342
vt 0.45778 0.5873
vt 0.45072 0.58117
vt 0.48055 0.56777
vt 0.48961 0.57763
vt 0.77574 0.23084
vt 0.80255 0.23662
vt 0.78973 0.25898
vt 0.76523 0.2544
vt 0.65663 0.24652
vt 0.68652 0.25388
vt 0.65753 0.37318
vt 0.62714 0.35884
vt 0.81935 0.23861
vt 0.8035 0.2618
vt 0.78973 0.25898
vt 0.68788 0.36885
vt 0.71648 0.36927
vt 0.68688 0.40257
vt 0.77607 0.37896
vt 0.78996 0.38353
vt 0.64579 0.40326
vt 0.76059 0.37611
vt 0.7425 0.37238
vt 0.81881 0.55641
vt 0.78456 0.5696
vt 0.77013 0.51909
vt 0.79884 0.50489
vt 0.74813 0.5767
vt 0.717 0.59019
vt 0.71666 0.54076
vt 0.74273 0.53301
vt 0.84103 0.54001
vt 0.82043 0.49694
vt 0.83978 0.49049
vt 0.85834 0.53571
vt 0.72298 0.91885
vt 0.70414 0.91842
vt 0.70871 0.85137
vt 0.73062 0.85167
vt 0.73221 0.82747
vt 0.70929 0.82666
vt 0.86382 0.76463
vt 0.84394 0.77937
vt 0.93027 0.66949
vt 0.91914 0.68651
vt 0.53833 0.83667
vt 0.52425 0.82488
vt 0.55891 0.78285
vt 0.57499 0.79627
vt 0.89301 0.8453
vt 0.87603 0.85583
vt 0.85417 0.80208
vt 0.87254 0.78747
vt 0.96656 0.73321
vt 0.95585 0.7445
vt 0.93171 0.70754
vt 0.94235 0.69194
vt 0.57286 0.76539
vt 0.54294 0.77025
vt 0.55676 0.75246
vt 0.68613 0.82733
vt 0.68555 0.85205
vt 0.82537 0.79615
vt 0.83554 0.81849
vt 0.90898 0.70401
vt 0.92089 0.72462
vt 0.58897 0.77882
vt 0.54185 0.557
vt 0.53117 0.53988
vt 0.68068 0.61249
vt 0.64635 0.62444
vt 0.64067 0.59364
vt 0.68228 0.55895
vt 0.18595 0.29532
vt 0.18954 0.31715
vt 0.16564 0.31683
vt 0.1654 0.29783
vt 0.23225 0.26076
vt 0.2453 0.2373
vt 0.25186 0.24004
vt 0.25771 0.2691
vt 0.5248 0.32866
vt 0.51943 0.31865
vt 0.53721 0.30781
vt 0.542 0.31638
vt 0.03297 0.31301
vt 0.0226 0.29731
vt 0.03821 0.29577
vt 0.04055 0.30912
vt 0.18312 0.28207
vt 0.16269 0.28755
vt 0.13591 0.22591
vt 0.15063 0.21844
vt 0.21585 0.78505
vt 0.1387 0.77759
vt 0.14037 0.72845
vt 0.22406 0.73726
vt 0.18587 0.19608
vt 0.19911 0.18613
vt 0.07197 0.31116
vt 0.06354 0.32538
vt 0.11343 0.15396
vt 0.14083 0.19958
vt 0.12698 0.20662
vt 0.1006 0.16033
vt 0.11175 0.46623
vt 0.09199 0.49179
vt 0.06744 0.44909
vt 0.08682 0.43278
vt 0.60404 0.30696
vt 0.6096 0.31491
vt 0.59035 0.33011
vt 0.58332 0.32236
vt 0.14461 0.13487
vt 0.15555 0.12605
vt 0.18603 0.16938
vt 0.17393 0.17867
vt 0.11505 0.38879
vt 0.11758 0.36953
vt 0.1325 0.36869
vt 0.13884 0.39648
vt 0.32317 0.08419
vt 0.31195 0.14544
vt 0.29815 0.14096
vt 0.30953 0.08024
vt 0.12908 0.11089
vt 0.14002 0.10367
vt 0.28057 0.72959
vt 0.30351 0.60564
vt 0.33004 0.61054
vt 0.3084 0.73504
vt 0.36856 0.09333
vt 0.38337 0.09442
vt 0.37635 0.157
vt 0.36058 0.15655
vt 0.09855 0.13004
vt 0.08772 0.13712
vt 0.07705 0.11486
vt 0.08797 0.11182
vt 0.7419 0.16664
vt 0.77372 0.17229
vt 0.75471 0.22395
vt 0.73527 0.22421
vt 0.46584 0.44244
vt 0.48437 0.45434
vt 0.46338 0.49148
vt 0.44194 0.47915
vt 0.27608 0.25473
vt 0.25746 0.23549
vt 0.29087 0.16194
vt 0.30575 0.16695
vt 0.68587 0.18513
vt 0.71037 0.17117
vt 0.71587 0.21714
vt 0.6803 0.21406
vt 0.35514 0.27182
vt 0.35834 0.17834
vt 0.37516 0.17869
vt 0.3797 0.25788
vt 0.79705 0.18149
vt 0.82407 0.19444
vt 0.14684 0.36652
vt 0.16037 0.38647
vt 0.48645 0.16309
vt 0.46139 0.20626
vt 0.45158 0.19873
vt 0.4772 0.15631
vt 0.40482 0.5391
vt 0.41806 0.51654
vt 0.44145 0.53002
vt 0.4324 0.55585
vt 0.5184 0.18839
vt 0.53064 0.19424
vt 0.50444 0.24371
vt 0.49092 0.23805
vt 0.3722 0.06027
vt 0.38537 0.06314
vt 0.39767 0.28398
vt 0.38977 0.26197
vt 0.43743 0.21502
vt 0.44799 0.22344
vt 0.60347 0.27067
vt 0.58913 0.2815
vt 0.58409 0.27446
vt 0.60065 0.26283
vt 0.4504 0.33883
vt 0.48119 0.25821
vt 0.49595 0.26372
vt 0.4742 0.33671
vt 0.32974 0.05168
vt 0.31633 0.04958
vt 0.32557 0.02126
vt 0.33636 0.02597
vt 0.15665 0.52719
vt 0.12739 0.5482
vt 0.11342 0.52454
vt 0.13377 0.49621
vt 0.57147 0.2949
vt 0.56718 0.28695
vt 0.37395 0.61433
vt 0.38622 0.57644
vt 0.41622 0.59432
vt 0.39835 0.62669
vt 0.50028 0.13678
vt 0.49199 0.1326
vt 0.50793 0.11116
vt 0.51288 0.11576
vt 0.09217 0.37359
vt 0.10282 0.35766
vt 0.55768 0.36079
vt 0.54992 0.35159
vt 0.5356 0.15999
vt 0.54446 0.16618
vt 0.48089 0.36283
vt 0.48209 0.34514
vt 0.38353 0.26379
vt 0.37252 0.29182
vt 0.04586 0.40353
vt 0.06673 0.39402
vt 0.53383 0.36946
vt 0.54264 0.37963
vt 0.50015 0.43038
vt 0.48747 0.41845
vt 0.17268 0.56781
vt 0.13745 0.57478
vt 0.17094 0.69544
vt 0.21493 0.58066
vt 0.19844 0.70772
vt 0.47592 0.34364
vt 0.45479 0.3598
vt 0.18955 0.3372
vt 0.18678 0.36678
vt 0.16102 0.35947
vt 0.16457 0.33519
vt 0.62092 0.29483
vt 0.62179 0.28144
vt 0.63375 0.28832
vt 0.62765 0.29951
vt 0.49369 0.43859
vt 0.47652 0.42579
vt 0.54926 0.13555
vt 0.54355 0.11788
vt 0.55853 0.1196
vt 0.55587 0.13779
vt 0.37396 0.03505
vt 0.36131 0.01828
vt 0.37639 0.01146
vt 0.38535 0.03382
vt 0.05031 0.33627
vt 0.84262 0.05602
vt 0.84322 0.02979
vt 0.88197 0.04227
vt 0.87698 0.06768
vt 0.44982 0.42978
vt 0.47257 0.40251
vt 0.36515 0.57632
vt 0.3855 0.53555
vt 0.12661 0.43282
vt 0.09755 0.415
vt 0.19649 0.54157
vt 0.20031 0.47643
vt 0.22386 0.485
vt 0.29953 0.51022
vt 0.28407 0.56504
vt 0.24713 0.55482
vt 0.26205 0.49721
vt 0.33907 0.57577
vt 0.31532 0.57186
vt 0.3348 0.52263
vt 0.35517 0.52989
vt 0.25687 0.3222
vt 0.21622 0.3192
vt 0.21012 0.28591
vt 0.35476 0.34184
vt 0.30548 0.32511
vt 0.31793 0.28287
vt 0.42887 0.40375
vt 0.39494 0.37227
vt 0.41549 0.3279
vt 0.70303 0.12481
vt 0.68993 0.10378
vt 0.69532 0.10229
vt 0.70678 0.12258
vt 0.86536 0.12468
vt 0.88048 0.13968
vt 0.84269 0.13855
vt 0.8424 0.12451
vt 0.94032 0.06317
vt 0.90972 0.06751
vt 0.9043 0.03945
vt 0.94075 0.03456
vt 0.32137 0.26679
vt 0.42207 0.31328
vt 0.48277 0.39299
vt 0.20528 0.2729
vt 0.79705 0.18149
vt 0.83724 0.20631
vt 0.24407 0.58998
vt 0.22727 0.71654
vt 0.3489 0.61221
vt 0.5452 0.33364
vt 0.57649 0.30846
vt 0.27636 0.59957
vt 0.37104 0.50062
vt 0.34712 0.4852
vt 0.38424 0.41405
vt 0.4176 0.42018
vt 0.34239 0.37041
vt 0.31672 0.46603
vt 0.28434 0.44455
vt 0.29785 0.37112
vt 0.39565 0.50846
vt 0.42803 0.45591
vt 0.16264 0.4084
vt 0.33475 0.15136
vt 0.34344 0.08869
vt 0.33093 0.17364
vt 0.4629 0.241
vt 0.52823 0.34831
vt 0.15762 0.18922
vt 0.12915 0.14449
vt 0.47522 0.22236
vt 0.50189 0.17578
vt 0.16858 0.20748
vt 0.03689 0.34349
vt 0.01786 0.35096
vt 0.50962 0.81369
vt 0.08048 0.38532
vt 0.25232 0.35175
vt 0.24536 0.41886
vt 0.21467 0.39242
vt 0.21699 0.35946
vt 0.14875 0.44916
vt 0.16972 0.4675
vt 0.64944 0.1271
vt 0.62223 0.12782
vt 0.62211 0.11374
vt 0.65925 0.10311
vt 0.07646 0.09427
vt 0.09266 0.09523
vt 0.60965 0.63849
vt 0.6064 0.60574
vt 0.59729 0.69259
vt 0.48619 0.85008
vt 0.49606 0.83488
vt 0.5992 0.68002
vt 0.78719 0.26688
vt 0.76332 0.26269
vt 0.60691 0.6599
vt 0.25681 0.72541
vt 0.28057 0.72959
vt 0.62332 0.05237
vt 0.58593 0.06306
vt 0.57965 0.02972
vt 0.62414 0.0171
vt 0.33955 0.00698
vt 0.35044 0.01857
vt 0.22727 0.71654
vt 0.68228 0.73075
vt 0.68446 0.91875
vt 0.76523 0.2544
vt 0.74646 0.25255
vt 0.68692 0.97398
vt 0.68554 0.95007
vt 0.14134 0.69532
vt 0.80357 0.06013
vt 0.80676 0.10381
vt 0.8019 0.10491
vt 0.79933 0.03446
vt 0.52489 0.09905
vt 0.53028 0.11324
vt 0.32557 0.73571
vt 0.85908 0.86707
vt 0.78588 0.72426
vt 0.8003 0.27016
vt 0.78719 0.26688
vt 0.8817 0.91177
vt 0.87243 0.89218
vt 0.34562 0.73576
vt 0.3632 0.74312
vt 0.97226 0.04887
vt 0.96561 0.07589
vt 0.61614 0.262
vt 0.61567 0.27566
vt 0.32557 0.73571
vt 0.94444 0.7565
vt 0.87208 0.65896
vt 0.80882 0.3879
vt 0.84469 0.274
vt 0.83176 0.38678
vt 0.8153 0.27043
vt 0.96658 0.78483
vt 0.95824 0.77233
vt 0.96915 0.76474
vt 0.9772 0.78014
vt 0.8153 0.27043
vt 0.9676 0.79009
vt 0.98361 0.78616
vt 0.90126 0.91757
vt 0.88 0.92012
vt 0.91617 0.90476
vt 0.74517 0.26088
vt 0.72818 0.26131
vt 0.6826 0.97983
vt 0.70046 0.988
vt 0.47861 0.8529
vt 0.48844 0.86838
vt 0.86266 0.48859
vt 0.87701 0.53106
vt 0.94176 0.66343
vt 0.95321 0.68599
vt 0.7221 0.98145
vt 0.86318 0.67634
vt 0.8695 0.67635
vt 0.8973 0.58867
vt 0.90182 0.59804
vt 0.81099 0.80421
vt 0.82118 0.82519
vt 0.98569 0.77203
vt 0.99039 0.77452
vt 0.58002 0.61608
vt 0.58503 0.63894
vt 0.86109 0.6829
vt 0.87975 0.76039
vt 0.88718 0.78241
vt 0.76768 0.74294
vt 0.77425 0.74541
vt 0.71406 0.26016
vt 0.72818 0.26131
vt 0.61211 0.38119
vt 0.66786 0.82819
vt 0.66795 0.85147
vt 0.50877 0.5111
vt 0.52014 0.52434
vt 0.46999 0.55731
vt 0.46019 0.54545
vt 0.65612 0.74056
vt 0.66085 0.74595
vt 0.54471 0.47359
vt 0.55964 0.48339
vt 0.76254 0.74786
vt 0.75062 0.83029
vt 0.74834 0.85328
vt 0.89903 0.71227
vt 0.91432 0.87274
vt 0.90427 0.84086
vt 0.97523 0.72765
vt 0.86143 0.89916
vt 0.84175 0.4229
vt 0.54243 0.74295
vt 0.52969 0.76032
vt 0.93519 0.76278
vt 0.91087 0.7318
vt 0.62801 0.41896
vt 0.59673 0.40366
vt 0.67126 0.95165
vt 0.83188 0.23892
vt 0.81358 0.2613
vt 0.8035 0.2618
vt 0.95013 0.77895
vt 0.60168 0.79128
vt 0.5878 0.80765
vt 0.73399 0.95317
vt 0.73755 0.91983
vt 0.85287 0.46327
vt 0.52854 0.86431
vt 0.54923 0.84583
vt 0.84669 0.87269
vt 0.57642 0.5883
vt 0.59739 0.58151
vt 0.57992 0.60114
vt 0.76332 0.26269
vt 0.49372 0.58992
vt 0.54682 0.57446
vt 0.72942 0.25326
vt 0.88952 0.57235
vt 0.68652 0.25388
vt 0.71406 0.26016
vt 0.48403 0.82836
vt 0.57672 0.68576
vt 0.57879 0.67525
vt 0.84111 0.2211
vt 0.83188 0.23892
vt 0.83724 0.20631
vt 0.66951 0.91808
vt 0.50532 0.87434
vt 0.56251 0.58315
vt 0.98627 0.75025
vt 0.97761 0.75466
vt 0.5765 0.4356
vt 0.59813 0.44838
vt 0.49824 0.80505
vt 0.45737 0.59977
vt 0.64938 0.74202
vt 0.04383 0.94836
vt 0.03619 0.94955
vt 0.03306 0.92903
vt 0.04079 0.92824
vt 0.44277 0.59355
vt 0.58334 0.65724
vt 0.67121 0.52249
vt 0.68166 0.47289
vt 0.65146 0.50532
vt 0.65817 0.46673
vt 0.63889 0.55416
vt 0.18187 0.41877
vt 0.6319 0.47336
vt 0.62891 0.52967
vt 0.43181 0.58247
vt 0.44495 0.57742
vt 0.02363 0.31483
vt 0.00922 0.30288
vt 0.59448 0.29514
vt 0.51653 0.14951
vt 0.34793 0.0575
vt 0.11507 0.12208
vt 0.1177 0.09363
vt 0.1239 0.08508
vt 0.36557 0.05642
vt 0.37162 0.03428
vt 0.60369 0.30146
vt 0.6181 0.29254
vt 0.60516 0.27476
vt 0.59373 0.28434
vt 0.76787 0.1278
vt 0.76376 0.12567
vt 0.77386 0.10511
vt 0.77963 0.10661
vt 0.33888 0.02628
vt 0.33665 0.0505
vt 0.5173 0.11912
vt 0.50778 0.13846
vt 0.531 0.15369
vt 0.54459 0.13361
vt 0.12198 0.11245
vt 0.11363 0.09567
vt 0.59599 0.29405
vt 0.51742 0.14796
vt 0.34842 0.0557
vt 0.0917 0.10874
vt 0.10322 0.12424
vt 0.11403 0.12053
vt 0.61945 0.28177
vt 0.61425 0.27759
vt 0.54105 0.11899
vt 0.53023 0.1161
vt 0.35984 0.02048
vt 0.35072 0.02128
vt 0.10233 0.09456
vt 0.10188 0.09192
vt 0.09511 0.09676
vt 0.90994 0.09667
vt 0.94089 0.10424
vt 0.58587 0.10276
vt 0.68976 0.05871
vt 0.73921 0.04968
vt 0.74024 0.11273
vt 0.84322 0.11124
vt 0.66123 0.06408
vt 0.77488 0.06046
vt 0.87406 0.10392
vt 0.96612 0.09641
vt 0.57911 0.10439
vt 0.65012 0.13181
vt 0.66906 0.15317
vt 0.62188 0.15053
vt 0.62216 0.13174
vt 0.95883 0.11683
vt 0.9402 0.11568
vt 0.6846 0.0295
vt 0.73968 0.01956
vt 0.78061 0.03122
vt 0.95949 0.1203
vt 0.97226 0.13848
vt 0.94042 0.13455
vt 0.93976 0.11867
vt 0.97156 0.09775
vt 0.66589 0.10482
vt 0.65385 0.12933
vt 0.66821 0.03033
vt 0.87874 0.10539
vt 0.73932 0.12505
vt 0.90439 0.09754
vt 0.86509 0.12144
vt 0.84282 0.12172
vt 0.76453 0.12971
vt 0.73927 0.1285
vt 0.59565 0.12704
vt 0.59478 0.13175
vt 0.7059 0.12636
vt 0.81716 0.1215
vt 0.81589 0.12453
vt 0.91786 0.11709
vt 0.91629 0.12027
vt 0.8681 0.12325
vt 0.78061 0.14864
vt 0.74022 0.14489
vt 0.57559 0.15317
vt 0.81377 0.12301
vt 0.68545 0.14198
vt 0.96252 0.11853
vt 0.59115 0.1292
vt 0.80003 0.13968
vt 0.91388 0.11841
vt 0.90377 0.13876
vt 0.03644 0.79227
vt 0.0247 0.74395
vt 0.4422 0.57721
vt 0.4652 0.5587
vt 0.45844 0.54682
vt 0.0333 0.34004
vt 0.02109 0.31401
vt 0.43087 0.58164
vt 0.01697 0.34894
vt 0.00814 0.30348
vt 0.13105 0.93722
vt 0.1946 0.93562
vt 0.19196 0.96215
vt 0.19715 0.98139
vt 0.12869 0.97827
vt 0.12929 0.95983
vt 0.20209 0.93641
vt 0.84589 0.22133
vt 0.84034 0.20281
vt 0.19075 0.95513
vt 0.13016 0.9535
vt 0.04076 0.95483
vt 0.19835 0.95654
vt 0.0341 0.97351
vt 0.81521 0.2661
vt 0.80122 0.26592
vt 0.71466 0.2559
vt 0.68786 0.24951
vt 0.69106 0.24524
vt 0.71515 0.25181
vt 0.74551 0.25672
vt 0.72879 0.25722
vt 0.78787 0.26274
vt 0.76363 0.25848
vt 0.34427 0.74035
vt 0.32603 0.74036
vt 0.22665 0.72115
vt 0.25573 0.72988
vt 0.74243 0.16207
vt 0.77489 0.16793
vt 0.27975 0.73413
vt 0.30756 0.73962
vt 0.84438 0.26975
vt 0.81611 0.26618
vt 0.70896 0.1669
vt 0.68173 0.18207
vt 0.83663 0.23977
vt 0.81596 0.26559
vt 0.17096 0.70021
vt 0.19703 0.71203
vt 0.67554 0.2136
vt 0.68152 0.18278
vt 0.71515 0.25181
vt 0.72942 0.25326
vt 0.19783 0.71239
vt 0.22616 0.72101
vt 0.7098 0.16643
vt 0.74187 0.16214
vt 0.27973 0.73413
vt 0.25609 0.72999
vt 0.7753 0.168
vt 0.79884 0.17734
vt 0.32469 0.74036
vt 0.30805 0.73965
vt 0.82652 0.19064
vt 0.83993 0.20145
vt 0.34485 0.74048
vt 0.36191 0.7474
vt 0.84582 0.22192
vt 0.8372 0.23905
vt 0.65814 0.24254
vt 0.68708 0.24933
vt 0.68739 0.24883
vt 0.67571 0.21417
vt 0.10693 0.07801
vt 0.79884 0.17734
vt 0.82611 0.19033
vt 0.17026 0.70016
vt 0.14153 0.6997
usemtl mat0
f 1/1/1 2/2/1 3/3/1
f 1/1/1 3/3/1 4/4/1
f 5/5/2 6/6/2 7/7/2
f 5/5/2 7/7/2 8/8/2
f 9/9/3 10/10/3 11/11/3
f 9/9/3 11/11/3 12/12/3
f 13/13/4 14/14/4 15/15/4
f 13/13/4 15/15/4 16/16/4
f 17/17/5 18/18/5 19/19/5
f 17/17/5 19/19/5 20/20/5
f 21/21/6 22/22/6 23/23/6
f 21/21/6 23/23/6 24/24/6
f 25/25/7 26/26/7 27/27/7
f 25/25/7 27/27/7 28/28/7
f 29/29/8 30/30/8 31/31/8
f 29/29/8 31/31/8 32/32/8
f 33/33/9 34/34/9 35/35/9
f 33/33/9 35/35/9 36/36/9
f 37/37/10 38/38/10 39/39/10
f 37/37/10 39/39/10 40/40/10
f 41/41/11 42/42/11 43/43/11
f 41/41/11 43/43/11 44/44/11
f 45/45/12 46/46/12 26/26/12
f 45/45/12 26/26/12 25/25/12
f 47/47/13 48/48/13 30/30/13
f 47/47/13 30/30/13 29/29/13
f 49/49/14 50/50/14 2/2/14
f 49/49/14 2/2/14 1/1/14
f 51/51/15 52/52/15 22/22/15
f 51/51/15 22/22/15 21/21/15
f 53/53/16 54/54/16 55/55/16
f 53/53/16 55/55/16 56/56/16
f 57/57/17 58/58/17 59/59/17
f 57/57/17 59/59/17 60/60/17
f 61/61/18 62/62/18 63/63/18
f 61/61/18 63/63/18 64/64/18
f 58/58/19 65/65/19 66/66/19
f 58/58/19 66/66/19 67/67/19
f 68/68/20 69/69/20 15/15/20
f 68/68/20 15/15/20 70/70/20
f 19/19/21 71/71/21 72/72/21
f 19/19/21 72/72/21 6/6/21
f 63/63/22 68/68/22 70/70/22
f 63/63/22 70/70/22 73/73/22
f 74/74/23 18/18/23 16/16/23
f 74/74/23 16/16/23 75/75/23
f 76/76/24 77/77/24 78/78/24
f 76/76/24 78/78/24 79/79/24
f 80/80/25 81/81/25 82/82/25
f 80/80/25 82/82/25 83/83/25
f 84/84/26 85/85/26 86/86/26
f 84/84/26 86/86/26 87/87/26
f 88/88/27 89/89/27 90/90/27
f 88/88/27 90/90/27 91/91/27
f 92/92/28 93/93/28 46/46/28
f 92/92/28 46/46/28 45/45/28
f 94/94/29 95/95/29 48/48/29
f 94/94/29 48/48/29 47/47/29
f 96/96/30 97/97/30 50/50/30
f 96/96/30 50/50/30 49/49/30
f 98/98/31 99/99/31 100/100/31
f 98/98/31 100/100/31 101/101/31
f 102/102/32 103/103/32 104/104/32
f 102/102/32 104/104/32 105/105/32
f 106/106/33 107/107/33 108/108/33
f 106/106/33 108/108/33 109/109/33
f 110/110/34 100/100/34 111/111/34
f 110/110/34 111/111/34 112/112/34
f 113/113/35 93/93/35 90/90/35
f 113/113/35 90/90/35 114/114/35
f 115/115/36 95/95/36 104/104/36
f 115/115/36 104/104/36 116/116/36
f 117/117/37 97/97/37 108/108/37
f 117/117/37 108/108/37 118/118/37
f 110/110/38 52/52/38 51/51/38
f 110/110/38 51/51/38 119/119/38
f 120/120/39 121/121/39 9/9/39
f 120/120/39 9/9/39 12/12/39
f 122/122/40 123/123/40 124/124/40
f 122/122/40 124/124/40 125/125/40
f 126/126/41 127/127/41 128/128/41
f 126/126/41 128/128/41 129/129/41
f 130/130/42 131/131/42 132/132/42
f 130/130/42 132/132/42 133/133/42
f 134/134/43 135/135/43 136/136/43
f 134/134/43 136/136/43 137/137/43
f 138/138/44 139/139/44 140/140/44
f 138/138/44 140/140/44 141/141/44
f 142/142/45 143/143/45 144/144/45
f 142/142/45 144/144/45 145/145/45
f 146/146/46 147/147/46 148/148/46
f 146/146/46 148/148/46 149/149/46
f 130/130/47 150/150/47 151/151/47
f 130/130/47 151/151/47 131/131/47
f 141/141/48 140/140/48 152/152/48
f 141/141/48 152/152/48 153/153/48
f 154/154/49 155/155/49 156/156/49
f 154/154/49 156/156/49 157/157/49
f 158/158/50 159/159/50 160/160/50
f 158/158/50 160/160/50 161/161/50
f 162/162/51 163/163/51 164/164/51
f 162/162/51 164/164/51 165/165/51
f 166/166/52 167/167/52 168/168/52
f 166/166/52 168/168/52 169/169/52
f 170/170/53 171/171/53 172/172/53
f 170/170/53 172/172/53 173/173/53
f 174/174/54 175/175/54 176/176/54
f 174/174/54 176/176/54 177/177/54
f 167/167/55 166/166/55 178/178/55
f 167/167/55 178/178/55 179/179/55
f 180/180/56 181/181/56 182/182/56
f 180/180/56 182/182/56 183/183/56
f 142/142/57 126/126/57 129/129/57
f 142/142/57 129/129/57 143/143/57
f 184/184/58 185/185/58 186/186/58
f 184/184/58 186/186/58 187/187/58
f 188/188/59 189/189/59 190/190/59
f 188/188/59 190/190/59 191/191/59
f 192/192/60 193/193/60 194/194/60
f 192/192/60 194/194/60 195/195/60
f 196/196/61 197/197/61 198/198/61
f 196/196/61 198/198/61 199/199/61
f 200/200/62 201/201/62 202/202/62
f 200/200/62 202/202/62 203/203/62
f 204/204/63 205/205/63 206/206/63
f 204/204/63 206/206/63 207/207/63
f 208/208/64 209/209/64 210/210/64
f 208/208/64 210/210/64 211/211/64
f 212/212/65 213/213/65 58/58/65
f 212/212/65 58/58/65 57/57/65
f 173/173/66 172/172/66 214/214/66
f 173/173/66 214/214/66 215/215/66
f 216/216/67 217/217/67 218/218/67
f 216/216/67 218/218/67 219/219/67
f 220/220/68 221/221/68 222/222/68
f 220/220/68 222/222/68 223/223/68
f 224/224/69 225/225/69 226/226/69
f 224/224/69 226/226/69 227/227/69
f 184/184/70 228/228/70 229/229/70
f 184/184/70 229/229/70 185/185/70
f 230/230/71 231/231/71 232/232/71
f 230/230/71 232/232/71 233/233/71
f 150/150/72 169/169/72 168/168/72
f 150/150/72 168/168/72 151/151/72
f 234/234/73 235/235/73 236/236/73
f 234/234/73 236/236/73 237/237/73
f 238/238/74 239/239/74 240/240/74
f 238/238/74 240/240/74 241/241/74
f 242/242/75 243/243/75 244/244/75
f 242/242/75 244/244/75 245/245/75
f 246/246/76 247/247/76 248/248/76
f 246/246/76 248/248/76 249/249/76
f 250/250/77 137/137/77 136/136/77
f 250/250/77 136/136/77 251/251/77
f 145/145/78 144/144/78 156/156/78
f 145/145/78 156/156/78 155/155/78
f 252/252/79 253/253/79 254/254/79
f 252/252/79 254/254/79 255/255/79
f 256/256/80 257/257/80 258/258/80
f 256/256/80 258/258/80 259/259/80
f 260/260/81 261/261/81 171/171/81
f 260/260/81 171/171/81 170/170/81
f 165/165/82 164/164/82 262/262/82
f 165/165/82 262/262/82 263/263/82
f 224/224/83 264/264/83 265/265/83
f 224/224/83 265/265/83 225/225/83
f 266/266/84 267/267/84 135/135/84
f 266/266/84 135/135/84 134/134/84
f 187/187/85 186/186/85 210/210/85
f 187/187/85 210/210/85 209/209/85
f 208/208/86 211/211/86 268/268/86
f 208/208/86 268/268/86 269/269/86
f 161/161/87 160/160/87 270/270/87
f 161/161/87 270/270/87 271/271/87
f 272/272/88 273/273/88 274/274/88
f 272/272/88 274/274/88 275/275/88
f 200/200/89 133/133/89 132/132/89
f 200/200/89 132/132/89 201/201/89
f 56/56/90 55/55/90 121/121/90
f 56/56/90 121/121/90 120/120/90
f 153/153/91 152/152/91 261/261/91
f 153/153/91 261/261/91 260/260/91
f 203/203/92 202/202/92 176/176/92
f 203/203/92 176/176/92 175/175/92
f 276/276/93 277/277/93 247/247/93
f 276/276/93 247/247/93 246/246/93
f 278/278/94 276/276/94 279/279/94
f 278/278/94 279/279/94 280/280/94
f 230/230/95 269/269/95 268/268/95
f 230/230/95 268/268/95 231/231/95
f 227/227/96 226/226/96 240/240/96
f 227/227/96 240/240/96 239/239/96
f 238/238/97 241/241/97 281/281/97
f 238/238/97 281/281/97 282/282/97
f 283/283/98 284/284/98 285/285/98
f 283/283/98 285/285/98 286/286/98
f 287/287/99 288/288/99 289/289/99
f 287/287/99 289/289/99 290/290/99
f 233/233/100 232/232/100 218/218/100
f 233/233/100 218/218/100 217/217/100
f 275/275/101 274/274/101 291/291/101
f 275/275/101 291/291/101 292/292/101
f 293/293/102 294/294/102 295/295/102
f 293/293/102 295/295/102 296/296/102
f 266/266/103 282/282/103 281/281/103
f 266/266/103 281/281/103 267/267/103
f 297/297/104 298/298/104 299/299/104
f 297/297/104 299/299/104 300/300/104
f 199/199/105 198/198/105 222/222/105
f 199/199/105 222/222/105 221/221/105
f 141/141/106 153/153/106 301/301/106
f 141/141/106 301/301/106 138/138/106
f 302/302/107 303/303/107 304/304/107
f 302/302/107 304/304/107 305/305/107
f 292/292/108 196/196/108 306/306/108
f 292/292/108 306/306/108 307/307/108
f 253/253/109 308/308/109 309/309/109
f 253/253/109 309/309/109 220/220/109
f 170/170/110 173/173/110 310/310/110
f 170/170/110 310/310/110 311/311/110
f 312/312/111 246/246/111 313/313/111
f 312/312/111 313/313/111 314/314/111
f 315/315/112 316/316/112 317/317/112
f 315/315/112 317/317/112 318/318/112
f 319/319/113 320/320/113 321/321/113
f 319/319/113 321/321/113 322/322/113
f 133/133/114 323/323/114 324/324/114
f 133/133/114 324/324/114 325/325/114
f 326/326/115 327/327/115 328/328/115
f 326/326/115 328/328/115 269/269/115
f 282/282/116 329/329/116 330/330/116
f 282/282/116 330/330/116 331/331/116
f 332/332/117 333/333/117 334/334/117
f 332/332/117 334/334/117 335/335/117
f 336/336/118 337/337/118 338/338/118
f 336/336/118 338/338/118 339/339/118
f 340/340/119 341/341/119 342/342/119
f 340/340/119 342/342/119 343/343/119
f 208/208/120 269/269/120 328/328/120
f 208/208/120 328/328/120 344/344/120
f 238/238/121 282/282/121 331/331/121
f 238/238/121 331/331/121 345/345/121
f 275/275/122 292/292/122 307/307/122
f 275/275/122 307/307/122 346/346/122
f 130/130/123 133/133/123 325/325/123
f 130/130/123 325/325/123 347/347/123
f 193/193/124 348/348/124 57/57/124
f 193/193/124 57/57/124 194/194/124
f 213/213/125 349/349/125 65/65/125
f 213/213/125 65/65/125 58/58/125
f 280/280/126 279/279/126 350/350/126
f 280/280/126 350/350/126 351/351/126
f 192/192/127 195/195/127 206/206/127
f 192/192/127 206/206/127 205/205/127
f 319/319/128 308/308/128 352/352/128
f 319/319/128 352/352/128 182/182/128
f 279/279/129 312/312/129 317/317/129
f 279/279/129 317/317/129 350/350/129
f 276/276/130 246/246/130 312/312/130
f 276/276/130 312/312/130 279/279/130
f 165/165/131 263/263/131 353/353/131
f 165/165/131 353/353/131 354/354/131
f 316/316/132 320/320/132 181/181/132
f 316/316/132 181/181/132 355/355/132
f 356/356/133 357/357/133 358/358/133
f 356/356/133 358/358/133 359/359/133
f 360/360/134 361/361/134 362/362/134
f 360/360/134 362/362/134 363/363/134
f 199/199/135 221/221/135 364/364/135
f 199/199/135 364/364/135 365/365/135
f 173/173/136 215/215/136 366/366/136
f 184/184/137 187/187/137 367/367/137
f 184/184/137 367/367/137 368/368/137
f 209/209/138 208/208/138 344/344/138
f 209/209/138 344/344/138 369/369/138
f 239/239/139 238/238/139 345/345/139
f 239/239/139 345/345/139 370/370/139
f 272/272/140 275/275/140 346/346/140
f 272/272/140 346/346/140 371/371/140
f 166/166/141 169/169/141 372/372/141
f 166/166/141 372/372/141 373/373/141
f 224/224/142 227/227/142 374/374/142
f 224/224/142 374/374/142 375/375/142
f 155/155/143 372/372/143 376/376/143
f 155/155/143 376/376/143 145/145/143
f 130/130/144 347/347/144 376/376/144
f 130/130/144 376/376/144 150/150/144
f 203/203/145 175/175/145 367/367/145
f 203/203/145 367/367/145 369/369/145
f 233/233/146 217/217/146 374/374/146
f 233/233/146 374/374/146 370/370/146
f 134/134/147 137/137/147 353/353/147
f 134/134/147 353/353/147 371/371/147
f 377/377/148 271/271/148 270/270/148
f 377/377/148 270/270/148 378/378/148
f 379/379/149 111/111/149 100/100/149
f 379/379/149 100/100/149 99/99/149
f 170/170/150 311/311/150 380/380/150
f 170/170/150 380/380/150 260/260/150
f 381/381/151 382/382/151 383/383/151
f 381/381/151 383/383/151 384/384/151
f 249/249/152 385/385/152 386/386/152
f 249/249/152 386/386/152 246/246/152
f 384/384/153 383/383/153 284/284/153
f 384/384/153 284/284/153 283/283/153
f 347/347/154 142/142/154 145/145/154
f 347/347/154 145/145/154 376/376/154
f 372/372/155 169/169/155 150/150/155
f 372/372/155 150/150/155 376/376/155
f 373/373/156 372/372/156 155/155/156
f 373/373/156 155/155/156 154/154/156
f 325/325/157 126/126/157 142/142/157
f 325/325/157 142/142/157 347/347/157
f 387/387/158 388/388/158 389/389/158
f 387/387/158 389/389/158 390/390/158
f 325/325/159 324/324/159 127/127/159
f 325/325/159 127/127/159 126/126/159
f 191/191/160 190/190/160 391/391/160
f 191/191/160 391/391/160 392/392/160
f 123/123/161 393/393/161 394/394/161
f 123/123/161 394/394/161 124/124/161
f 112/112/162 395/395/162 52/52/162
f 112/112/162 52/52/162 110/110/162
f 119/119/163 101/101/163 100/100/163
f 119/119/163 100/100/163 110/110/163
f 396/396/164 397/397/164 35/35/164
f 396/396/164 35/35/164 34/34/164
f 395/395/165 398/398/165 22/22/165
f 395/395/165 22/22/165 52/52/165
f 399/399/166 71/71/166 74/74/166
f 399/399/166 74/74/166 400/400/166
f 22/22/167 398/398/167 401/401/167
f 22/22/167 401/401/167 23/23/167
f 369/369/168 367/367/168 187/187/168
f 369/369/168 187/187/168 209/209/168
f 369/369/169 344/344/169 200/200/169
f 369/369/169 200/200/169 203/203/169
f 368/368/170 367/367/170 175/175/170
f 368/368/170 175/175/170 174/174/170
f 363/363/171 362/362/171 382/382/171
f 363/363/171 382/382/171 381/381/171
f 350/350/172 317/317/172 316/316/172
f 350/350/172 316/316/172 355/355/172
f 402/402/173 355/355/173 181/181/173
f 402/402/173 181/181/173 403/403/173
f 328/328/174 133/133/174 200/200/174
f 328/328/174 200/200/174 344/344/174
f 404/404/175 405/405/175 406/406/175
f 404/404/175 406/406/175 407/407/175
f 327/327/176 323/323/176 133/133/176
f 327/327/176 133/133/176 328/328/176
f 317/317/177 312/312/177 314/314/177
f 317/317/177 314/314/177 318/318/177
f 245/245/178 244/244/178 408/408/178
f 245/245/178 408/408/178 409/409/178
f 410/410/179 350/350/179 355/355/179
f 410/410/179 355/355/179 402/402/179
f 93/93/180 92/92/180 91/91/180
f 93/93/180 91/91/180 90/90/180
f 93/93/181 113/113/181 411/411/181
f 93/93/181 411/411/181 46/46/181
f 89/89/182 412/412/182 114/114/182
f 89/89/182 114/114/182 90/90/182
f 81/81/183 122/122/183 125/125/183
f 81/81/183 125/125/183 82/82/183
f 75/75/184 16/16/184 15/15/184
f 75/75/184 15/15/184 69/69/184
f 194/194/185 57/57/185 413/413/185
f 194/194/185 413/413/185 414/414/185
f 411/411/186 21/21/186 26/26/186
f 411/411/186 26/26/186 46/46/186
f 415/415/187 416/416/187 39/39/187
f 415/415/187 39/39/187 38/38/187
f 26/26/188 21/21/188 24/24/188
f 26/26/188 24/24/188 27/27/188
f 370/370/189 374/374/189 227/227/189
f 370/370/189 227/227/189 239/239/189
f 70/70/190 15/15/190 14/14/190
f 375/375/191 374/374/191 217/217/191
f 375/375/191 217/217/191 216/216/191
f 370/370/192 345/345/192 230/230/192
f 370/370/192 230/230/192 233/233/192
f 358/358/193 357/357/193 361/361/193
f 358/358/193 361/361/193 360/360/193
f 320/320/194 319/319/194 182/182/194
f 320/320/194 182/182/194 181/181/194
f 278/278/195 417/417/195 277/277/195
f 278/278/195 277/277/195 276/276/195
f 345/345/196 331/331/196 269/269/196
f 345/345/196 269/269/196 230/230/196
f 418/418/197 419/419/197 420/420/197
f 418/418/197 420/420/197 421/421/197
f 331/331/198 330/330/198 326/326/198
f 331/331/198 326/326/198 269/269/198
f 320/320/199 316/316/199 315/315/199
f 320/320/199 315/315/199 321/321/199
f 259/259/200 258/258/200 422/422/200
f 259/259/200 422/422/200 423/423/200
f 182/182/201 352/352/201 424/424/201
f 182/182/201 424/424/201 183/183/201
f 95/95/202 94/94/202 105/105/202
f 95/95/202 105/105/202 104/104/202
f 103/103/203 425/425/203 116/116/203
f 103/103/203 116/116/203 104/104/203
f 95/95/204 115/115/204 426/426/204
f 95/95/204 426/426/204 48/48/204
f 77/77/205 80/80/205 83/83/205
f 77/77/205 83/83/205 78/78/205
f 71/71/206 19/19/206 18/18/206
f 71/71/206 18/18/206 74/74/206
f 427/427/207 72/72/207 71/71/207
f 427/427/207 71/71/207 428/428/207
f 48/48/208 426/426/208 25/25/208
f 48/48/208 25/25/208 30/30/208
f 429/429/209 430/430/209 43/43/209
f 429/429/209 43/43/209 42/42/209
f 30/30/210 25/25/210 28/28/210
f 30/30/210 28/28/210 31/31/210
f 17/17/211 13/13/211 16/16/211
f 17/17/211 16/16/211 18/18/211
f 371/371/212 353/353/212 263/263/212
f 371/371/212 263/263/212 272/272/212
f 354/354/213 353/353/213 137/137/213
f 354/354/213 137/137/213 250/250/213
f 371/371/214 346/346/214 266/266/214
f 371/371/214 266/266/214 134/134/214
f 365/365/215 364/364/215 356/356/215
f 365/365/215 356/356/215 359/359/215
f 308/308/216 253/253/216 252/252/216
f 308/308/216 252/252/216 352/352/216
f 431/431/217 252/252/217 255/255/217
f 431/431/217 255/255/217 432/432/217
f 346/346/218 307/307/218 282/282/218
f 346/346/218 282/282/218 266/266/218
f 308/308/219 319/319/219 322/322/219
f 308/308/219 322/322/219 309/309/219
f 307/307/220 306/306/220 329/329/220
f 307/307/220 329/329/220 282/282/220
f 340/340/221 343/343/221 433/433/221
f 340/340/221 433/433/221 434/434/221
f 234/234/222 237/237/222 435/435/222
f 234/234/222 435/435/222 436/436/222
f 352/352/223 252/252/223 431/431/223
f 352/352/223 431/431/223 437/437/223
f 97/97/224 96/96/224 109/109/224
f 97/97/224 109/109/224 108/108/224
f 107/107/225 438/438/225 118/118/225
f 107/107/225 118/118/225 108/108/225
f 97/97/226 117/117/226 439/439/226
f 97/97/226 439/439/226 50/50/226
f 84/84/227 76/76/227 79/79/227
f 84/84/227 79/79/227 85/85/227
f 440/440/228 7/7/228 6/6/228
f 440/440/228 6/6/228 72/72/228
f 441/441/229 442/442/229 440/440/229
f 441/441/229 440/440/229 443/443/229
f 50/50/230 439/439/230 29/29/230
f 50/50/230 29/29/230 2/2/230
f 20/20/231 19/19/231 6/6/231
f 20/20/231 6/6/231 5/5/231
f 2/2/232 29/29/232 32/32/232
f 2/2/232 32/32/232 3/3/232
f 444/444/233 445/445/233 446/446/233
f 444/444/233 446/446/233 447/447/233
f 448/448/234 440/440/234 72/72/234
f 448/448/234 72/72/234 427/427/234
f 449/449/235 444/444/235 447/447/235
f 449/449/235 447/447/235 450/450/235
f 451/451/236 452/452/236 429/429/236
f 451/451/236 429/429/236 42/42/236
f 41/41/237 453/453/237 451/451/237
f 41/41/237 451/451/237 42/42/237
f 454/454/238 75/75/238 69/69/238
f 454/454/238 69/69/238 455/455/238
f 456/456/239 415/415/239 38/38/239
f 456/456/239 38/38/239 457/457/239
f 458/458/240 396/396/240 34/34/240
f 458/458/240 34/34/240 459/459/240
f 460/460/241 461/461/241 87/87/241
f 460/460/241 87/87/241 86/86/241
f 462/462/242 463/463/242 109/109/242
f 462/462/242 109/109/242 96/96/242
f 457/457/243 38/38/243 37/37/243
f 457/457/243 37/37/243 464/464/243
f 465/465/244 29/29/244 439/439/244
f 465/465/244 439/439/244 466/466/244
f 467/467/245 468/468/245 49/49/245
f 467/467/245 49/49/245 1/1/245
f 469/469/246 115/115/246 116/116/246
f 469/469/246 116/116/246 470/470/246
f 450/450/247 447/447/247 471/471/247
f 450/450/247 471/471/247 472/472/247
f 473/473/248 394/394/248 393/393/248
f 473/473/248 393/393/248 474/474/248
f 465/465/249 475/475/249 47/47/249
f 465/465/249 47/47/249 29/29/249
f 476/476/250 477/477/250 105/105/250
f 476/476/250 105/105/250 94/94/250
f 478/478/251 25/25/251 426/426/251
f 478/478/251 426/426/251 479/479/251
f 480/480/252 481/481/252 69/69/252
f 480/480/252 69/69/252 68/68/252
f 482/482/253 64/64/253 63/63/253
f 482/482/253 63/63/253 73/73/253
f 483/483/254 113/113/254 114/114/254
f 483/483/254 114/114/254 484/484/254
f 260/260/255 380/380/255 301/301/255
f 260/260/255 301/301/255 153/153/255
f 485/485/256 486/486/256 487/487/256
f 485/485/256 487/487/256 488/488/256
f 489/489/257 21/21/257 411/411/257
f 489/489/257 411/411/257 490/490/257
f 468/468/258 462/462/258 96/96/258
f 468/468/258 96/96/258 49/49/258
f 491/491/259 492/492/259 486/486/259
f 491/491/259 486/486/259 485/485/259
f 478/478/260 493/493/260 45/45/260
f 478/478/260 45/45/260 25/25/260
f 494/494/261 495/495/261 91/91/261
f 494/494/261 91/91/261 92/92/261
f 466/466/262 439/439/262 117/117/262
f 466/466/262 117/117/262 496/496/262
f 497/497/263 44/44/263 102/102/263
f 497/497/263 102/102/263 498/498/263
f 499/499/264 106/106/264 109/109/264
f 499/499/264 109/109/264 463/463/264
f 500/500/265 430/430/265 429/429/265
f 500/500/265 429/429/265 452/452/265
f 479/479/266 426/426/266 115/115/266
f 479/479/266 115/115/266 469/469/266
f 442/442/267 501/501/267 7/7/267
f 442/442/267 7/7/267 440/440/267
f 502/502/268 112/112/268 111/111/268
f 502/502/268 111/111/268 503/503/268
f 504/504/269 505/505/269 118/118/269
f 504/504/269 118/118/269 438/438/269
f 482/482/270 73/73/270 506/506/270
f 482/482/270 506/506/270 507/507/270
f 508/508/271 416/416/271 415/415/271
f 508/508/271 415/415/271 456/456/271
f 65/65/272 509/509/272 510/510/272
f 65/65/272 510/510/272 511/511/272
f 475/475/273 476/476/273 94/94/273
f 475/475/273 94/94/273 47/47/273
f 512/512/274 445/445/274 444/444/274
f 512/512/274 444/444/274 449/449/274
f 513/513/275 514/514/275 101/101/275
f 513/513/275 101/101/275 119/119/275
f 515/515/276 40/40/276 88/88/276
f 515/515/276 88/88/276 516/516/276
f 517/517/277 460/460/277 86/86/277
f 517/517/277 86/86/277 8/8/277
f 498/498/278 102/102/278 105/105/278
f 498/498/278 105/105/278 477/477/278
f 518/518/279 36/36/279 98/98/279
f 518/518/279 98/98/279 519/519/279
f 520/520/280 470/470/280 116/116/280
f 520/520/280 116/116/280 425/425/280
f 521/521/281 11/11/281 522/522/281
f 521/521/281 522/522/281 523/523/281
f 524/524/282 74/74/282 75/75/282
f 524/524/282 75/75/282 454/454/282
f 493/493/283 494/494/283 92/92/283
f 493/493/283 92/92/283 45/45/283
f 525/525/284 56/56/284 120/120/284
f 525/525/284 120/120/284 526/526/284
f 195/195/285 194/194/285 414/414/285
f 195/195/285 414/414/285 527/527/285
f 490/490/286 411/411/286 113/113/286
f 490/490/286 113/113/286 483/483/286
f 528/528/287 4/4/287 87/87/287
f 528/528/287 87/87/287 461/461/287
f 529/529/288 530/530/288 68/68/288
f 529/529/288 68/68/288 63/63/288
f 531/531/289 397/397/289 396/396/289
f 531/531/289 396/396/289 458/458/289
f 516/516/290 88/88/290 91/91/290
f 516/516/290 91/91/290 495/495/290
f 532/532/291 533/533/292 398/398/291
f 532/532/291 398/398/291 395/395/291
f 534/534/293 535/535/293 65/65/293
f 534/534/293 65/65/293 536/536/293
f 537/537/294 484/484/294 114/114/294
f 537/537/294 114/114/294 412/412/294
f 538/538/295 459/459/295 34/34/295
f 538/538/295 34/34/295 33/33/295
f 521/521/296 539/539/296 12/12/296
f 521/521/296 12/12/296 11/11/296
f 519/519/297 98/98/297 101/101/297
f 519/519/297 101/101/297 514/514/297
f 540/540/298 541/541/298 106/106/298
f 540/540/298 106/106/298 499/499/298
f 542/542/299 543/543/299 492/492/299
f 542/542/299 492/492/299 491/491/299
f 544/544/300 503/503/300 111/111/300
f 544/544/300 111/111/300 379/379/300
f 525/525/301 545/545/301 53/53/301
f 525/525/301 53/53/301 56/56/301
f 546/546/302 513/513/302 119/119/302
f 546/546/302 119/119/302 51/51/302
f 547/547/303 548/548/303 549/549/303
f 547/547/303 549/549/303 550/550/303
f 532/532/304 395/395/304 112/112/304
f 532/532/304 112/112/304 502/502/304
f 551/551/305 54/54/305 53/53/305
f 551/551/305 53/53/305 545/545/305
f 496/496/306 117/117/306 118/118/306
f 496/496/306 118/118/306 505/505/306
f 489/489/307 546/546/307 51/51/307
f 489/489/307 51/51/307 21/21/307
f 552/552/308 401/401/308 398/398/308
f 552/552/308 398/398/308 533/533/308
f 14/14/309 125/125/309 553/553/309
f 14/14/309 553/553/309 554/554/309
f 555/555/310 556/556/310 554/554/310
f 555/555/310 554/554/310 553/553/310
f 310/310/311 173/173/311 366/366/311
f 310/310/311 366/366/311 385/385/311
f 394/394/312 473/473/312 523/523/312
f 394/394/312 523/523/312 522/522/312
f 124/124/313 394/394/313 522/522/313
f 124/124/313 522/522/313 557/557/313
f 558/558/314 366/366/314 215/215/314
f 558/558/314 215/215/314 284/284/314
f 10/10/315 559/559/315 560/560/315
f 10/10/315 560/560/315 11/11/315
f 285/285/316 284/284/316 215/215/316
f 285/285/316 215/215/316 214/214/316
f 158/158/317 310/310/317 385/385/317
f 158/158/317 385/385/317 249/249/317
f 543/543/318 542/542/318 507/507/318
f 543/543/318 507/507/318 506/506/318
f 159/159/319 158/158/319 249/249/319
f 159/159/319 249/249/319 248/248/319
f 543/543/320 506/506/320 559/559/320
f 543/543/320 559/559/320 10/10/320
f 506/506/321 73/73/321 556/556/321
f 506/506/321 556/556/321 559/559/321
f 551/551/322 561/561/322 562/562/322
f 551/551/322 562/562/322 54/54/322
f 385/385/323 366/366/323 558/558/323
f 385/385/323 558/558/323 386/386/323
f 311/311/324 161/161/324 271/271/324
f 311/311/324 271/271/324 380/380/324
f 55/55/325 487/487/325 486/486/325
f 55/55/325 486/486/325 121/121/325
f 138/138/326 301/301/326 377/377/326
f 138/138/326 377/377/326 563/563/326
f 310/310/327 158/158/327 161/161/327
f 310/310/327 161/161/327 311/311/327
f 563/563/328 564/564/328 139/139/328
f 563/563/328 139/139/328 138/138/328
f 486/486/329 492/492/329 9/9/329
f 486/486/329 9/9/329 121/121/329
f 54/54/330 562/562/330 487/487/330
f 54/54/330 487/487/330 55/55/330
f 83/83/331 82/82/331 14/14/331
f 83/83/331 14/14/331 13/13/331
f 492/492/332 543/543/332 10/10/332
f 492/492/332 10/10/332 9/9/332
f 362/362/333 318/318/333 314/314/333
f 362/362/333 314/314/333 382/382/333
f 361/361/334 315/315/334 318/318/334
f 361/361/334 318/318/334 362/362/334
f 356/356/335 364/364/335 309/309/335
f 356/356/335 309/309/335 322/322/335
f 364/364/336 221/221/336 220/220/336
f 364/364/336 220/220/336 309/309/336
f 357/357/337 321/321/337 315/315/337
f 357/357/337 315/315/337 361/361/337
f 356/356/338 322/322/338 321/321/338
f 356/356/338 321/321/338 357/357/338
f 253/253/339 220/220/339 223/223/339
f 253/253/339 223/223/339 254/254/339
f 501/501/340 517/517/340 8/8/340
f 501/501/340 8/8/340 7/7/340
f 79/79/341 20/20/341 5/5/341
f 79/79/341 5/5/341 85/85/341
f 78/78/342 83/83/342 13/13/342
f 78/78/342 13/13/342 17/17/342
f 79/79/343 78/78/343 17/17/343
f 79/79/343 17/17/343 20/20/343
f 123/123/344 122/122/344 24/24/344
f 123/123/344 24/24/344 23/23/344
f 85/85/345 5/5/345 8/8/345
f 85/85/345 8/8/345 86/86/345
f 125/125/346 124/124/346 557/557/346
f 125/125/346 557/557/346 553/553/346
f 70/70/347 554/554/347 556/556/347
f 70/70/347 556/556/347 73/73/347
f 557/557/348 522/522/348 11/11/348
f 557/557/348 11/11/348 560/560/348
f 559/559/349 556/556/349 555/555/349
f 559/559/349 555/555/349 560/560/349
f 125/125/350 14/14/350 82/82/350
f 14/14/351 554/554/351 70/70/351
f 553/553/352 557/557/352 560/560/352
f 553/553/352 560/560/352 555/555/352
f 474/474/353 393/393/353 401/401/353
f 474/474/353 401/401/353 552/552/353
f 467/467/354 1/1/354 4/4/354
f 467/467/354 4/4/354 528/528/354
f 3/3/355 32/32/355 76/76/355
f 3/3/355 76/76/355 84/84/355
f 306/306/356 365/365/356 359/359/356
f 306/306/356 359/359/356 329/329/356
f 31/31/357 28/28/357 80/80/357
f 31/31/357 80/80/357 77/77/357
f 330/330/358 358/358/358 360/360/358
f 330/330/358 360/360/358 326/326/358
f 27/27/359 24/24/359 122/122/359
f 27/27/359 122/122/359 81/81/359
f 327/327/360 363/363/360 381/381/360
f 327/327/360 381/381/360 323/323/360
f 23/23/361 401/401/361 393/393/361
f 23/23/361 393/393/361 123/123/361
f 324/324/362 384/384/362 283/283/362
f 324/324/362 283/283/362 127/127/362
f 359/359/363 358/358/363 330/330/363
f 359/359/363 330/330/363 329/329/363
f 360/360/364 363/363/364 327/327/364
f 360/360/364 327/327/364 326/326/364
f 381/381/365 384/384/365 324/324/365
f 381/381/365 324/324/365 323/323/365
f 196/196/366 199/199/366 365/365/366
f 196/196/366 365/365/366 306/306/366
f 196/196/367 292/292/367 291/291/367
f 196/196/367 291/291/367 197/197/367
f 127/127/368 283/283/369 286/286/368
f 127/127/368 286/286/368 128/128/369
f 32/32/370 31/31/370 77/77/370
f 32/32/370 77/77/370 76/76/370
f 28/28/371 27/27/371 81/81/371
f 28/28/371 81/81/371 80/80/371
f 4/4/372 3/3/372 84/84/372
f 4/4/372 84/84/372 87/87/372
f 558/558/373 284/284/373 383/383/373
f 558/558/373 383/383/373 313/313/373
f 386/386/374 313/313/374 246/246/374
f 154/154/375 157/157/375 189/189/375
f 154/154/375 189/189/375 188/188/375
f 540/540/376 472/472/376 471/471/376
f 540/540/376 471/471/376 541/541/376
f 558/558/377 313/313/378 386/386/377
f 512/512/379 504/504/379 438/438/379
f 512/512/379 438/438/379 445/445/379
f 446/446/380 445/445/380 438/438/380
f 446/446/380 438/438/380 107/107/380
f 565/565/381 354/354/381 250/250/381
f 565/565/381 250/250/381 235/235/381
f 162/162/382 165/165/382 354/354/382
f 162/162/382 354/354/382 565/565/382
f 235/235/383 250/250/383 251/251/383
f 235/235/383 251/251/383 236/236/383
f 287/287/384 290/290/384 163/163/384
f 287/287/384 163/163/384 162/162/384
f 541/541/385 446/446/385 107/107/385
f 541/541/385 107/107/385 106/106/385
f 500/500/386 520/520/386 425/425/386
f 500/500/386 425/425/386 430/430/386
f 497/497/387 453/453/387 41/41/387
f 497/497/387 41/41/387 44/44/387
f 43/43/388 430/430/388 425/425/388
f 43/43/388 425/425/388 103/103/388
f 566/566/389 375/375/389 216/216/389
f 566/566/389 216/216/389 256/256/389
f 264/264/390 224/224/390 375/375/390
f 264/264/390 375/375/390 566/566/390
f 264/264/391 293/293/391 296/296/391
f 264/264/391 296/296/391 265/265/391
f 216/216/392 219/219/392 257/257/392
f 216/216/392 257/257/392 256/256/392
f 44/44/393 43/43/393 103/103/393
f 44/44/393 103/103/393 102/102/393
f 515/515/394 464/464/394 37/37/394
f 515/515/394 37/37/394 40/40/394
f 508/508/395 537/537/395 412/412/395
f 508/508/395 412/412/395 416/416/395
f 416/416/396 412/412/396 89/89/396
f 416/416/396 89/89/396 39/39/396
f 567/567/397 368/368/397 174/174/397
f 567/567/397 174/174/397 242/242/397
f 228/228/398 184/184/398 368/368/398
f 228/228/398 368/368/398 567/567/398
f 174/174/399 177/177/399 243/243/399
f 174/174/399 243/243/399 242/242/399
f 228/228/400 297/297/400 300/300/400
f 228/228/400 300/300/400 229/229/400
f 40/40/401 39/39/401 89/89/401
f 40/40/401 89/89/401 88/88/401
f 531/531/402 544/544/402 379/379/402
f 531/531/402 379/379/402 397/397/402
f 518/518/403 538/538/403 33/33/403
f 518/518/403 33/33/403 36/36/403
f 397/397/404 379/379/404 99/99/404
f 397/397/404 99/99/404 35/35/404
f 568/568/405 373/373/405 154/154/405
f 568/568/405 154/154/405 188/188/405
f 166/166/406 373/373/406 568/568/406
f 166/166/406 568/568/406 178/178/406
f 569/569/407 570/570/407 179/179/407
f 569/569/407 179/179/407 178/178/407
f 36/36/408 35/35/408 99/99/408
f 36/36/408 99/99/408 98/98/408
f 297/297/409 228/228/409 571/571/409
f 297/297/409 571/571/409 572/572/409
f 287/287/410 162/162/410 573/573/410
f 287/287/410 573/573/410 574/574/410
f 234/234/411 575/575/411 576/576/411
f 234/234/411 576/576/411 235/235/411
f 577/577/412 578/578/412 579/579/412
f 577/577/412 579/579/412 580/580/412
f 245/245/413 581/581/413 582/582/413
f 245/245/413 582/582/413 242/242/413
f 256/256/414 259/259/414 583/583/414
f 256/256/414 583/583/414 584/584/414
f 293/293/415 264/264/415 585/585/415
f 293/293/415 585/585/415 586/586/415
f 569/569/416 178/178/416 587/587/416
f 569/569/416 587/587/416 588/588/416
f 565/565/417 235/235/417 576/576/417
f 565/565/417 576/576/417 589/589/417
f 565/565/418 589/589/418 573/573/418
f 565/565/418 573/573/418 162/162/418
f 566/566/419 256/256/419 584/584/419
f 566/566/419 584/584/419 590/590/419
f 566/566/420 590/590/420 585/585/420
f 566/566/420 585/585/420 264/264/420
f 567/567/421 242/242/421 582/582/421
f 567/567/421 582/582/421 591/591/421
f 567/567/422 591/591/422 571/571/422
f 567/567/422 571/571/422 228/228/422
f 191/191/423 592/592/423 593/593/423
f 191/191/423 593/593/423 188/188/423
f 568/568/424 188/188/424 593/593/424
f 568/568/424 593/593/424 594/594/424
f 568/568/425 594/594/425 587/587/425
f 568/568/425 587/587/425 178/178/425
f 574/574/426 595/595/426 288/288/426
f 574/574/426 288/288/426 287/287/426
f 575/575/427 234/234/427 436/436/427
f 575/575/427 436/436/427 596/596/427
f 586/586/428 597/597/428 294/294/428
f 586/586/428 294/294/428 293/293/428
f 583/583/429 259/259/429 423/423/429
f 583/583/429 423/423/429 598/598/429
f 572/572/430 599/599/430 298/298/430
f 572/572/430 298/298/430 297/297/430
f 581/581/431 245/245/431 409/409/431
f 581/581/431 409/409/431 600/600/431
f 588/588/432 601/601/432 602/602/432
f 588/588/432 602/602/432 569/569/432
f 592/592/433 191/191/433 392/392/433
f 592/592/433 392/392/433 603/603/433
f 604/604/434 341/341/434 340/340/434
f 604/604/434 340/340/434 605/605/434
f 606/606/435 405/405/435 404/404/435
f 606/606/435 404/404/435 389/389/435
f 334/334/436 607/607/436 608/608/436
f 334/334/436 608/608/436 609/609/436
f 419/419/437 418/418/437 302/302/437
f 419/419/437 302/302/437 610/610/437
f 404/404/438 611/611/438 390/390/438
f 404/404/438 390/390/438 389/389/438
f 608/608/439 612/612/439 579/579/439
f 608/608/439 579/579/439 609/609/439
f 302/302/440 305/305/440 613/613/440
f 302/302/440 613/613/440 610/610/440
f 605/605/441 340/340/441 434/434/441
f 605/605/441 434/434/441 614/614/441
f 405/405/442 606/606/442 615/615/442
f 405/405/442 615/615/442 406/406/442
f 616/616/443 617/617/443 618/618/443
f 616/616/443 618/618/443 619/619/443
f 302/302/444 418/418/444 421/421/444
f 302/302/444 421/421/444 303/303/444
f 620/620/445 621/621/445 605/605/445
f 620/620/445 605/605/445 614/614/445
f 607/607/446 334/334/446 333/333/446
f 607/607/446 333/333/446 622/622/446
f 608/608/447 623/623/447 624/624/447
f 608/608/447 624/624/447 612/612/447
f 625/625/448 626/626/448 627/627/448
f 625/625/448 627/627/448 628/628/448
f 434/434/449 433/433/449 629/629/449
f 434/434/449 629/629/449 614/614/449
f 608/608/450 607/607/450 622/622/450
f 608/608/450 622/622/450 623/623/450
f 387/387/451 390/390/451 630/630/451
f 387/387/451 630/630/451 631/631/451
f 612/612/452 624/624/452 580/580/452
f 612/612/452 580/580/452 579/579/452
f 611/611/453 632/632/453 630/630/453
f 611/611/453 630/630/453 390/390/453
f 305/305/454 304/304/454 633/633/454
f 305/305/454 633/633/454 613/613/454
f 578/578/455 634/634/455 609/609/455
f 578/578/455 609/609/455 579/579/455
f 404/404/456 407/407/456 632/632/456
f 404/404/456 632/632/456 611/611/456
f 341/341/457 604/604/457 635/635/457
f 341/341/457 635/635/457 342/342/457
f 636/636/458 336/336/458 339/339/458
f 636/636/458 339/339/458 637/637/458
f 387/387/459 616/616/459 619/619/459
f 387/387/459 619/619/459 388/388/459
f 620/620/460 625/625/460 628/628/460
f 620/620/460 628/628/460 621/621/460
f 578/578/461 638/638/461 639/639/461
f 578/578/461 639/639/461 634/634/461
f 640/640/462 388/388/462 619/619/462
f 640/640/462 619/619/462 641/641/462
f 335/335/463 634/634/463 639/639/463
f 335/335/463 639/639/463 642/642/463
f 643/643/464 637/637/464 339/339/464
f 643/643/464 339/339/464 644/644/464
f 645/645/465 621/621/465 628/628/465
f 645/645/465 628/628/465 646/646/465
f 636/636/466 637/637/466 610/610/466
f 636/636/466 610/610/466 613/613/466
f 636/636/467 613/613/467 633/633/467
f 636/636/467 633/633/467 647/647/467
f 638/638/468 648/648/468 649/649/468
f 638/638/468 649/649/468 639/639/468
f 641/641/469 619/619/469 618/618/469
f 641/641/469 618/618/469 650/650/469
f 651/651/470 420/420/470 419/419/470
f 651/651/470 419/419/470 643/643/470
f 640/640/471 606/606/471 389/389/471
f 640/640/471 389/389/471 388/388/471
f 642/642/472 639/639/472 649/649/472
f 642/642/472 649/649/472 652/652/472
f 335/335/473 334/334/473 609/609/473
f 335/335/473 609/609/473 634/634/473
f 620/620/474 614/614/474 629/629/474
f 620/620/474 629/629/474 653/653/474
f 640/640/475 654/654/475 615/615/475
f 640/640/475 615/615/475 606/606/475
f 644/644/476 339/339/476 338/338/476
f 644/644/476 338/338/476 655/655/476
f 643/643/477 419/419/477 610/610/477
f 643/643/477 610/610/477 637/637/477
f 656/656/478 635/635/478 604/604/478
f 656/656/478 604/604/478 645/645/478
f 646/646/479 628/628/479 627/627/479
f 646/646/479 627/627/479 657/657/479
f 658/658/480 550/550/480 549/549/480
f 658/658/480 549/549/480 659/659/480
f 645/645/481 604/604/481 605/605/481
f 645/645/481 605/605/481 621/621/481
f 562/562/482 660/660/482 661/661/482
f 562/562/482 661/661/482 487/487/482
f 488/488/483 487/487/483 661/661/483
f 488/488/483 661/661/483 662/662/483
f 563/563/484 377/377/484 663/663/484
f 563/563/484 663/663/484 664/664/484
f 561/561/485 665/665/485 660/660/485
f 561/561/485 660/660/485 562/562/485
f 378/378/486 666/666/486 663/663/486
f 378/378/486 663/663/486 377/377/486
f 564/564/487 563/563/487 664/664/487
f 564/564/487 664/664/487 667/667/487
f 550/550/488 658/658/488 147/147/488
f 550/550/488 147/147/488 668/668/488
f 147/147/489 146/146/489 669/669/489
f 147/147/489 669/669/489 668/668/489
f 147/147/490 658/658/490 659/659/490
f 147/147/490 659/659/490 148/148/490
f 670/670/491 671/671/491 672/672/491
f 670/670/491 672/672/491 673/673/491
f 146/146/492 149/149/492 674/674/492
f 146/146/492 674/674/492 669/669/492
f 675/675/493 534/534/493 536/536/493
f 675/675/493 536/536/493 676/676/493
f 677/677/494 670/670/494 673/673/494
f 677/677/494 673/673/494 678/678/494
f 547/547/495 678/678/495 673/673/495
f 547/547/495 673/673/495 679/679/495
f 677/677/496 669/669/496 674/674/496
f 677/677/496 674/674/496 680/680/496
f 547/547/497 550/550/497 668/668/497
f 547/547/497 668/668/497 678/678/497
f 679/679/498 673/673/498 672/672/498
f 679/679/498 672/672/498 681/681/498
f 677/677/499 678/678/499 668/668/499
f 677/677/499 668/668/499 669/669/499
f 682/682/500 683/683/500 511/511/500
f 682/682/500 511/511/500 510/510/500
f 427/427/501 683/683/501 682/682/501
f 427/427/501 682/682/501 448/448/501
f 684/684/502 685/685/502 686/686/502
f 684/684/502 686/686/502 687/687/502
f 530/530/503 529/529/503 685/685/503
f 530/530/503 685/685/503 684/684/503
f 688/688/504 689/689/504 527/527/504
f 688/688/504 527/527/504 414/414/504
f 454/454/505 455/455/505 689/689/505
f 454/454/505 689/689/505 688/688/505
f 690/690/506 691/691/506 60/60/506
f 690/690/506 60/60/506 59/59/506
f 399/399/507 400/400/507 691/691/507
f 399/399/507 691/691/507 690/690/507
f 692/692/508 693/693/508 437/437/508
f 692/692/508 437/437/508 431/431/508
f 694/694/509 410/410/509 402/402/509
f 694/694/509 402/402/509 695/695/509
f 193/193/510 192/192/511 696/696/510
f 193/193/510 696/696/510 697/697/511
f 698/698/512 180/180/512 183/183/512
f 698/698/512 183/183/512 699/699/512
f 700/700/513 441/441/513 443/443/513
f 700/700/513 443/443/513 701/701/513
f 702/702/514 205/205/514 204/204/514
f 702/702/514 204/204/514 703/703/514
f 509/509/515 704/704/515 705/705/515
f 509/509/515 705/705/515 510/510/515
f 706/706/516 278/278/516 280/280/516
f 706/706/516 280/280/516 707/707/516
f 204/204/517 207/207/517 708/708/517
f 204/204/517 708/708/517 709/709/517
f 471/471/518 447/447/518 446/446/518
f 471/471/518 446/446/518 541/541/518
f 689/689/519 684/684/519 710/710/519
f 689/689/519 710/710/519 711/711/519
f 481/481/520 480/480/520 684/684/520
f 481/481/520 684/684/520 689/689/520
f 712/712/521 280/280/521 351/351/521
f 712/712/521 351/351/521 713/713/521
f 192/192/522 205/205/522 714/714/522
f 192/192/522 714/714/522 715/715/522
f 691/691/523 688/688/523 414/414/523
f 691/691/523 414/414/523 413/413/523
f 454/454/524 688/688/524 691/691/524
f 454/454/524 691/691/524 524/524/524
f 716/716/525 717/717/525 402/402/525
f 716/716/525 402/402/525 403/403/525
f 348/348/526 193/193/526 718/718/526
f 348/348/526 718/718/526 719/719/526
f 683/683/527 690/690/527 67/67/527
f 683/683/527 67/67/527 66/66/527
f 428/428/528 690/690/528 683/683/528
f 428/428/528 683/683/528 427/427/528
f 720/720/529 721/721/529 183/183/529
f 720/720/529 183/183/529 424/424/529
f 213/213/530 722/722/530 723/723/530
f 213/213/530 723/723/530 349/349/530
f 724/724/531 431/431/531 432/432/531
f 724/724/531 432/432/531 725/725/531
f 534/534/532 726/726/532 727/727/532
f 534/534/532 727/727/532 535/535/532
f 728/728/533 729/729/533 62/62/533
f 728/728/533 62/62/533 61/61/533
f 686/686/534 730/730/534 731/731/534
f 686/686/534 731/731/534 207/207/534
f 206/206/535 687/687/535 686/686/535
f 206/206/535 686/686/535 207/207/535
f 569/569/536 602/602/536 732/732/536
f 569/569/536 732/732/536 570/570/536
f 272/272/537 263/263/537 262/262/537
f 272/272/537 262/262/537 273/273/537
f 526/526/538 120/120/538 12/12/538
f 526/526/538 12/12/538 539/539/538
f 382/382/539 314/314/539 313/313/539
f 382/382/539 313/313/539 383/383/539
f 212/212/540 733/733/540 734/734/540
f 212/212/540 734/734/540 213/213/540
f 735/735/541 736/736/541 417/417/541
f 735/735/541 417/417/541 278/278/541
f 195/195/542 711/711/542 710/710/542
f 195/195/542 710/710/542 206/206/542
f 380/380/543 271/271/543 377/377/543
f 380/380/543 377/377/543 301/301/543
# Vertices: 736, normals: 543, texture coordinates: 736, faces: 1072

