{"accessors":[{"bufferView":0,"componentType":5126,"count":11484,"max":[5.132296085357666,5.396774768829346,22.342273712158203],"min":[-1.6328649520874023,3.5345358848571777,1.2037769556045532],"normalized":false,"type":"VEC3"},{"bufferView":1,"componentType":5126,"count":11484,"max":[1.0,0.49523159861564636,1.0,-1.0],"min":[-1.0,-0.4939810335636139,-1.0,-1.0],"normalized":false,"type":"VEC4"},{"bufferView":2,"componentType":5126,"count":11484,"max":[0.9929955005645752,0.999984085559845,0.9939857721328735],"min":[-1.0,-0.9998114705085754,-0.9822660088539124],"normalized":false,"type":"VEC3"},{"bufferView":3,"componentType":5126,"count":11484,"max":[0.8811560273170471,0.7867749929428101],"min":[-0.897229015827179,-0.7935559749603271],"normalized":false,"type":"VEC2"},{"bufferView":4,"componentType":5123,"count":11484,"max":[11483],"min":[0],"normalized":false,"type":"SCALAR"},{"bufferView":5,"componentType":5126,"count":96,"max":[5.417872428894043,3.671597957611084,-1.3044710159301758],"min":[1.4005529880523682,2.39524507522583,-1.5667270421981812],"normalized":false,"type":"VEC3"},{"bufferView":6,"componentType":5126,"count":96,"max":[-0.9951179623603821,6.587989628314972e-05,-0.035310205072164536,-1.0],"min":[-0.9993763566017151,-4.5006163418293e-06,-0.09869300574064255,-1.0],"normalized":false,"type":"VEC4"},{"bufferView":7,"componentType":5126,"count":96,"max":[0.09713747352361679,0.1814984381198883,-0.9791500568389893],"min":[0.034786418080329895,0.14721858501434326,-0.9880422353744507],"normalized":false,"type":"VEC3"},{"bufferView":8,"componentType":5126,"count":96,"max":[0.8927140235900879,0.3474940061569214],"min":[-0.041887473315000534,-0.34012365341186523],"normalized":false,"type":"VEC2"},{"bufferView":9,"componentType":5121,"count":96,"max":[95],"min":[0],"normalized":false,"type":"SCALAR"},{"bufferView":10,"componentType":5126,"count":240,"max":[1.3698041439056396,3.776884078979492,-1.3539119958877563],"min":[-2.4371869564056396,2.3949170112609863,-1.6054450273513794],"normalized":false,"type":"VEC3"},{"bufferView":11,"componentType":5126,"count":240,"max":[-0.9889967441558838,0.0001310358347836882,0.14793716371059418,-1.0],"min":[-1.0,-7.215973164420575e-05,-0.014705396257340908,-1.0],"normalized":false,"type":"VEC4"},{"bufferView":12,"componentType":5126,"count":240,"max":[0.014558075927197933,0.19161467254161835,-0.9718222618103027],"min":[-0.14537759125232697,0.13664263486862183,-0.9906103014945984],"normalized":false,"type":"VEC3"},{"bufferView":13,"componentType":5126,"count":240,"max":[0.7594220042228699,0.3650130033493042],"min":[-0.21661517024040222,-0.3589642643928528],"normalized":false,"type":"VEC2"},{"bufferView":14,"componentType":5121,"count":240,"max":[239],"min":[0],"normalized":false,"type":"SCALAR"},{"bufferView":15,"componentType":5126,"count":96,"max":[5.417872428894043,3.671597957611084,1.829848051071167],"min":[1.4005529880523682,2.39524507522583,1.5675920248031616],"normalized":false,"type":"VEC3"},{"bufferView":16,"componentType":5126,"count":96,"max":[0.9993753433227539,3.796536475419998e-06,-0.03533988073468208,-1.0],"min":[0.9951069951057434,-6.921123713254929e-06,-0.09880326688289642,-1.0],"normalized":false,"type":"VEC4"},{"bufferView":17,"componentType":5126,"count":96,"max":[0.097242072224617,0.181570902466774,0.9880349040031433],"min":[0.0348147489130497,0.14724940061569214,0.9791299700737],"normalized":false,"type":"VEC3"},{"bufferView":18,"componentType":5126,"count":96,"max":[0.8175839781761169,0.012691629119217396],"min":[-0.646195113658905,-0.35139200091362],"normalized":false,"type":"VEC2"},{"bufferView":19,"componentType":5126,"count":240,"max":[1.3698041439056396,3.776884078979492,1.8685660362243652],"min":[-2.4371869564056396,2.3949170112609863,1.6170320510864258],"normalized":false,"type":"VEC3"},{"bufferView":20,"componentType":5126,"count":240,"max":[1.0,5.947425961494446e-06,0.14804254472255707,-1.0],"min":[0.9889810085296631,-1.6763806343078613e-05,-0.014798864722251892,-1.0],"normalized":false,"type":"VEC4"},{"bufferView":21,"componentType":5126,"count":240,"max":[0.014650948345661163,0.1915619671344757,0.9906098246574402],"min":[-0.14547239243984222,0.13664548099040985,0.9718142747879028],"normalized":false,"type":"VEC3"},{"bufferView":22,"componentType":5126,"count":240,"max":[0.6992999911308289,-5.569656423176639e-06],"min":[-0.6555076837539673,-0.3650130033493042],"normalized":false,"type":"VEC2"},{"bufferView":23,"componentType":5126,"count":648,"max":[6.41457986831665,4.158967018127441,1.1750248670578003],"min":[3.5539939403533936,2.6694839000701904,-0.911903977394104],"normalized":false,"type":"VEC3"},{"bufferView":24,"componentType":5126,"count":648,"max":[0.5084241628646851,0.20204636454582214,0.9999585151672363,-1.0],"min":[-0.5085867643356323,-0.20222601294517517,-0.9549630284309387,-1.0],"normalized":false,"type":"VEC4"},{"bufferView":25,"componentType":5126,"count":648,"max":[0.4818495512008667,0.9317446947097778,0.27562323212623596],"min":[0.3627356290817261,0.8403476476669312,-0.2756515145301819],"normalized":false,"type":"VEC3"},{"bufferView":26,"componentType":5126,"count":648,"max":[0.2171339988708496,0.5868160128593445],"min":[-0.1357671469449997,-0.5850967764854431],"normalized":false,"type":"VEC2"},{"bufferView":27,"componentType":5123,"count":648,"max":[647],"min":[0],"normalized":false,"type":"SCALAR"},{"bufferView":28,"componentType":5126,"count":864,"max":[-1.4167879819869995,4.445373058319092,1.4443389177322388],"min":[-3.251167058944702,2.747967004776001,-1.1812180280685425],"normalized":false,"type":"VEC3"},{"bufferView":29,"componentType":5126,"count":864,"max":[0.7382655143737793,2.9295682907104492e-05,0.9999129176139832,-1.0],"min":[-0.7383575439453125,-0.00015112757682800293,0.6744093894958496,-1.0],"normalized":false,"type":"VEC4"},{"bufferView":30,"componentType":5126,"count":864,"max":[-0.5740143060684204,0.8161158561706543,0.6283761262893677],"min":[-0.6576712727546692,0.5249423384666443,-0.628408670425415],"normalized":false,"type":"VEC3"},{"bufferView":31,"componentType":5126,"count":864,"max":[0.29048553109169006,0.4365963935852051],"min":[-0.3019680082798004,-0.43670299649238586],"normalized":false,"type":"VEC2"},{"bufferView":32,"componentType":5123,"count":864,"max":[863],"min":[0],"normalized":false,"type":"SCALAR"},{"bufferView":33,"componentType":5126,"count":41076,"max":[0.18602398037910461,4.485935211181641,-2.4900264739990234],"min":[-0.4013729989528656,-0.48792099952697754,-11.922286987304688],"normalized":false,"type":"VEC3"},{"bufferView":34,"componentType":5126,"count":41076,"max":[0.9999696016311646,0.47698068618774414,0.9999998211860657,-1.0],"min":[-0.9999753832817078,-0.4820685088634491,-0.9999988079071045,-1.0],"normalized":false,"type":"VEC4"},{"bufferView":35,"componentType":5126,"count":41076,"max":[0.999274492263794,0.9999850392341614,0.8857142925262451],"min":[-0.9992740154266357,-0.9998933672904968,-0.8857747912406921],"normalized":false,"type":"VEC3"},{"bufferView":36,"componentType":5126,"count":41076,"max":[0.2743990123271942,0.20776665210723877],"min":[-0.2743990123271942,-0.20777300000190735],"normalized":false,"type":"VEC2"},{"bufferView":37,"componentType":5123,"count":41076,"max":[41075],"min":[0],"normalized":false,"type":"SCALAR"},{"bufferView":38,"componentType":5126,"count":41076,"max":[0.18601498007774353,4.488190174102783,11.910905838012695],"min":[-0.4013809859752655,-0.751475989818573,2.628166913986206],"normalized":false,"type":"VEC3"},{"bufferView":39,"componentType":5126,"count":41076,"max":[0.9999744296073914,0.49135932326316833,1.0,-1.0],"min":[-0.9999687075614929,-0.498830646276474,-1.0000001192092896,-1.0],"normalized":false,"type":"VEC4"},{"bufferView":40,"componentType":5126,"count":41076,"max":[0.9992700815200806,1.0,0.870963990688324],"min":[-0.9992719888687134,-0.9999984502792358,-0.89291912317276],"normalized":false,"type":"VEC3"},{"bufferView":41,"componentType":5126,"count":41076,"max":[0.2743886113166809,0.20777200162410736],"min":[-0.27439698576927185,-0.20777200162410736],"normalized":false,"type":"VEC2"},{"bufferView":42,"componentType":5126,"count":3828,"max":[-5.095166206359863,-2.956278085708618,0.2105030119419098],"min":[-6.723848819732666,-4.5849609375,-0.36139699816703796],"normalized":false,"type":"VEC3"},{"bufferView":43,"componentType":5126,"count":3828,"max":[1.0,0.21301957964897156,1.0000001192092896,-1.0],"min":[-1.0,-0.21292102336883545,-1.0000001192092896,-1.0],"normalized":false,"type":"VEC4"},{"bufferView":44,"componentType":5126,"count":3828,"max":[0.9951880574226379,0.9951916337013245,1.0],"min":[-0.9951844215393066,-0.9951877593994141,-1.0],"normalized":false,"type":"VEC3"},{"bufferView":45,"componentType":5126,"count":3828,"max":[0.17325399816036224,0.5360509753227234],"min":[-0.17325399816036224,-0.5360509753227234],"normalized":false,"type":"VEC2"},{"bufferView":46,"componentType":5123,"count":3828,"max":[3827],"min":[0],"normalized":false,"type":"SCALAR"},{"bufferView":47,"componentType":5126,"count":10536,"max":[-3.839582920074463,-1.5312860012054443,0.3765909671783447],"min":[-7.576097011566162,-3.7610340118408203,-0.538910984992981],"normalized":false,"type":"VEC3"},{"bufferView":48,"componentType":5126,"count":10536,"max":[1.0,0.4794321358203888,1.0000001192092896,-1.0],"min":[-1.0,-0.4744216799736023,-1.0000001192092896,-1.0],"normalized":false,"type":"VEC4"},{"bufferView":49,"componentType":5126,"count":10536,"max":[0.9994198679924011,1.0,1.0],"min":[-0.9996005296707153,-0.999850332736969,-1.0],"normalized":false,"type":"VEC3"},{"bufferView":50,"componentType":5126,"count":10536,"max":[0.24839280545711517,0.3513309955596924],"min":[-0.24866600334644318,-0.22223889827728271],"normalized":false,"type":"VEC2"},{"bufferView":51,"componentType":5123,"count":10536,"max":[10535],"min":[0],"normalized":false,"type":"SCALAR"},{"bufferView":52,"componentType":5126,"count":2202,"max":[-9.19560718536377,1.551671028137207,0.7034410238265991],"min":[-10.464929580688477,0.6964030265808105,-0.4403199851512909],"normalized":false,"type":"VEC3"},{"bufferView":53,"componentType":5126,"count":2202,"max":[0.9224364757537842,0.39995017647743225,1.0,-1.0],"min":[-0.9253981709480286,-0.40003183484077454,-0.999829113483429,-1.0],"normalized":false,"type":"VEC4"},{"bufferView":54,"componentType":5126,"count":2202,"max":[0.9654694199562073,0.9632893204689026,0.9162551164627075],"min":[-1.0,-0.9460207223892212,-0.9194318652153015],"normalized":false,"type":"VEC3"},{"bufferView":55,"componentType":5126,"count":2202,"max":[0.3166837692260742,0.25582659244537354],"min":[-0.31783801317214966,-0.31020399928092957],"normalized":false,"type":"VEC2"},{"bufferView":56,"componentType":5123,"count":2202,"max":[2201],"min":[0],"normalized":false,"type":"SCALAR"},{"bufferView":57,"componentType":5126,"count":258,"max":[20.051847457885742,0.6993659734725952,-0.43660300970077515],"min":[19.06058120727539,0.19763800501823425,-0.5668020248413086],"normalized":false,"type":"VEC3"},{"bufferView":58,"componentType":5126,"count":258,"max":[-0.9905965924263,8.106045424938202e-05,-0.12576256692409515,-1.0],"min":[-0.9920604228973389,-1.108366996049881e-05,-0.13681481778621674,-1.0],"normalized":false,"type":"VEC4"},{"bufferView":59,"componentType":5126,"count":258,"max":[0.1332758516073227,0.26217830181121826,-0.9559425711631775],"min":[0.12369780987501144,-0.24409997463226318,-0.9918344020843506],"normalized":false,"type":"VEC3"},{"bufferView":60,"componentType":5126,"count":258,"max":[0.6320908069610596,0.04979399964213371],"min":[-0.7044550180435181,-0.021848270669579506],"normalized":false,"type":"VEC2"},{"bufferView":61,"componentType":5123,"count":258,"max":[257],"min":[0],"normalized":false,"type":"SCALAR"},{"bufferView":62,"componentType":5126,"count":168474,"max":[7.49178409576416,4.648197174072266,1.983342170715332],"min":[-4.021265983581543,1.6471489667892456,-1.720221996307373],"normalized":false,"type":"VEC3"},{"bufferView":63,"componentType":5126,"count":168474,"max":[1.0,0.49737775325775146,1.0000001192092896,-1.0],"min":[-1.0,-0.4974864721298218,-1.000000238418579,-1.0],"normalized":false,"type":"VEC4"},{"bufferView":64,"componentType":5126,"count":168474,"max":[0.999864935874939,0.9999993443489075,0.9992884993553162],"min":[-0.9999041557312012,-1.0,-0.9992926120758057],"normalized":false,"type":"VEC3"},{"bufferView":65,"componentType":5126,"count":168474,"max":[0.2728840112686157,0.2217094600200653],"min":[-0.2608668804168701,-0.22199399769306183],"normalized":false,"type":"VEC2"},{"bufferView":66,"componentType":5125,"count":168474,"max":[168473],"min":[0],"normalized":false,"type":"SCALAR"},{"bufferView":67,"componentType":5126,"count":7530,"max":[23.617746353149414,8.104984283447266,0.699865996837616],"min":[9.518376350402832,0.7013959884643555,-0.4052630066871643],"normalized":false,"type":"VEC3"},{"bufferView":68,"componentType":5126,"count":7530,"max":[1.0,0.4903542995452881,1.0,-1.0],"min":[-1.0,-0.4665758013725281,-0.9997894763946533,-1.0],"normalized":false,"type":"VEC4"},{"bufferView":69,"componentType":5126,"count":7530,"max":[0.9639889001846313,1.0,0.9999995231628418],"min":[-0.775756299495697,-0.26536276936531067,-0.9999945759773254],"normalized":false,"type":"VEC3"},{"bufferView":70,"componentType":5126,"count":7530,"max":[1.0207618474960327,0.47475466132164],"min":[-1.0491950511932373,-0.4903939962387085],"normalized":false,"type":"VEC2"},{"bufferView":71,"componentType":5123,"count":7530,"max":[7529],"min":[0],"normalized":false,"type":"SCALAR"},{"bufferView":72,"componentType":5126,"count":10368,"max":[3.1921050548553467,-0.7196469902992249,-2.0248970985412598],"min":[0.7327060103416443,-1.331102967262268,-2.6481950283050537],"normalized":false,"type":"VEC3"},{"bufferView":73,"componentType":5126,"count":10368,"max":[1.0,0.4930914342403412,0.9999499320983887,-1.0],"min":[-1.0,-0.4979569613933563,-1.0,-1.0],"normalized":false,"type":"VEC4"},{"bufferView":74,"componentType":5126,"count":10368,"max":[0.9998815655708313,0.985494077205658,0.9430477619171143],"min":[-0.9998764991760254,-0.9986585378646851,-0.9999380111694336],"normalized":false,"type":"VEC3"},{"bufferView":75,"componentType":5126,"count":10368,"max":[0.2897351086139679,0.12352199852466583],"min":[-0.2994399964809418,-0.12119989097118378],"normalized":false,"type":"VEC2"},{"bufferView":76,"componentType":5123,"count":10368,"max":[10367],"min":[0],"normalized":false,"type":"SCALAR"},{"bufferView":77,"componentType":5126,"count":9168,"max":[4.26641321182251,-0.7146799564361572,-2.1188299655914307],"min":[0.28943198919296265,-4.208402156829834,-4.292691230773926],"normalized":false,"type":"VEC3"},{"bufferView":78,"componentType":5126,"count":9168,"max":[1.0,0.475749671459198,1.0,-1.0],"min":[-1.0,-0.42489153146743774,-1.0000001192092896,-1.0],"normalized":false,"type":"VEC4"},{"bufferView":79,"componentType":5126,"count":9168,"max":[0.9999097585678101,0.9999321699142456,0.999992847442627],"min":[-0.9965028762817383,-0.9998503923416138,-0.9999961853027344],"normalized":false,"type":"VEC3"},{"bufferView":80,"componentType":5126,"count":9168,"max":[0.24756799638271332,0.36130180954933167],"min":[-0.2464044839143753,-0.36284101009368896],"normalized":false,"type":"VEC2"},{"bufferView":81,"componentType":5123,"count":9168,"max":[9167],"min":[0],"normalized":false,"type":"SCALAR"},{"bufferView":82,"componentType":5126,"count":10368,"max":[3.192106008529663,-0.7196469902992249,2.8731839656829834],"min":[0.7327060103416443,-1.331102967262268,2.249886989593506],"normalized":false,"type":"VEC3"},{"bufferView":83,"componentType":5126,"count":10368,"max":[1.0,0.4982176423072815,0.999950647354126,-1.0],"min":[-1.0,-0.49286895990371704,-1.0,-1.0],"normalized":false,"type":"VEC4"},{"bufferView":84,"componentType":5126,"count":10368,"max":[0.9998806715011597,0.9854748249053955,0.9999376535415649],"min":[-0.9998767971992493,-0.9986487627029419,-0.943081796169281],"normalized":false,"type":"VEC3"},{"bufferView":85,"componentType":5126,"count":10368,"max":[0.2994399964809418,0.1229882687330246],"min":[-0.29827943444252014,-0.12351600080728531],"normalized":false,"type":"VEC2"},{"bufferView":86,"componentType":5126,"count":3828,"max":[2.735905885696411,-3.1543779373168945,4.418700218200684],"min":[1.1072219610214233,-4.783061981201172,3.846798896789551],"normalized":false,"type":"VEC3"},{"bufferView":87,"componentType":5126,"count":3828,"max":[1.0,0.21301957964897156,1.0000001192092896,-1.0],"min":[-1.0,-0.21292102336883545,-1.0000001192092896,-1.0],"normalized":false,"type":"VEC4"},{"bufferView":88,"componentType":5126,"count":3828,"max":[0.9951880574226379,0.9951916337013245,1.0],"min":[-0.9951844215393066,-0.9951877593994141,-1.0],"normalized":false,"type":"VEC3"},{"bufferView":89,"componentType":5126,"count":3828,"max":[0.17325399816036224,0.5360509753227234],"min":[-0.17325399816036224,-0.5309141874313354],"normalized":false,"type":"VEC2"},{"bufferView":90,"componentType":5126,"count":9168,"max":[4.266414165496826,-0.7146799564361572,4.517681121826172],"min":[0.28943300247192383,-4.208402156829834,2.343820095062256],"normalized":false,"type":"VEC3"},{"bufferView":91,"componentType":5126,"count":9168,"max":[1.0,0.42483460903167725,1.0000001192092896,-1.0],"min":[-1.0,-0.47555404901504517,-1.0000001192092896,-1.0],"normalized":false,"type":"VEC4"},{"bufferView":92,"componentType":5126,"count":9168,"max":[0.9999097585678101,0.9999321699142456,0.9999960064888],"min":[-0.9965036511421204,-0.9998513460159302,-0.9999932050704956],"normalized":false,"type":"VEC3"},{"bufferView":93,"componentType":5126,"count":9168,"max":[0.24625533819198608,0.36284101009368896],"min":[-0.24731199443340302,-0.2926701307296753],"normalized":false,"type":"VEC2"},{"bufferView":94,"componentType":5126,"count":53604,"max":[22.50186538696289,0.9349139928817749,7.065209865570068],"min":[16.952560424804688,0.1577180027961731,-6.85961389541626],"normalized":false,"type":"VEC3"},{"bufferView":95,"componentType":5126,"count":53604,"max":[1.0,0.4988567531108856,1.000000238418579,-1.0],"min":[-1.0,-0.4986906349658966,-1.0000001192092896,-1.0],"normalized":false,"type":"VEC4"},{"bufferView":96,"componentType":5126,"count":53604,"max":[0.9925640225410461,0.9999096393585205,1.0],"min":[-0.9991025924682617,-0.9991477727890015,-0.9914538860321045],"normalized":false,"type":"VEC3"},{"bufferView":97,"componentType":5126,"count":53604,"max":[0.46546000242233276,0.10750079154968262],"min":[-0.46546000242233276,-0.1265300065279007],"normalized":false,"type":"VEC2"},{"bufferView":98,"componentType":5123,"count":53604,"max":[53603],"min":[0],"normalized":false,"type":"SCALAR"},{"bufferView":99,"componentType":5126,"count":11670,"max":[5.132296085357666,5.396774768829346,-0.9406566619873047],"min":[-1.6328649520874023,3.5345358848571777,-22.079153060913086],"normalized":false,"type":"VEC3"},{"bufferView":100,"componentType":5126,"count":11670,"max":[1.0,0.4938194751739502,1.0,-1.0],"min":[-1.0,-0.4951048493385315,-1.0,-1.0],"normalized":false,"type":"VEC4"},{"bufferView":101,"componentType":5126,"count":11670,"max":[0.9930002093315125,0.999984622001648,0.9822432398796082],"min":[-1.0,-0.9998152256011963,-0.9939874410629272],"normalized":false,"type":"VEC3"},{"bufferView":102,"componentType":5126,"count":11670,"max":[0.8973289728164673,0.7931879758834839],"min":[-0.8813910484313965,-0.7920987010002136],"normalized":false,"type":"VEC2"},{"bufferView":103,"componentType":5123,"count":11670,"max":[11669],"min":[0],"normalized":false,"type":"SCALAR"},{"bufferView":104,"componentType":5126,"count":2109,"max":[22.889070510864258,1.2023240327835083,0.39494502544403076],"min":[20.03225326538086,0.8304380178451538,-0.14115799963474274],"normalized":false,"type":"VEC3"},{"bufferView":105,"componentType":5126,"count":2109,"max":[0.9994003176689148,0.49919256567955017,0.9931924343109131,-1.0],"min":[-0.9994022846221924,-0.4992605745792389,-0.16898000240325928,-1.0],"normalized":false,"type":"VEC4"},{"bufferView":106,"componentType":5126,"count":2109,"max":[0.08939806371927261,0.9926380515098572,0.902716338634491],"min":[0.019494058564305305,0.4258371889591217,-0.9027577638626099],"normalized":false,"type":"VEC3"},{"bufferView":107,"componentType":5126,"count":2109,"max":[0.37687942385673523,0.4825649857521057],"min":[-0.4801569879055023,-0.3808313012123108],"normalized":false,"type":"VEC2"},{"bufferView":108,"componentType":5123,"count":2109,"max":[2108],"min":[0],"normalized":false,"type":"SCALAR"},{"bufferView":109,"componentType":5126,"count":90444,"max":[23.36414337158203,2.5222818851470947,3.0233256816864014],"min":[-9.216631889343262,-2.7268450260162354,-2.7695400714874268],"normalized":false,"type":"VEC3"},{"bufferView":110,"componentType":5126,"count":90444,"max":[1.0,0.4991176426410675,1.0,1.0],"min":[-1.0,-0.49922603368759155,-1.0000001192092896,-1.0],"normalized":false,"type":"VEC4"},{"bufferView":111,"componentType":5126,"count":90444,"max":[1.0,0.9993487596511841,0.9999449253082275],"min":[-1.0,-0.9999387860298157,-0.9999464750289917],"normalized":false,"type":"VEC3"},{"bufferView":112,"componentType":5126,"count":90444,"max":[1.1509219408035278,1.137550950050354],"min":[-1.1509219408035278,-1.137550950050354],"normalized":false,"type":"VEC2"},{"bufferView":113,"componentType":5125,"count":90444,"max":[90443],"min":[0],"normalized":false,"type":"SCALAR"},{"bufferView":114,"componentType":5126,"count":1314,"max":[1.5240000486373901,4.140200138092041,6.4770002365112305],"min":[-0.2199700027704239,3.454400062561035,6.2230000495910645],"normalized":false,"type":"VEC3"},{"bufferView":115,"componentType":5126,"count":1314,"max":[1.0,1.0,1.0,1.0],"min":[-1.0,-1.0000001192092896,-0.9999620914459229,-1.0],"normalized":false,"type":"VEC4"},{"bufferView":116,"componentType":5126,"count":1314,"max":[1.0,1.0,1.0],"min":[-1.0,-1.0,-1.0],"normalized":false,"type":"VEC3"},{"bufferView":117,"componentType":5126,"count":1314,"max":[0.5587786436080933,1.5240000486373901],"min":[-1.3969999551773071,-0.3990282416343689],"normalized":false,"type":"VEC2"},{"bufferView":118,"componentType":5123,"count":1314,"max":[1313],"min":[0],"normalized":false,"type":"SCALAR"},{"bufferView":119,"componentType":5126,"count":1212,"max":[0.16123098134994507,4.325376987457275,-8.787933349609375],"min":[-0.516044020652771,3.827552080154419,-9.547887802124023],"normalized":false,"type":"VEC3"},{"bufferView":120,"componentType":5126,"count":1212,"max":[0.9933612942695618,0.999018669128418,0.9986274242401123,-1.0],"min":[-0.8191733956336975,-0.5736082196235657,-0.9980047941207886,-1.0],"normalized":false,"type":"VEC4"},{"bufferView":121,"componentType":5126,"count":1212,"max":[0.9993728995323181,0.9922272562980652,0.9986292719841003],"min":[-0.8191219568252563,-0.8180357217788696,-0.9986264109611511],"normalized":false,"type":"VEC3"},{"bufferView":122,"componentType":5126,"count":1212,"max":[0.41249001026153564,0.38084378838539124],"min":[-0.41249001026153564,-2.1930060386657715],"normalized":false,"type":"VEC2"},{"bufferView":123,"componentType":5123,"count":1212,"max":[1211],"min":[0],"normalized":false,"type":"SCALAR"},{"bufferView":124,"componentType":5126,"count":1434,"max":[0.26863595843315125,4.279445171356201,-7.638296127319336],"min":[-0.49336400628089905,4.177310943603516,-8.398589134216309],"normalized":false,"type":"VEC3"},{"bufferView":125,"componentType":5126,"count":1434,"max":[1.0,0.9999999403953552,0.00011048552551073954,-1.0],"min":[-1.0,-0.9993944764137268,-0.9999999403953552,-1.0],"normalized":false,"type":"VEC4"},{"bufferView":126,"componentType":5126,"count":1434,"max":[1.0,0.9993936419487,0.9993900656700134],"min":[-1.0,-0.9998463988304138,-1.0],"normalized":false,"type":"VEC3"},{"bufferView":127,"componentType":5126,"count":1434,"max":[0.38100001215934753,1.1969469785690308],"min":[-0.38100001215934753,-1.1969469785690308],"normalized":false,"type":"VEC2"},{"bufferView":128,"componentType":5123,"count":1434,"max":[1433],"min":[0],"normalized":false,"type":"SCALAR"},{"bufferView":129,"componentType":5126,"count":792,"max":[-2.060054063796997,1.2733509540557861,2.574726104736328],"min":[-2.821234941482544,0.550620973110199,2.283052921295166],"normalized":false,"type":"VEC3"},{"bufferView":130,"componentType":5126,"count":792,"max":[0.9961952567100525,0.0001112762838602066,0.08719314634799957,-1.0],"min":[-0.9961984157562256,-0.34214600920677185,-0.9361729025840759,-1.0],"normalized":false,"type":"VEC4"},{"bufferView":131,"componentType":5126,"count":792,"max":[0.9961963891983032,0.9396799206733704,0.9360933899879456],"min":[-0.9961961507797241,-0.9397153258323669,-0.9361541867256165],"normalized":false,"type":"VEC3"},{"bufferView":132,"componentType":5126,"count":792,"max":[0.38093581795692444,1.1969469785690308],"min":[-3.835400104522705,-1.1969469785690308],"normalized":false,"type":"VEC2"},{"bufferView":133,"componentType":5123,"count":792,"max":[791],"min":[0],"normalized":false,"type":"SCALAR"},{"bufferView":134,"componentType":5126,"count":2730,"max":[-2.330044984817505,1.3476120233535767,2.5690500736236572],"min":[-2.584657907485962,1.1584210395812988,2.4432759284973145],"normalized":false,"type":"VEC3"},{"bufferView":135,"componentType":5126,"count":2730,"max":[0.9776761531829834,0.9328867793083191,0.33997368812561035,-1.0],"min":[-0.9778252840042114,-0.9340823292732239,-0.3395252227783203,-1.0],"normalized":false,"type":"VEC4"},{"bufferView":136,"componentType":5126,"count":2730,"max":[0.9923850893974304,0.9312384724617004,0.993130087852478],"min":[-0.9935683608055115,-0.9800504446029663,-0.9908506870269775],"normalized":false,"type":"VEC3"},{"bufferView":137,"componentType":5126,"count":2730,"max":[0.1456940919160843,0.08536799997091293],"min":[-0.15812499821186066,-0.0664563849568367],"normalized":false,"type":"VEC2"},{"bufferView":138,"componentType":5123,"count":2730,"max":[2729],"min":[0],"normalized":false,"type":"SCALAR"},{"bufferView":139,"componentType":5126,"count":4860,"max":[-0.12700000405311584,4.711699962615967,-9.163049697875977],"min":[-0.19050000607967377,4.203700065612793,-9.226550102233887],"normalized":false,"type":"VEC3"},{"bufferView":140,"componentType":5126,"count":4860,"max":[0.999737560749054,1.0,1.0,-1.0],"min":[-1.0,-1.0000001192092896,-1.0,-1.0],"normalized":false,"type":"VEC4"},{"bufferView":141,"componentType":5126,"count":4860,"max":[1.0,1.0,1.0],"min":[-1.0,-1.0,-1.0],"normalized":false,"type":"VEC3"},{"bufferView":142,"componentType":5126,"count":4860,"max":[0.08785036206245422,0.16852599382400513],"min":[-0.4632129967212677,-0.09974753856658936],"normalized":false,"type":"VEC2"},{"bufferView":143,"componentType":5123,"count":4860,"max":[4859],"min":[0],"normalized":false,"type":"SCALAR"},{"bufferView":144,"componentType":5126,"count":3828,"max":[2.7359049320220947,-3.711298942565918,-3.6218090057373047],"min":[1.107221007347107,-4.63945198059082,-4.193709850311279],"normalized":false,"type":"VEC3"},{"bufferView":145,"componentType":5126,"count":3828,"max":[1.0,0.39526036381721497,1.0000001192092896,-1.0],"min":[-1.0,-0.39524754881858826,-1.0000001192092896,-1.0],"normalized":false,"type":"VEC4"},{"bufferView":146,"componentType":5126,"count":3828,"max":[0.9853965044021606,0.9984325766563416,1.0],"min":[-0.9853929877281189,-0.9984292387962341,-1.0],"normalized":false,"type":"VEC3"},{"bufferView":147,"componentType":5126,"count":3828,"max":[0.1632540225982666,0.30548399686813354],"min":[-0.16325899958610535,-0.30548399686813354],"normalized":false,"type":"VEC2"},{"bufferView":148,"componentType":5126,"count":1482,"max":[4.848546981811523,5.323526859283447,21.564599990844727],"min":[2.56892991065979,3.9270570278167725,13.440109252929688],"normalized":false,"type":"VEC3"},{"bufferView":149,"componentType":5126,"count":1482,"max":[0.3919891119003296,0.15898746252059937,1.0,-1.0],"min":[-0.007083609700202942,-0.24820372462272644,-1.0,-1.0],"normalized":false,"type":"VEC4"},{"bufferView":150,"componentType":5126,"count":1482,"max":[0.988117516040802,0.9999943971633911,0.24820370972156525],"min":[-0.40050309896469116,-0.9990987777709961,-0.15306076407432556],"normalized":false,"type":"VEC3"},{"bufferView":151,"componentType":5126,"count":1482,"max":[0.8808556199073792,0.346668004989624],"min":[-0.9151520133018494,-0.31373363733291626],"normalized":false,"type":"VEC2"},{"bufferView":152,"componentType":5123,"count":1482,"max":[1481],"min":[0],"normalized":false,"type":"SCALAR"},{"bufferView":153,"componentType":5126,"count":26217,"max":[22.5228271484375,0.7813050150871277,7.102787017822266],"min":[19.06058120727539,0.09780299663543701,0.4873569905757904],"normalized":false,"type":"VEC3"},{"bufferView":154,"componentType":5126,"count":26217,"max":[0.9999909400939941,0.21267670392990112,1.0000001192092896,-1.0],"min":[-0.23857492208480835,-0.4425047039985657,-1.0000001192092896,-1.0],"normalized":false,"type":"VEC4"},{"bufferView":155,"componentType":5126,"count":26217,"max":[0.9999732375144958,0.9999977946281433,0.993240237236023],"min":[-0.13611523807048798,-1.0,-0.21262787282466888],"normalized":false,"type":"VEC3"},{"bufferView":156,"componentType":5126,"count":26217,"max":[0.44827800989151,0.13143399357795715],"min":[-0.4436950087547302,-0.128269225358963],"normalized":false,"type":"VEC2"},{"bufferView":157,"componentType":5123,"count":26217,"max":[26216],"min":[0],"normalized":false,"type":"SCALAR"},{"bufferView":158,"componentType":5126,"count":2112,"max":[-9.12117862701416,4.983316898345947,0.4194960296154022],"min":[-9.500417709350586,1.415550947189331,-0.168954998254776],"normalized":false,"type":"VEC3"},{"bufferView":159,"componentType":5126,"count":2112,"max":[0.9707186818122864,0.00014800205826759338,0.9999710917472839,-1.0],"min":[-0.9707494378089905,-0.0001122206449508667,-0.9999707937240601,-1.0],"normalized":false,"type":"VEC4"},{"bufferView":160,"componentType":5126,"count":2112,"max":[0.9996604323387146,0.7353562712669373,0.9584881067276001],"min":[-0.9996601343154907,-0.34938374161720276,-0.95850670337677],"normalized":false,"type":"VEC3"},{"bufferView":161,"componentType":5126,"count":2112,"max":[0.09105599671602249,0.3648430109024048],"min":[-0.09041408449411392,-0.16949181258678436],"normalized":false,"type":"VEC2"},{"bufferView":162,"componentType":5123,"count":2112,"max":[2111],"min":[0],"normalized":false,"type":"SCALAR"},{"bufferView":163,"componentType":5126,"count":2112,"max":[-9.12117862701416,0.8970649242401123,0.4194960296154022],"min":[-9.500417709350586,-2.6707000732421875,-0.168954998254776],"normalized":false,"type":"VEC3"},{"bufferView":164,"componentType":5126,"count":2112,"max":[0.9707217216491699,0.00018340349197387695,0.9999707937240601,-1.0],"min":[-0.970747709274292,-0.0001296699047088623,-0.999971866607666,-1.0],"normalized":false,"type":"VEC4"},{"bufferView":165,"componentType":5126,"count":2112,"max":[0.999660849571228,0.3493982255458832,0.9584884643554688],"min":[-0.9996585845947266,-0.735354483127594,-0.9585133194923401],"normalized":false,"type":"VEC3"},{"bufferView":166,"componentType":5126,"count":2112,"max":[0.09041130542755127,0.16948065161705017],"min":[-0.09105599671602249,-0.3648430109024048],"normalized":false,"type":"VEC2"},{"bufferView":167,"componentType":5126,"count":1398,"max":[4.841763973236084,5.323762893676758,-13.233400344848633],"min":[2.568861961364746,3.930933952331543,-21.056804656982422],"normalized":false,"type":"VEC3"},{"bufferView":168,"componentType":5126,"count":1398,"max":[0.0068944841623306274,0.1691778302192688,0.9999998807907104,-1.0],"min":[-0.3020956516265869,-0.12357017397880554,-1.0000001192092896,-1.0],"normalized":false,"type":"VEC4"},{"bufferView":169,"componentType":5126,"count":1398,"max":[0.9881114363670349,0.9999943375587463,0.11724147945642471],"min":[-0.400473952293396,-0.9990909695625305,-0.17532171308994293],"normalized":false,"type":"VEC3"},{"bufferView":170,"componentType":5126,"count":1398,"max":[0.9152820110321045,0.34666499495506287],"min":[-0.8798913955688477,-0.31431275606155396],"normalized":false,"type":"VEC2"},{"bufferView":171,"componentType":5123,"count":1398,"max":[1397],"min":[0],"normalized":false,"type":"SCALAR"},{"bufferView":172,"componentType":5126,"count":26676,"max":[22.5228271484375,0.7808250188827515,-0.19440412521362305],"min":[19.06058120727539,0.09780299663543701,-6.897060871124268],"normalized":false,"type":"VEC3"},{"bufferView":173,"componentType":5126,"count":26676,"max":[0.36626356840133667,0.44240087270736694,1.0000001192092896,-1.0],"min":[-0.9999909996986389,-0.23173773288726807,-1.0000001192092896,-1.0],"normalized":false,"type":"VEC4"},{"bufferView":174,"componentType":5126,"count":26676,"max":[0.999973714351654,0.9999974966049194,0.23166534304618835],"min":[-0.14645221829414368,-1.0,-0.9932500720024109],"normalized":false,"type":"VEC3"},{"bufferView":175,"componentType":5126,"count":26676,"max":[0.44827699661254883,0.13078400492668152],"min":[-0.443707674741745,-0.1282535344362259],"normalized":false,"type":"VEC2"},{"bufferView":176,"componentType":5123,"count":26676,"max":[26675],"min":[0],"normalized":false,"type":"SCALAR"},{"bufferView":177,"componentType":5126,"count":2844,"max":[21.852216720581055,4.486329078674316,0.5715000033378601],"min":[21.145618438720703,3.4929769039154053,-0.2793999910354614],"normalized":false,"type":"VEC3"},{"bufferView":178,"componentType":5126,"count":2844,"max":[1.0,0.00021070241928100586,1.0000001192092896,-1.0],"min":[-1.0,-0.00014381069922819734,-1.0000001192092896,-1.0],"normalized":false,"type":"VEC4"},{"bufferView":179,"componentType":5126,"count":2844,"max":[1.0,1.0,1.0],"min":[-1.0,-1.0,-1.0],"normalized":false,"type":"VEC3"},{"bufferView":180,"componentType":5126,"count":2844,"max":[0.3537124991416931,1.523116946220398],"min":[-0.5080000162124634,-0.4965497851371765],"normalized":false,"type":"VEC2"},{"bufferView":181,"componentType":5123,"count":2844,"max":[2843],"min":[0],"normalized":false,"type":"SCALAR"},{"bufferView":182,"componentType":5126,"count":6132,"max":[25.208833694458008,8.489683151245117,0.4230630397796631],"min":[20.03225326538086,0.830053985118866,-0.12870599329471588],"normalized":false,"type":"VEC3"},{"bufferView":183,"componentType":5126,"count":6132,"max":[1.0,0.37447500228881836,1.0,-1.0],"min":[-1.0,-0.3775535225868225,-1.0000001192092896,-1.0],"normalized":false,"type":"VEC4"},{"bufferView":184,"componentType":5126,"count":6132,"max":[0.9955108165740967,0.9915727972984314,0.9999995231628418],"min":[-0.249259352684021,-0.5556139349937439,-0.9999997615814209],"normalized":false,"type":"VEC3"},{"bufferView":185,"componentType":5126,"count":6132,"max":[0.7957249879837036,0.4218674898147583],"min":[-0.6614346504211426,-0.43247899413108826],"normalized":false,"type":"VEC2"},{"bufferView":186,"componentType":5123,"count":6132,"max":[6131],"min":[0],"normalized":false,"type":"SCALAR"},{"bufferView":187,"componentType":5126,"count":3828,"max":[-12.377095222473145,-1.8843779563903809,5.395191192626953],"min":[-14.005779266357422,-3.513062000274658,4.82328987121582],"normalized":false,"type":"VEC3"},{"bufferView":188,"componentType":5126,"count":3828,"max":[1.0,0.21301957964897156,1.0000001192092896,-1.0],"min":[-1.0,-0.21292102336883545,-1.0000001192092896,-1.0],"normalized":false,"type":"VEC4"},{"bufferView":189,"componentType":5126,"count":3828,"max":[0.9951880574226379,0.9951916337013245,1.0],"min":[-0.9951844215393066,-0.9951877593994141,-1.0],"normalized":false,"type":"VEC3"},{"bufferView":190,"componentType":5126,"count":3828,"max":[0.17325399816036224,0.5360509753227234],"min":[-0.17325399816036224,-0.5360509753227234],"normalized":false,"type":"VEC2"},{"bufferView":191,"componentType":5126,"count":2730,"max":[0.8556069731712341,3.901777982711792,6.136681079864502],"min":[0.5698570013046265,3.342679023742676,5.361526966094971],"normalized":false,"type":"VEC3"},{"bufferView":192,"componentType":5126,"count":2730,"max":[0.005765020847320557,0.9161856174468994,0.915172815322876,-1.0],"min":[-0.0012652873992919922,-0.9989523887634277,-0.9839445948600769,-1.0],"normalized":false,"type":"VEC4"},{"bufferView":193,"componentType":5126,"count":2730,"max":[1.0,0.9835989475250244,0.914747416973114],"min":[-1.0,-0.9147491455078125,-0.9987300038337708],"normalized":false,"type":"VEC3"},{"bufferView":194,"componentType":5126,"count":2730,"max":[0.4370831847190857,0.2561039924621582],"min":[-0.47437599301338196,-0.1993691474199295],"normalized":false,"type":"VEC2"},{"bufferView":195,"componentType":5123,"count":2730,"max":[2729],"min":[0],"normalized":false,"type":"SCALAR"},{"bufferView":196,"componentType":5126,"count":2730,"max":[0.8398650288581848,3.997015953063965,6.400444984436035],"min":[0.7446150183677673,3.7959771156311035,6.1458330154418945],"normalized":false,"type":"VEC3"},{"bufferView":197,"componentType":5126,"count":2730,"max":[0.012795329093933105,0.9927570819854736,0.9776925444602966,-1.0],"min":[-0.002774849534034729,-0.9940232634544373,-0.9778385758399963,-1.0],"normalized":false,"type":"VEC4"},{"bufferView":198,"componentType":5126,"count":2730,"max":[1.0,0.9216919541358948,0.9923907518386841],"min":[-1.0,-0.9774168729782104,-0.9935764074325562],"normalized":false,"type":"VEC3"},{"bufferView":199,"componentType":5126,"count":2730,"max":[0.1456940919160843,0.08536799997091293],"min":[-0.15812499821186066,-0.0664563849568367],"normalized":false,"type":"VEC2"},{"bufferView":200,"componentType":5123,"count":2730,"max":[2729],"min":[0],"normalized":false,"type":"SCALAR"},{"bufferView":201,"componentType":5126,"count":2694,"max":[0.8477360010147095,3.65585994720459,6.6421308517456055],"min":[0.6572359800338745,3.0445220470428467,6.245718002319336],"normalized":false,"type":"VEC3"},{"bufferView":202,"componentType":5126,"count":2694,"max":[0.009424924850463867,1.0000001192092896,1.0000001192092896,-1.0],"min":[-0.0011020898818969727,-1.0000001192092896,-0.967326819896698,-1.0],"normalized":false,"type":"VEC4"},{"bufferView":203,"componentType":5126,"count":2694,"max":[1.0,0.9668167233467102,0.9999411106109619],"min":[-1.0,-0.9999398589134216,-0.9990509748458862],"normalized":false,"type":"VEC3"},{"bufferView":204,"componentType":5126,"count":2694,"max":[0.2913881838321686,0.17073599994182587],"min":[-0.3162499964237213,-0.1329127699136734],"normalized":false,"type":"VEC2"},{"bufferView":205,"componentType":5123,"count":2694,"max":[2693],"min":[0],"normalized":false,"type":"SCALAR"},{"bufferView":206,"componentType":5126,"count":1896,"max":[-13.906499862670898,-0.12700000405311584,5.206999778747559],"min":[-14.097000122070313,-0.38100001215934753,4.953000068664551],"normalized":false,"type":"VEC3"},{"bufferView":207,"componentType":5126,"count":1896,"max":[1.0,0.9965682029724121,1.0,-1.0],"min":[-7.272418588399887e-05,-0.9965720176696777,-1.0,-1.0],"normalized":false,"type":"VEC4"},{"bufferView":208,"componentType":5126,"count":1896,"max":[1.0,1.0,1.0],"min":[-1.0,-1.0,-1.0],"normalized":false,"type":"VEC3"},{"bufferView":209,"componentType":5126,"count":1896,"max":[0.12699533998966217,0.3989819884300232],"min":[-0.1777999997138977,-0.3989819884300232],"normalized":false,"type":"VEC2"},{"bufferView":210,"componentType":5123,"count":1896,"max":[1895],"min":[0],"normalized":false,"type":"SCALAR"},{"bufferView":211,"componentType":5126,"count":1980,"max":[-12.66189956665039,-0.06403198838233948,5.270500183105469],"min":[-12.699999809265137,-0.4439670145511627,4.889500141143799],"normalized":false,"type":"VEC3"},{"bufferView":212,"componentType":5126,"count":1980,"max":[0.9990488290786743,0.9966191649436951,1.0,-1.0],"min":[-0.9990527629852295,-0.996605634689331,-1.0,-1.0],"normalized":false,"type":"VEC4"},{"bufferView":213,"componentType":5126,"count":1980,"max":[1.0,0.9962620139122009,0.9990488290786743],"min":[-1.0,-0.9962610006332397,-0.9990488290786743],"normalized":false,"type":"VEC3"},{"bufferView":214,"componentType":5126,"count":1980,"max":[0.19050000607967377,0.5983589887619019],"min":[-0.19050000607967377,-0.5983589887619019],"normalized":false,"type":"VEC2"},{"bufferView":215,"componentType":5123,"count":1980,"max":[1979],"min":[0],"normalized":false,"type":"SCALAR"},{"bufferView":216,"componentType":5126,"count":13554,"max":[-12.699999809265137,-0.02429598569869995,5.310092926025391],"min":[-13.906499862670898,-0.9238730072975159,4.8514628410339355],"normalized":false,"type":"VEC3"},{"bufferView":217,"componentType":5126,"count":13554,"max":[1.0,0.9999855756759644,1.0,1.0],"min":[-0.9999997615814209,-0.9999850988388062,-1.0,-1.0],"normalized":false,"type":"VEC4"},{"bufferView":218,"componentType":5126,"count":13554,"max":[1.0,0.9990493059158325,1.0],"min":[-1.0,-0.9990485906600952,-0.9991366863250732],"normalized":false,"type":"VEC3"},{"bufferView":219,"componentType":5126,"count":13554,"max":[3.934407949447632,0.7378029823303223],"min":[-0.48226282000541687,-0.7228747010231018],"normalized":false,"type":"VEC2"},{"bufferView":220,"componentType":5123,"count":13554,"max":[13553],"min":[0],"normalized":false,"type":"SCALAR"},{"bufferView":221,"componentType":5126,"count":2694,"max":[-9.509380340576172,3.2409110069274902,1.065451979637146],"min":[-9.890379905700684,2.018234968185425,0.27262601256370544],"normalized":false,"type":"VEC3"},{"bufferView":222,"componentType":5126,"count":2694,"max":[0.006465092301368713,1.0000001192092896,1.0000001192092896,-1.0],"min":[-0.0010836422443389893,-1.0000001192092896,-0.967326819896698,-1.0],"normalized":false,"type":"VEC4"},{"bufferView":223,"componentType":5126,"count":2694,"max":[1.0,0.9668167233467102,0.9999411106109619],"min":[-1.0,-0.9999398589134216,-0.9990482330322266],"normalized":false,"type":"VEC3"},{"bufferView":224,"componentType":5126,"count":2694,"max":[0.5827772617340088,0.34147199988365173],"min":[-0.6325010061264038,-0.2658255398273468],"normalized":false,"type":"VEC2"},{"bufferView":225,"componentType":5123,"count":2694,"max":[2693],"min":[0],"normalized":false,"type":"SCALAR"},{"bufferView":226,"componentType":5126,"count":2730,"max":[-9.525121688842773,3.9232239723205566,0.5820800065994263],"min":[-9.715621948242188,3.521143913269043,0.07285500317811966],"normalized":false,"type":"VEC3"},{"bufferView":227,"componentType":5126,"count":2730,"max":[0.008239686489105225,0.9927570819854736,0.9776925444602966,-1.0],"min":[-0.003600284457206726,-0.9940232634544373,-0.9778385758399963,-1.0],"normalized":false,"type":"VEC4"},{"bufferView":228,"componentType":5126,"count":2730,"max":[1.0,0.9216919541358948,0.9923907518386841],"min":[-1.0,-0.9774168729782104,-0.9935764074325562],"normalized":false,"type":"VEC3"},{"bufferView":229,"componentType":5126,"count":2730,"max":[0.2913881838321686,0.17073599994182587],"min":[-0.3162499964237213,-0.1329127699136734],"normalized":false,"type":"VEC2"},{"bufferView":230,"componentType":5123,"count":2730,"max":[2729],"min":[0],"normalized":false,"type":"SCALAR"},{"bufferView":231,"componentType":5126,"count":2730,"max":[-9.493638038635254,3.732748031616211,0.05455195903778076],"min":[-10.06513786315918,2.6145479679107666,-1.4957549571990967],"normalized":false,"type":"VEC3"},{"bufferView":232,"componentType":5126,"count":2730,"max":[0.00486108660697937,0.9161856174468994,0.915172815322876,-1.0],"min":[-0.0027025043964385986,-0.9989523887634277,-0.9839445948600769,-1.0],"normalized":false,"type":"VEC4"},{"bufferView":233,"componentType":5126,"count":2730,"max":[1.0,0.9835825562477112,0.914747416973114],"min":[-1.0,-0.9147491455078125,-0.9987300038337708],"normalized":false,"type":"VEC3"},{"bufferView":234,"componentType":5126,"count":2730,"max":[0.874165415763855,0.5122079849243164],"min":[-0.9487509727478027,-0.398738294839859],"normalized":false,"type":"VEC2"},{"bufferView":235,"componentType":5123,"count":2730,"max":[2729],"min":[0],"normalized":false,"type":"SCALAR"}],"asset":{"generator":"Godot Engine v4.7.2.stable.official@ed1daf0bf001b61586d9930840f2f1394092c079","version":"2.0"},"bufferViews":[{"buffer":0,"byteLength":137808,"byteStride":12,"target":34962},{"buffer":0,"byteLength":183744,"byteOffset":137808,"byteStride":16,"target":34962},{"buffer":0,"byteLength":137808,"byteOffset":321552,"byteStride":12,"target":34962},{"buffer":0,"byteLength":91872,"byteOffset":459360,"byteStride":8,"target":34962},{"buffer":0,"byteLength":22968,"byteOffset":551232,"target":34963},{"buffer":0,"byteLength":1152,"byteOffset":574200,"byteStride":12,"target":34962},{"buffer":0,"byteLength":1536,"byteOffset":575352,"byteStride":16,"target":34962},{"buffer":0,"byteLength":1152,"byteOffset":576888,"byteStride":12,"target":34962},{"buffer":0,"byteLength":768,"byteOffset":578040,"byteStride":8,"target":34962},{"buffer":0,"byteLength":96,"byteOffset":578808,"target":34963},{"buffer":0,"byteLength":2880,"byteOffset":578904,"byteStride":12,"target":34962},{"buffer":0,"byteLength":3840,"byteOffset":581784,"byteStride":16,"target":34962},{"buffer":0,"byteLength":2880,"byteOffset":585624,"byteStride":12,"target":34962},{"buffer":0,"byteLength":1920,"byteOffset":588504,"byteStride":8,"target":34962},{"buffer":0,"byteLength":240,"byteOffset":590424,"target":34963},{"buffer":0,"byteLength":1152,"byteOffset":590664,"byteStride":12,"target":34962},{"buffer":0,"byteLength":1536,"byteOffset":591816,"byteStride":16,"target":34962},{"buffer":0,"byteLength":1152,"byteOffset":593352,"byteStride":12,"target":34962},{"buffer":0,"byteLength":768,"byteOffset":594504,"byteStride":8,"target":34962},{"buffer":0,"byteLength":2880,"byteOffset":595272,"byteStride":12,"target":34962},{"buffer":0,"byteLength":3840,"byteOffset":598152,"byteStride":16,"target":34962},{"buffer":0,"byteLength":2880,"byteOffset":601992,"byteStride":12,"target":34962},{"buffer":0,"byteLength":1920,"byteOffset":604872,"byteStride":8,"target":34962},{"buffer":0,"byteLength":7776,"byteOffset":606792,"byteStride":12,"target":34962},{"buffer":0,"byteLength":10368,"byteOffset":614568,"byteStride":16,"target":34962},{"buffer":0,"byteLength":7776,"byteOffset":624936,"byteStride":12,"target":34962},{"buffer":0,"byteLength":5184,"byteOffset":632712,"byteStride":8,"target":34962},{"buffer":0,"byteLength":1296,"byteOffset":637896,"target":34963},{"buffer":0,"byteLength":10368,"byteOffset":639192,"byteStride":12,"target":34962},{"buffer":0,"byteLength":13824,"byteOffset":649560,"byteStride":16,"target":34962},{"buffer":0,"byteLength":10368,"byteOffset":663384,"byteStride":12,"target":34962},{"buffer":0,"byteLength":6912,"byteOffset":673752,"byteStride":8,"target":34962},{"buffer":0,"byteLength":1728,"byteOffset":680664,"target":34963},{"buffer":0,"byteLength":492912,"byteOffset":682392,"byteStride":12,"target":34962},{"buffer":0,"byteLength":657216,"byteOffset":1175304,"byteStride":16,"target":34962},{"buffer":0,"byteLength":492912,"byteOffset":1832520,"byteStride":12,"target":34962},{"buffer":0,"byteLength":328608,"byteOffset":2325432,"byteStride":8,"target":34962},{"buffer":0,"byteLength":82152,"byteOffset":2654040,"target":34963},{"buffer":0,"byteLength":492912,"byteOffset":2736192,"byteStride":12,"target":34962},{"buffer":0,"byteLength":657216,"byteOffset":3229104,"byteStride":16,"target":34962},{"buffer":0,"byteLength":492912,"byteOffset":3886320,"byteStride":12,"target":34962},{"buffer":0,"byteLength":328608,"byteOffset":4379232,"byteStride":8,"target":34962},{"buffer":0,"byteLength":45936,"byteOffset":4707840,"byteStride":12,"target":34962},{"buffer":0,"byteLength":61248,"byteOffset":4753776,"byteStride":16,"target":34962},{"buffer":0,"byteLength":45936,"byteOffset":4815024,"byteStride":12,"target":34962},{"buffer":0,"byteLength":30624,"byteOffset":4860960,"byteStride":8,"target":34962},{"buffer":0,"byteLength":7656,"byteOffset":4891584,"target":34963},{"buffer":0,"byteLength":126432,"byteOffset":4899240,"byteStride":12,"target":34962},{"buffer":0,"byteLength":168576,"byteOffset":5025672,"byteStride":16,"target":34962},{"buffer":0,"byteLength":126432,"byteOffset":5194248,"byteStride":12,"target":34962},{"buffer":0,"byteLength":84288,"byteOffset":5320680,"byteStride":8,"target":34962},{"buffer":0,"byteLength":21072,"byteOffset":5404968,"target":34963},{"buffer":0,"byteLength":26424,"byteOffset":5426040,"byteStride":12,"target":34962},{"buffer":0,"byteLength":35232,"byteOffset":5452464,"byteStride":16,"target":34962},{"buffer":0,"byteLength":26424,"byteOffset":5487696,"byteStride":12,"target":34962},{"buffer":0,"byteLength":17616,"byteOffset":5514120,"byteStride":8,"target":34962},{"buffer":0,"byteLength":4404,"byteOffset":5531736,"target":34963},{"buffer":0,"byteLength":3096,"byteOffset":5536140,"byteStride":12,"target":34962},{"buffer":0,"byteLength":4128,"byteOffset":5539236,"byteStride":16,"target":34962},{"buffer":0,"byteLength":3096,"byteOffset":5543364,"byteStride":12,"target":34962},{"buffer":0,"byteLength":2064,"byteOffset":5546460,"byteStride":8,"target":34962},{"buffer":0,"byteLength":516,"byteOffset":5548524,"target":34963},{"buffer":0,"byteLength":2021688,"byteOffset":5549040,"byteStride":12,"target":34962},{"buffer":0,"byteLength":2695584,"byteOffset":7570728,"byteStride":16,"target":34962},{"buffer":0,"byteLength":2021688,"byteOffset":10266312,"byteStride":12,"target":34962},{"buffer":0,"byteLength":1347792,"byteOffset":12288000,"byteStride":8,"target":34962},{"buffer":0,"byteLength":673896,"byteOffset":13635792,"target":34963},{"buffer":0,"byteLength":90360,"byteOffset":14309688,"byteStride":12,"target":34962},{"buffer":0,"byteLength":120480,"byteOffset":14400048,"byteStride":16,"target":34962},{"buffer":0,"byteLength":90360,"byteOffset":14520528,"byteStride":12,"target":34962},{"buffer":0,"byteLength":60240,"byteOffset":14610888,"byteStride":8,"target":34962},{"buffer":0,"byteLength":15060,"byteOffset":14671128,"target":34963},{"buffer":0,"byteLength":124416,"byteOffset":14686188,"byteStride":12,"target":34962},{"buffer":0,"byteLength":165888,"byteOffset":14810604,"byteStride":16,"target":34962},{"buffer":0,"byteLength":124416,"byteOffset":14976492,"byteStride":12,"target":34962},{"buffer":0,"byteLength":82944,"byteOffset":15100908,"byteStride":8,"target":34962},{"buffer":0,"byteLength":20736,"byteOffset":15183852,"target":34963},{"buffer":0,"byteLength":110016,"byteOffset":15204588,"byteStride":12,"target":34962},{"buffer":0,"byteLength":146688,"byteOffset":15314604,"byteStride":16,"target":34962},{"buffer":0,"byteLength":110016,"byteOffset":15461292,"byteStride":12,"target":34962},{"buffer":0,"byteLength":73344,"byteOffset":15571308,"byteStride":8,"target":34962},{"buffer":0,"byteLength":18336,"byteOffset":15644652,"target":34963},{"buffer":0,"byteLength":124416,"byteOffset":15662988,"byteStride":12,"target":34962},{"buffer":0,"byteLength":165888,"byteOffset":15787404,"byteStride":16,"target":34962},{"buffer":0,"byteLength":124416,"byteOffset":15953292,"byteStride":12,"target":34962},{"buffer":0,"byteLength":82944,"byteOffset":16077708,"byteStride":8,"target":34962},{"buffer":0,"byteLength":45936,"byteOffset":16160652,"byteStride":12,"target":34962},{"buffer":0,"byteLength":61248,"byteOffset":16206588,"byteStride":16,"target":34962},{"buffer":0,"byteLength":45936,"byteOffset":16267836,"byteStride":12,"target":34962},{"buffer":0,"byteLength":30624,"byteOffset":16313772,"byteStride":8,"target":34962},{"buffer":0,"byteLength":110016,"byteOffset":16344396,"byteStride":12,"target":34962},{"buffer":0,"byteLength":146688,"byteOffset":16454412,"byteStride":16,"target":34962},{"buffer":0,"byteLength":110016,"byteOffset":16601100,"byteStride":12,"target":34962},{"buffer":0,"byteLength":73344,"byteOffset":16711116,"byteStride":8,"target":34962},{"buffer":0,"byteLength":643248,"byteOffset":16784460,"byteStride":12,"target":34962},{"buffer":0,"byteLength":857664,"byteOffset":17427708,"byteStride":16,"target":34962},{"buffer":0,"byteLength":643248,"byteOffset":18285372,"byteStride":12,"target":34962},{"buffer":0,"byteLength":428832,"byteOffset":18928620,"byteStride":8,"target":34962},{"buffer":0,"byteLength":107208,"byteOffset":19357452,"target":34963},{"buffer":0,"byteLength":140040,"byteOffset":19464660,"byteStride":12,"target":34962},{"buffer":0,"byteLength":186720,"byteOffset":19604700,"byteStride":16,"target":34962},{"buffer":0,"byteLength":140040,"byteOffset":19791420,"byteStride":12,"target":34962},{"buffer":0,"byteLength":93360,"byteOffset":19931460,"byteStride":8,"target":34962},{"buffer":0,"byteLength":23340,"byteOffset":20024820,"target":34963},{"buffer":0,"byteLength":25308,"byteOffset":20048160,"byteStride":12,"target":34962},{"buffer":0,"byteLength":33744,"byteOffset":20073468,"byteStride":16,"target":34962},{"buffer":0,"byteLength":25308,"byteOffset":20107212,"byteStride":12,"target":34962},{"buffer":0,"byteLength":16872,"byteOffset":20132520,"byteStride":8,"target":34962},{"buffer":0,"byteLength":4218,"byteOffset":20149392,"target":34963},{"buffer":0,"byteLength":1085328,"byteOffset":20153612,"byteStride":12,"target":34962},{"buffer":0,"byteLength":1447104,"byteOffset":21238940,"byteStride":16,"target":34962},{"buffer":0,"byteLength":1085328,"byteOffset":22686044,"byteStride":12,"target":34962},{"buffer":0,"byteLength":723552,"byteOffset":23771372,"byteStride":8,"target":34962},{"buffer":0,"byteLength":361776,"byteOffset":24494924,"target":34963},{"buffer":0,"byteLength":15768,"byteOffset":24856700,"byteStride":12,"target":34962},{"buffer":0,"byteLength":21024,"byteOffset":24872468,"byteStride":16,"target":34962},{"buffer":0,"byteLength":15768,"byteOffset":24893492,"byteStride":12,"target":34962},{"buffer":0,"byteLength":10512,"byteOffset":24909260,"byteStride":8,"target":34962},{"buffer":0,"byteLength":2628,"byteOffset":24919772,"target":34963},{"buffer":0,"byteLength":14544,"byteOffset":24922400,"byteStride":12,"target":34962},{"buffer":0,"byteLength":19392,"byteOffset":24936944,"byteStride":16,"target":34962},{"buffer":0,"byteLength":14544,"byteOffset":24956336,"byteStride":12,"target":34962},{"buffer":0,"byteLength":9696,"byteOffset":24970880,"byteStride":8,"target":34962},{"buffer":0,"byteLength":2424,"byteOffset":24980576,"target":34963},{"buffer":0,"byteLength":17208,"byteOffset":24983000,"byteStride":12,"target":34962},{"buffer":0,"byteLength":22944,"byteOffset":25000208,"byteStride":16,"target":34962},{"buffer":0,"byteLength":17208,"byteOffset":25023152,"byteStride":12,"target":34962},{"buffer":0,"byteLength":11472,"byteOffset":25040360,"byteStride":8,"target":34962},{"buffer":0,"byteLength":2868,"byteOffset":25051832,"target":34963},{"buffer":0,"byteLength":9504,"byteOffset":25054700,"byteStride":12,"target":34962},{"buffer":0,"byteLength":12672,"byteOffset":25064204,"byteStride":16,"target":34962},{"buffer":0,"byteLength":9504,"byteOffset":25076876,"byteStride":12,"target":34962},{"buffer":0,"byteLength":6336,"byteOffset":25086380,"byteStride":8,"target":34962},{"buffer":0,"byteLength":1584,"byteOffset":25092716,"target":34963},{"buffer":0,"byteLength":32760,"byteOffset":25094300,"byteStride":12,"target":34962},{"buffer":0,"byteLength":43680,"byteOffset":25127060,"byteStride":16,"target":34962},{"buffer":0,"byteLength":32760,"byteOffset":25170740,"byteStride":12,"target":34962},{"buffer":0,"byteLength":21840,"byteOffset":25203500,"byteStride":8,"target":34962},{"buffer":0,"byteLength":5460,"byteOffset":25225340,"target":34963},{"buffer":0,"byteLength":58320,"byteOffset":25230800,"byteStride":12,"target":34962},{"buffer":0,"byteLength":77760,"byteOffset":25289120,"byteStride":16,"target":34962},{"buffer":0,"byteLength":58320,"byteOffset":25366880,"byteStride":12,"target":34962},{"buffer":0,"byteLength":38880,"byteOffset":25425200,"byteStride":8,"target":34962},{"buffer":0,"byteLength":9720,"byteOffset":25464080,"target":34963},{"buffer":0,"byteLength":45936,"byteOffset":25473800,"byteStride":12,"target":34962},{"buffer":0,"byteLength":61248,"byteOffset":25519736,"byteStride":16,"target":34962},{"buffer":0,"byteLength":45936,"byteOffset":25580984,"byteStride":12,"target":34962},{"buffer":0,"byteLength":30624,"byteOffset":25626920,"byteStride":8,"target":34962},{"buffer":0,"byteLength":17784,"byteOffset":25657544,"byteStride":12,"target":34962},{"buffer":0,"byteLength":23712,"byteOffset":25675328,"byteStride":16,"target":34962},{"buffer":0,"byteLength":17784,"byteOffset":25699040,"byteStride":12,"target":34962},{"buffer":0,"byteLength":11856,"byteOffset":25716824,"byteStride":8,"target":34962},{"buffer":0,"byteLength":2964,"byteOffset":25728680,"target":34963},{"buffer":0,"byteLength":314604,"byteOffset":25731644,"byteStride":12,"target":34962},{"buffer":0,"byteLength":419472,"byteOffset":26046248,"byteStride":16,"target":34962},{"buffer":0,"byteLength":314604,"byteOffset":26465720,"byteStride":12,"target":34962},{"buffer":0,"byteLength":209736,"byteOffset":26780324,"byteStride":8,"target":34962},{"buffer":0,"byteLength":52434,"byteOffset":26990060,"target":34963},{"buffer":0,"byteLength":25344,"byteOffset":27042496,"byteStride":12,"target":34962},{"buffer":0,"byteLength":33792,"byteOffset":27067840,"byteStride":16,"target":34962},{"buffer":0,"byteLength":25344,"byteOffset":27101632,"byteStride":12,"target":34962},{"buffer":0,"byteLength":16896,"byteOffset":27126976,"byteStride":8,"target":34962},{"buffer":0,"byteLength":4224,"byteOffset":27143872,"target":34963},{"buffer":0,"byteLength":25344,"byteOffset":27148096,"byteStride":12,"target":34962},{"buffer":0,"byteLength":33792,"byteOffset":27173440,"byteStride":16,"target":34962},{"buffer":0,"byteLength":25344,"byteOffset":27207232,"byteStride":12,"target":34962},{"buffer":0,"byteLength":16896,"byteOffset":27232576,"byteStride":8,"target":34962},{"buffer":0,"byteLength":16776,"byteOffset":27249472,"byteStride":12,"target":34962},{"buffer":0,"byteLength":22368,"byteOffset":27266248,"byteStride":16,"target":34962},{"buffer":0,"byteLength":16776,"byteOffset":27288616,"byteStride":12,"target":34962},{"buffer":0,"byteLength":11184,"byteOffset":27305392,"byteStride":8,"target":34962},{"buffer":0,"byteLength":2796,"byteOffset":27316576,"target":34963},{"buffer":0,"byteLength":320112,"byteOffset":27319372,"byteStride":12,"target":34962},{"buffer":0,"byteLength":426816,"byteOffset":27639484,"byteStride":16,"target":34962},{"buffer":0,"byteLength":320112,"byteOffset":28066300,"byteStride":12,"target":34962},{"buffer":0,"byteLength":213408,"byteOffset":28386412,"byteStride":8,"target":34962},{"buffer":0,"byteLength":53352,"byteOffset":28599820,"target":34963},{"buffer":0,"byteLength":34128,"byteOffset":28653172,"byteStride":12,"target":34962},{"buffer":0,"byteLength":45504,"byteOffset":28687300,"byteStride":16,"target":34962},{"buffer":0,"byteLength":34128,"byteOffset":28732804,"byteStride":12,"target":34962},{"buffer":0,"byteLength":22752,"byteOffset":28766932,"byteStride":8,"target":34962},{"buffer":0,"byteLength":5688,"byteOffset":28789684,"target":34963},{"buffer":0,"byteLength":73584,"byteOffset":28795372,"byteStride":12,"target":34962},{"buffer":0,"byteLength":98112,"byteOffset":28868956,"byteStride":16,"target":34962},{"buffer":0,"byteLength":73584,"byteOffset":28967068,"byteStride":12,"target":34962},{"buffer":0,"byteLength":49056,"byteOffset":29040652,"byteStride":8,"target":34962},{"buffer":0,"byteLength":12264,"byteOffset":29089708,"target":34963},{"buffer":0,"byteLength":45936,"byteOffset":29101972,"byteStride":12,"target":34962},{"buffer":0,"byteLength":61248,"byteOffset":29147908,"byteStride":16,"target":34962},{"buffer":0,"byteLength":45936,"byteOffset":29209156,"byteStride":12,"target":34962},{"buffer":0,"byteLength":30624,"byteOffset":29255092,"byteStride":8,"target":34962},{"buffer":0,"byteLength":32760,"byteOffset":29285716,"byteStride":12,"target":34962},{"buffer":0,"byteLength":43680,"byteOffset":29318476,"byteStride":16,"target":34962},{"buffer":0,"byteLength":32760,"byteOffset":29362156,"byteStride":12,"target":34962},{"buffer":0,"byteLength":21840,"byteOffset":29394916,"byteStride":8,"target":34962},{"buffer":0,"byteLength":5460,"byteOffset":29416756,"target":34963},{"buffer":0,"byteLength":32760,"byteOffset":29422216,"byteStride":12,"target":34962},{"buffer":0,"byteLength":43680,"byteOffset":29454976,"byteStride":16,"target":34962},{"buffer":0,"byteLength":32760,"byteOffset":29498656,"byteStride":12,"target":34962},{"buffer":0,"byteLength":21840,"byteOffset":29531416,"byteStride":8,"target":34962},{"buffer":0,"byteLength":5460,"byteOffset":29553256,"target":34963},{"buffer":0,"byteLength":32328,"byteOffset":29558716,"byteStride":12,"target":34962},{"buffer":0,"byteLength":43104,"byteOffset":29591044,"byteStride":16,"target":34962},{"buffer":0,"byteLength":32328,"byteOffset":29634148,"byteStride":12,"target":34962},{"buffer":0,"byteLength":21552,"byteOffset":29666476,"byteStride":8,"target":34962},{"buffer":0,"byteLength":5388,"byteOffset":29688028,"target":34963},{"buffer":0,"byteLength":22752,"byteOffset":29693416,"byteStride":12,"target":34962},{"buffer":0,"byteLength":30336,"byteOffset":29716168,"byteStride":16,"target":34962},{"buffer":0,"byteLength":22752,"byteOffset":29746504,"byteStride":12,"target":34962},{"buffer":0,"byteLength":15168,"byteOffset":29769256,"byteStride":8,"target":34962},{"buffer":0,"byteLength":3792,"byteOffset":29784424,"target":34963},{"buffer":0,"byteLength":23760,"byteOffset":29788216,"byteStride":12,"target":34962},{"buffer":0,"byteLength":31680,"byteOffset":29811976,"byteStride":16,"target":34962},{"buffer":0,"byteLength":23760,"byteOffset":29843656,"byteStride":12,"target":34962},{"buffer":0,"byteLength":15840,"byteOffset":29867416,"byteStride":8,"target":34962},{"buffer":0,"byteLength":3960,"byteOffset":29883256,"target":34963},{"buffer":0,"byteLength":162648,"byteOffset":29887216,"byteStride":12,"target":34962},{"buffer":0,"byteLength":216864,"byteOffset":30049864,"byteStride":16,"target":34962},{"buffer":0,"byteLength":162648,"byteOffset":30266728,"byteStride":12,"target":34962},{"buffer":0,"byteLength":108432,"byteOffset":30429376,"byteStride":8,"target":34962},{"buffer":0,"byteLength":27108,"byteOffset":30537808,"target":34963},{"buffer":0,"byteLength":32328,"byteOffset":30564916,"byteStride":12,"target":34962},{"buffer":0,"byteLength":43104,"byteOffset":30597244,"byteStride":16,"target":34962},{"buffer":0,"byteLength":32328,"byteOffset":30640348,"byteStride":12,"target":34962},{"buffer":0,"byteLength":21552,"byteOffset":30672676,"byteStride":8,"target":34962},{"buffer":0,"byteLength":5388,"byteOffset":30694228,"target":34963},{"buffer":0,"byteLength":32760,"byteOffset":30699616,"byteStride":12,"target":34962},{"buffer":0,"byteLength":43680,"byteOffset":30732376,"byteStride":16,"target":34962},{"buffer":0,"byteLength":32760,"byteOffset":30776056,"byteStride":12,"target":34962},{"buffer":0,"byteLength":21840,"byteOffset":30808816,"byteStride":8,"target":34962},{"buffer":0,"byteLength":5460,"byteOffset":30830656,"target":34963},{"buffer":0,"byteLength":32760,"byteOffset":30836116,"byteStride":12,"target":34962},{"buffer":0,"byteLength":43680,"byteOffset":30868876,"byteStride":16,"target":34962},{"buffer":0,"byteLength":32760,"byteOffset":30912556,"byteStride":12,"target":34962},{"buffer":0,"byteLength":21840,"byteOffset":30945316,"byteStride":8,"target":34962},{"buffer":0,"byteLength":5460,"byteOffset":30967156,"target":34963}],"buffers":[{"byteLength":30972616,"uri":"Cessna 103!0.bin"}],"extensionsUsed":["GODOT_single_root"],"materials":[{"name":"Paint_-_Enamel_Glossy_(White)_(1)","pbrMetallicRoughness":{"baseColorFactor":[1.0,1.0,1.0,1.0],"metallicFactor":0.0,"roughnessFactor":0.5}},{"name":"Steel_-_Satin","pbrMetallicRoughness":{"baseColorFactor":[1.0,1.0,1.0,1.0],"metallicFactor":0.0,"roughnessFactor":0.5}},{"name":"Plastic_-_Glossy_(Black)","pbrMetallicRoughness":{"baseColorFactor":[1.0,1.0,1.0,1.0],"metallicFactor":0.0,"roughnessFactor":0.5}},{"name":"Paint_-_Enamel_Glossy_(White)","pbrMetallicRoughness":{"baseColorFactor":[1.0,1.0,1.0,1.0],"metallicFactor":0.0,"roughnessFactor":0.5}},{"name":"Iron_-_Polished","pbrMetallicRoughness":{"baseColorFactor":[1.0,1.0,1.0,1.0],"metallicFactor":0.0,"roughnessFactor":0.5}},{"name":"Water_-_Clear","pbrMetallicRoughness":{"baseColorFactor":[1.0,1.0,1.0,1.0],"metallicFactor":0.0,"roughnessFactor":0.5}},{"name":"Steel_-_Satin2","pbrMetallicRoughness":{"baseColorFactor":[1.0,1.0,1.0,1.0],"metallicFactor":0.0,"roughnessFactor":0.5}},{"name":"Plastic_-_Glossy_(Black)2","pbrMetallicRoughness":{"baseColorFactor":[1.0,1.0,1.0,1.0],"metallicFactor":0.0,"roughnessFactor":0.5}},{"name":"Paint_-_Enamel_Glossy_(White)_(1)2","pbrMetallicRoughness":{"baseColorFactor":[1.0,1.0,1.0,1.0],"metallicFactor":0.0,"roughnessFactor":0.5}},{"name":"Paint_-_Enamel_Glossy_(White)_(1)3","pbrMetallicRoughness":{"baseColorFactor":[1.0,1.0,1.0,1.0],"metallicFactor":0.0,"roughnessFactor":0.5}},{"name":"Paint_-_Enamel_Glossy_(White)_(1)4","pbrMetallicRoughness":{"baseColorFactor":[1.0,1.0,1.0,1.0],"metallicFactor":0.0,"roughnessFactor":0.5}},{"name":"Paint_-_Enamel_Glossy_(White)_(1)5","pbrMetallicRoughness":{"baseColorFactor":[1.0,1.0,1.0,1.0],"metallicFactor":0.0,"roughnessFactor":0.5}},{"name":"Paint_-_Enamel_Glossy_(White)_(1)6","pbrMetallicRoughness":{"baseColorFactor":[1.0,1.0,1.0,1.0],"metallicFactor":0.0,"roughnessFactor":0.5}},{"name":"Paint_-_Enamel_Glossy_(White)_(1)7","pbrMetallicRoughness":{"baseColorFactor":[1.0,1.0,1.0,1.0],"metallicFactor":0.0,"roughnessFactor":0.5}},{"name":"Iron_-_Polished2","pbrMetallicRoughness":{"baseColorFactor":[1.0,1.0,1.0,1.0],"metallicFactor":0.0,"roughnessFactor":0.5}},{"name":"Paint_-_Enamel_Glossy_(White)_(1)8","pbrMetallicRoughness":{"baseColorFactor":[1.0,1.0,1.0,1.0],"metallicFactor":0.0,"roughnessFactor":0.5}},{"name":"Plastic_-_Glossy_(Black)3","pbrMetallicRoughness":{"baseColorFactor":[1.0,1.0,1.0,1.0],"metallicFactor":0.0,"roughnessFactor":0.5}},{"name":"Water_-_Clear2","pbrMetallicRoughness":{"baseColorFactor":[1.0,1.0,1.0,1.0],"metallicFactor":0.0,"roughnessFactor":0.5}},{"name":"Water_-_Clear3","pbrMetallicRoughness":{"baseColorFactor":[1.0,1.0,1.0,1.0],"metallicFactor":0.0,"roughnessFactor":0.5}},{"name":"Water_-_Clear4","pbrMetallicRoughness":{"baseColorFactor":[1.0,1.0,1.0,1.0],"metallicFactor":0.0,"roughnessFactor":0.5}},{"name":"Aluminum_-_Polished","pbrMetallicRoughness":{"baseColorFactor":[1.0,1.0,1.0,1.0],"metallicFactor":0.0,"roughnessFactor":0.5}},{"name":"Plastic_-_Matte_(Red)","pbrMetallicRoughness":{"baseColorFactor":[1.0,1.0,1.0,1.0],"metallicFactor":0.0,"roughnessFactor":0.5}},{"name":"Plastic_-_Glossy_(Black)4","pbrMetallicRoughness":{"baseColorFactor":[1.0,1.0,1.0,1.0],"metallicFactor":0.0,"roughnessFactor":0.5}},{"name":"Cherry","pbrMetallicRoughness":{"baseColorFactor":[1.0,1.0,1.0,1.0],"metallicFactor":0.0,"roughnessFactor":0.5}},{"name":"Cherry2","pbrMetallicRoughness":{"baseColorFactor":[1.0,1.0,1.0,1.0],"metallicFactor":0.0,"roughnessFactor":0.5}},{"name":"Cherry3","pbrMetallicRoughness":{"baseColorFactor":[1.0,1.0,1.0,1.0],"metallicFactor":0.0,"roughnessFactor":0.5}}],"meshes":[{"name":"Cessna 103 FINAL2_obj_mesh","primitives":[{"attributes":{"NORMAL":2,"POSITION":0,"TANGENT":1,"TEXCOORD_0":3},"indices":4,"material":0,"mode":4}]},{"name":"Cessna 103 FINAL2_obj_mesh2","primitives":[{"attributes":{"NORMAL":7,"POSITION":5,"TANGENT":6,"TEXCOORD_0":8},"indices":9,"material":1,"mode":4}]},{"name":"Cessna 103 FINAL2_obj_mesh3","primitives":[{"attributes":{"NORMAL":12,"POSITION":10,"TANGENT":11,"TEXCOORD_0":13},"indices":14,"material":1,"mode":4}]},{"name":"Cessna 103 FINAL2_obj_mesh4","primitives":[{"attributes":{"NORMAL":17,"POSITION":15,"TANGENT":16,"TEXCOORD_0":18},"indices":9,"material":1,"mode":4}]},{"name":"Cessna 103 FINAL2_obj_mesh5","primitives":[{"attributes":{"NORMAL":21,"POSITION":19,"TANGENT":20,"TEXCOORD_0":22},"indices":14,"material":1,"mode":4}]},{"name":"Cessna 103 FINAL2_obj_mesh6","primitives":[{"attributes":{"NORMAL":25,"POSITION":23,"TANGENT":24,"TEXCOORD_0":26},"indices":27,"material":1,"mode":4}]},{"name":"Cessna 103 FINAL2_obj_mesh7","primitives":[{"attributes":{"NORMAL":30,"POSITION":28,"TANGENT":29,"TEXCOORD_0":31},"indices":32,"material":1,"mode":4}]},{"name":"Cessna 103 FINAL2_obj_mesh8","primitives":[{"attributes":{"NORMAL":35,"POSITION":33,"TANGENT":34,"TEXCOORD_0":36},"indices":37,"material":0,"mode":4}]},{"name":"Cessna 103 FINAL2_obj_mesh9","primitives":[{"attributes":{"NORMAL":40,"POSITION":38,"TANGENT":39,"TEXCOORD_0":41},"indices":37,"material":0,"mode":4}]},{"name":"Cessna 103 FINAL2_obj_mesh10","primitives":[{"attributes":{"NORMAL":44,"POSITION":42,"TANGENT":43,"TEXCOORD_0":45},"indices":46,"material":2,"mode":4}]},{"name":"Cessna 103 FINAL2_obj_mesh11","primitives":[{"attributes":{"NORMAL":49,"POSITION":47,"TANGENT":48,"TEXCOORD_0":50},"indices":51,"material":0,"mode":4}]},{"name":"Cessna 103 FINAL2_obj_mesh12","primitives":[{"attributes":{"NORMAL":54,"POSITION":52,"TANGENT":53,"TEXCOORD_0":55},"indices":56,"material":0,"mode":4}]},{"name":"Cessna 103 FINAL2_obj_mesh13","primitives":[{"attributes":{"NORMAL":59,"POSITION":57,"TANGENT":58,"TEXCOORD_0":60},"indices":61,"material":3,"mode":4}]},{"name":"Cessna 103 FINAL2_obj_mesh14","primitives":[{"attributes":{"NORMAL":64,"POSITION":62,"TANGENT":63,"TEXCOORD_0":65},"indices":66,"material":0,"mode":4}]},{"name":"Cessna 103 FINAL2_obj_mesh15","primitives":[{"attributes":{"NORMAL":69,"POSITION":67,"TANGENT":68,"TEXCOORD_0":70},"indices":71,"material":0,"mode":4}]},{"name":"Cessna 103 FINAL2_obj_mesh16","primitives":[{"attributes":{"NORMAL":74,"POSITION":72,"TANGENT":73,"TEXCOORD_0":75},"indices":76,"material":3,"mode":4}]},{"name":"Cessna 103 FINAL2_obj_mesh17","primitives":[{"attributes":{"NORMAL":79,"POSITION":77,"TANGENT":78,"TEXCOORD_0":80},"indices":81,"material":0,"mode":4}]},{"name":"Cessna 103 FINAL2_obj_mesh18","primitives":[{"attributes":{"NORMAL":84,"POSITION":82,"TANGENT":83,"TEXCOORD_0":85},"indices":76,"material":3,"mode":4}]},{"name":"Cessna 103 FINAL2_obj_mesh19","primitives":[{"attributes":{"NORMAL":88,"POSITION":86,"TANGENT":87,"TEXCOORD_0":89},"indices":46,"material":2,"mode":4}]},{"name":"Cessna 103 FINAL2_obj_mesh20","primitives":[{"attributes":{"NORMAL":92,"POSITION":90,"TANGENT":91,"TEXCOORD_0":93},"indices":81,"material":0,"mode":4}]},{"name":"Cessna 103 FINAL2_obj_mesh21","primitives":[{"attributes":{"NORMAL":96,"POSITION":94,"TANGENT":95,"TEXCOORD_0":97},"indices":98,"material":0,"mode":4}]},{"name":"Cessna 103 FINAL2_obj_mesh22","primitives":[{"attributes":{"NORMAL":101,"POSITION":99,"TANGENT":100,"TEXCOORD_0":102},"indices":103,"material":0,"mode":4}]},{"name":"Cessna 103 FINAL2_obj_mesh23","primitives":[{"attributes":{"NORMAL":106,"POSITION":104,"TANGENT":105,"TEXCOORD_0":107},"indices":108,"material":0,"mode":4}]},{"name":"Cessna 103 FINAL2_obj_mesh24","primitives":[{"attributes":{"NORMAL":111,"POSITION":109,"TANGENT":110,"TEXCOORD_0":112},"indices":113,"material":0,"mode":4}]},{"name":"Cessna 103 FINAL2_obj_mesh25","primitives":[{"attributes":{"NORMAL":116,"POSITION":114,"TANGENT":115,"TEXCOORD_0":117},"indices":118,"material":1,"mode":4}]},{"name":"Cessna 103 FINAL2_obj_mesh26","primitives":[{"attributes":{"NORMAL":121,"POSITION":119,"TANGENT":120,"TEXCOORD_0":122},"indices":123,"material":1,"mode":4}]},{"name":"Cessna 103 FINAL2_obj_mesh27","primitives":[{"attributes":{"NORMAL":126,"POSITION":124,"TANGENT":125,"TEXCOORD_0":127},"indices":128,"material":1,"mode":4}]},{"name":"Cessna 103 FINAL2_obj_mesh28","primitives":[{"attributes":{"NORMAL":131,"POSITION":129,"TANGENT":130,"TEXCOORD_0":132},"indices":133,"material":4,"mode":4}]},{"name":"Cessna 103 FINAL2_obj_mesh29","primitives":[{"attributes":{"NORMAL":136,"POSITION":134,"TANGENT":135,"TEXCOORD_0":137},"indices":138,"material":5,"mode":4}]},{"name":"Dipstick_obj (1)_mesh","primitives":[{"attributes":{"NORMAL":141,"POSITION":139,"TANGENT":140,"TEXCOORD_0":142},"indices":143,"material":6,"mode":4}]},{"name":"Landing Gear Flat Tire_obj_mesh","primitives":[{"attributes":{"NORMAL":146,"POSITION":144,"TANGENT":145,"TEXCOORD_0":147},"indices":46,"material":7,"mode":4}]},{"name":"Left Aileron_obj_mesh","primitives":[{"attributes":{"NORMAL":150,"POSITION":148,"TANGENT":149,"TEXCOORD_0":151},"indices":152,"material":8,"mode":4}]},{"name":"Left Elevator_obj_mesh","primitives":[{"attributes":{"NORMAL":155,"POSITION":153,"TANGENT":154,"TEXCOORD_0":156},"indices":157,"material":9,"mode":4}]},{"name":"Propeller_obj_mesh","primitives":[{"attributes":{"NORMAL":160,"POSITION":158,"TANGENT":159,"TEXCOORD_0":161},"indices":162,"material":10,"mode":4}]},{"name":"Propeller_obj_mesh2","primitives":[{"attributes":{"NORMAL":165,"POSITION":163,"TANGENT":164,"TEXCOORD_0":166},"indices":162,"material":11,"mode":4}]},{"name":"Right Aileron_obj_mesh","primitives":[{"attributes":{"NORMAL":169,"POSITION":167,"TANGENT":168,"TEXCOORD_0":170},"indices":171,"material":12,"mode":4}]},{"name":"Right Elevator_obj_mesh","primitives":[{"attributes":{"NORMAL":174,"POSITION":172,"TANGENT":173,"TEXCOORD_0":175},"indices":176,"material":13,"mode":4}]},{"name":"Rudder Screws_obj_mesh","primitives":[{"attributes":{"NORMAL":179,"POSITION":177,"TANGENT":178,"TEXCOORD_0":180},"indices":181,"material":14,"mode":4}]},{"name":"Rudder_obj_mesh","primitives":[{"attributes":{"NORMAL":184,"POSITION":182,"TANGENT":183,"TEXCOORD_0":185},"indices":186,"material":15,"mode":4}]},{"name":"Landing Gear Inflated Tire_obj_mesh","primitives":[{"attributes":{"NORMAL":189,"POSITION":187,"TANGENT":188,"TEXCOORD_0":190},"indices":46,"material":16,"mode":4}]},{"name":"Ice Debris_obj_mesh","primitives":[{"attributes":{"NORMAL":193,"POSITION":191,"TANGENT":192,"TEXCOORD_0":194},"indices":195,"material":17,"mode":4}]},{"name":"Ice Debris_obj_mesh2","primitives":[{"attributes":{"NORMAL":198,"POSITION":196,"TANGENT":197,"TEXCOORD_0":199},"indices":200,"material":18,"mode":4}]},{"name":"Ice Debris_obj_mesh3","primitives":[{"attributes":{"NORMAL":203,"POSITION":201,"TANGENT":202,"TEXCOORD_0":204},"indices":205,"material":19,"mode":4}]},{"name":"Ice Debris_obj_mesh4","primitives":[{"attributes":{"NORMAL":193,"POSITION":191,"TANGENT":192,"TEXCOORD_0":194},"indices":195,"material":17,"mode":4}]},{"name":"Ice Debris_obj_mesh22","primitives":[{"attributes":{"NORMAL":198,"POSITION":196,"TANGENT":197,"TEXCOORD_0":199},"indices":200,"material":18,"mode":4}]},{"name":"Ice Debris_obj_mesh32","primitives":[{"attributes":{"NORMAL":203,"POSITION":201,"TANGENT":202,"TEXCOORD_0":204},"indices":205,"material":19,"mode":4}]},{"name":"Heat Gun_obj_mesh","primitives":[{"attributes":{"NORMAL":208,"POSITION":206,"TANGENT":207,"TEXCOORD_0":209},"indices":210,"material":20,"mode":4}]},{"name":"Heat Gun_obj_mesh2","primitives":[{"attributes":{"NORMAL":213,"POSITION":211,"TANGENT":212,"TEXCOORD_0":214},"indices":215,"material":21,"mode":4}]},{"name":"Heat Gun_obj_mesh3","primitives":[{"attributes":{"NORMAL":218,"POSITION":216,"TANGENT":217,"TEXCOORD_0":219},"indices":220,"material":22,"mode":4}]},{"name":"Dirt Debris_obj_mesh","primitives":[{"attributes":{"NORMAL":223,"POSITION":221,"TANGENT":222,"TEXCOORD_0":224},"indices":225,"material":23,"mode":4}]},{"name":"Dirt Debris_obj_mesh2","primitives":[{"attributes":{"NORMAL":228,"POSITION":226,"TANGENT":227,"TEXCOORD_0":229},"indices":230,"material":24,"mode":4}]},{"name":"Dirt Debris_obj_mesh3","primitives":[{"attributes":{"NORMAL":233,"POSITION":231,"TANGENT":232,"TEXCOORD_0":234},"indices":235,"material":25,"mode":4}]},{"name":"Dirt Debris_obj_mesh4","primitives":[{"attributes":{"NORMAL":223,"POSITION":221,"TANGENT":222,"TEXCOORD_0":224},"indices":225,"material":23,"mode":4}]},{"name":"Dirt Debris_obj_mesh22","primitives":[{"attributes":{"NORMAL":228,"POSITION":226,"TANGENT":227,"TEXCOORD_0":229},"indices":230,"material":24,"mode":4}]},{"name":"Dirt Debris_obj_mesh32","primitives":[{"attributes":{"NORMAL":233,"POSITION":231,"TANGENT":232,"TEXCOORD_0":234},"indices":235,"material":25,"mode":4}]},{"name":"Dirt Debris_obj_mesh5","primitives":[{"attributes":{"NORMAL":223,"POSITION":221,"TANGENT":222,"TEXCOORD_0":224},"indices":225,"material":23,"mode":4}]},{"name":"Dirt Debris_obj_mesh23","primitives":[{"attributes":{"NORMAL":228,"POSITION":226,"TANGENT":227,"TEXCOORD_0":229},"indices":230,"material":24,"mode":4}]},{"name":"Dirt Debris_obj_mesh33","primitives":[{"attributes":{"NORMAL":233,"POSITION":231,"TANGENT":232,"TEXCOORD_0":234},"indices":235,"material":25,"mode":4}]}],"nodes":[{"children":[1,32,35,38,41,44,48,51,54,57,60,63,64,69,74,79,84,89],"name":"Node3D"},{"children":[2],"name":"Cessna 103 FINAL2_obj","translation":[0.0,5.0,0.0]},{"children":[3,4,5,6,7,8,9,10,11,12,13,14,15,16,17,18,19,20,21,22,23,24,25,26,27,28,29,30,31],"name":"Node"},{"mesh":0,"name":"cessna-172 (1)_obj"},{"mesh":1,"name":"cessna-172 (1)_obj (1)"},{"mesh":2,"name":"cessna-172 (1)_obj (2)"},{"mesh":3,"name":"cessna-172 (1)_obj (3)"},{"mesh":4,"name":"cessna-172 (1)_obj (4)"},{"mesh":5,"name":"cessna-172 (1)_obj (5)"},{"mesh":6,"name":"cessna-172 (1)_obj (6)"},{"mesh":7,"name":"cessna-172 (1)_obj (7)"},{"mesh":8,"name":"cessna-172 (1)_obj (8)"},{"mesh":9,"name":"cessna-172 (1)_obj (9)"},{"mesh":10,"name":"cessna-172 (1)_obj (10)"},{"mesh":11,"name":"cessna-172 (1)_obj (11)"},{"mesh":12,"name":"cessna-172 (1)_obj (13)"},{"mesh":13,"name":"cessna-172 (1)_obj (14)"},{"mesh":14,"name":"cessna-172 (1)_obj (15)"},{"mesh":15,"name":"cessna-172 (1)_obj (16)"},{"mesh":16,"name":"cessna-172 (1)_obj (18)"},{"mesh":17,"name":"cessna-172 (1)_obj (19)"},{"mesh":18,"name":"cessna-172 (1)_obj (20)"},{"mesh":19,"name":"cessna-172 (1)_obj (21)"},{"mesh":20,"name":"cessna-172 (1)_obj (22)"},{"mesh":21,"name":"cessna-172 (1)_obj (12) (1)"},{"mesh":22,"name":"cessna-172 (1)_obj (13) (1)"},{"mesh":23,"name":"cessna-172 (1)_obj (13) (1) (1)"},{"mesh":24,"name":"Body37"},{"mesh":25,"name":"Body59"},{"mesh":26,"name":"Body61"},{"mesh":27,"name":"Body65"},{"mesh":28,"name":"Body67"},{"children":[33],"name":"Dipstick_obj (1)","translation":[0.0,5.0,0.0]},{"children":[34],"name":"Node2"},{"mesh":29,"name":"Body60"},{"children":[36],"name":"Landing Gear Flat Tire_obj","translation":[0.0,5.0,0.0]},{"children":[37],"name":"Node3"},{"mesh":30,"name":"cessna-172 (1)_obj (17)"},{"children":[39],"name":"Left Aileron_obj","translation":[0.0,5.0,0.0]},{"children":[40],"name":"Node4"},{"mesh":31,"name":"cessna-172 (1)_obj (25)"},{"children":[42],"name":"Left Elevator_obj","translation":[0.0,5.0,0.0]},{"children":[43],"name":"Node5"},{"mesh":32,"name":"cessna-172 (1)_obj (22) (2)"},{"children":[45],"name":"Propeller_obj","translation":[0.0,5.0,0.0]},{"children":[46,47],"name":"Node6"},{"mesh":33,"name":"cessna-172 (1)_obj (23)"},{"mesh":34,"name":"cessna-172 (1)_obj (24)"},{"children":[49],"name":"Right Aileron_obj","translation":[0.0,5.0,0.0]},{"children":[50],"name":"Node7"},{"mesh":35,"name":"cessna-172 (1)_obj (12)"},{"children":[52],"name":"Right Elevator_obj","translation":[0.0,5.0,0.0]},{"children":[53],"name":"Node8"},{"mesh":36,"name":"cessna-172 (1)_obj (22) (1)"},{"children":[55],"name":"Rudder Screws_obj","translation":[0.0,6.0,0.0]},{"children":[56],"name":"Node9"},{"mesh":37,"name":"Body53"},{"children":[58],"name":"Rudder_obj","translation":[0.0,5.0,0.0]},{"children":[59],"name":"Node10"},{"mesh":38,"name":"cessna-172 (1)_obj (15) (1)"},{"children":[61],"name":"Landing Gear Inflated Tire_obj","translation":[3.0,0.0,-8.0]},{"children":[62],"name":"Node11"},{"mesh":39,"name":"cessna-172 (1)_obj (17) (1)"},{"name":"XRController3D"},{"children":[65],"name":"Ice Debris_obj","translation":[0.0,5.0,0.0]},{"children":[66,67,68],"name":"Node12"},{"mesh":40,"name":"Body40"},{"mesh":41,"name":"Body41"},{"mesh":42,"name":"Body42"},{"children":[70],"name":"Ice Debris_obj2","rotation":[0.0,0.0,0.7071067690849304,0.7071067690849304],"translation":[3.0,8.0,-14.0]},{"children":[71,72,73],"name":"Node13"},{"mesh":43,"name":"Body402"},{"mesh":44,"name":"Body412"},{"mesh":45,"name":"Body422"},{"children":[75],"name":"Heat Gun_obj","translation":[-3.0,0.0,-6.0]},{"children":[76,77,78],"name":"Node14"},{"mesh":46,"name":"Body55"},{"mesh":47,"name":"Body56"},{"mesh":48,"name":"Body57"},{"children":[80],"name":"Dirt Debris_obj","translation":[0.0,6.0,0.0]},{"children":[81,82,83],"name":"Node15"},{"mesh":49,"name":"Body1"},{"mesh":50,"name":"Body2"},{"mesh":51,"name":"Body3"},{"children":[85],"name":"Dirt Debris_obj2","rotation":[0.0,0.0,0.7071067690849304,0.7071067690849304],"translation":[24.0,16.0,3.0]},{"children":[86,87,88],"name":"Node16"},{"mesh":52,"name":"Body12"},{"mesh":53,"name":"Body22"},{"mesh":54,"name":"Body32"},{"children":[90],"name":"Dirt Debris_obj3","rotation":[0.7071067690849304,0.7071067690849304,-3.0908619663705394e-08,-3.0908619663705394e-08],"translation":[18.0,16.0,-3.0]},{"children":[91,92,93],"name":"Node17"},{"mesh":55,"name":"Body13"},{"mesh":56,"name":"Body23"},{"mesh":57,"name":"Body33"}],"scene":0,"scenes":[{"nodes":[0]}]}